#N canvas -8 -8 1536 781 10;
#X obj 268 373 notein;
#X obj 314 377 int 0;
#X obj 290 398 ==;
#X obj 268 421 *;
#N canvas 0 50 450 250 (subpatch) 0;
#X array sequencerPitches 6 float 3;
#A 0 220 261.63 293.66 329.63 392 440;
#X coords 0 0 6 1000 200 140 1 0 0;
#X restore 460 47 graph;
#X obj 701 196 tgl 15 0 empty empty empty 17 7 0 10 -262144 -1 -1 1
1;
#X obj 701 216 metro 250;
#X obj 701 265 tabread sequencerPitches;
#X floatatom 224 404 5 0 0 0 - - -, f 5;
#X obj 701 238 random 7;
#X obj 752 169 random 3;
#X obj 752 191 * 250;
#X obj 268 448 - 47;
#X obj 919 124 f 0;
#X obj 941 124 f 1;
#X obj 919 275 tgl 15 0 empty empty empty 17 7 0 10 -262144 -1 -1 0
1;
#X obj 861 126 f 0;
#X obj 883 126 f 1;
#X obj 861 276 tgl 15 0 empty empty empty 17 7 0 10 -262144 -1 -1 1
1;
#X obj 652 465 *;
#X floatatom 782 501 5 0 0 0 - - -, f 5;
#X obj 1040 102 notein;
#X obj 701 291 *;
#X obj 738 316 select 0;
#X obj 1040 163 pack 0 0 0;
#X obj 870 67 ctlin;
#X obj 883 108 select 51 52;
#X text 351 368 takes a notein value and converts it to a switch,
f 24;
#X text 114 490 Converts the MIDI signal to a useful integer (makes
the program more portable). Only meaningful outputs are currently from
1 to 24 1 should represent the "sounding" frequency and notes above
it turn on the higher harmonics \, changing the timbre, f 40;
#X text 1166 136 "Play" mode allows you to play the sound you created
in sandbox mode;
#X obj 873 482 Note, f 6;
#X obj 1040 135 poly 8 1;
#X obj 1040 206 route 1 2 3 4 5 6 7 8;
#X obj 483 516 bng 15 250 50 0 empty empty empty 17 7 0 10 -262144
-1 -1;
#X obj 887 617 dac~;
#X obj 716 531 CreateNote;
#X obj 757 84 ==;
#X obj 755 60 int 0;
#X obj 749 117 *;
#X obj 748 139 select 59;
#X obj 606 211 s sequencerPwr;
#X obj 752 291 s sandbox;
#X obj 954 290 s play;
#X text 430 237 "Sequencer" mode reads random pitches in a pentatonic
scale from the array and plays them all for random note lengths. Useful
for finding the sound you want since it's continuous and the note is
varying \, so you can kinda tell how it fares in different registers.
You have to do this first in order to play something., f 42;
#X text 920 25 control structure to change between "sequencer" and
"play" mode. If the left toggle is on \, it's in sandbox mode. If the
right is on \, it's in play mode., f 35;
#N canvas 53 50 1050 544 ViewParameters 1;
#X obj 74 169 r osc1;
#X obj 1116 169 r osc2;
#X obj 74 259 r osc3;
#X obj 387 186 tgl 15 0 empty empty empty 17 7 0 10 -262144 -1 -1 0
1;
#X obj 353 186 tgl 15 0 empty empty empty 17 7 0 10 -262144 -1 -1 0
1;
#X obj 320 186 tgl 15 0 empty empty empty 17 7 0 10 -262144 -1 -1 0
1;
#X obj 418 186 tgl 15 0 empty empty empty 17 7 0 10 -262144 -1 -1 0
1;
#X obj 450 186 tgl 15 0 empty empty empty 17 7 0 10 -262144 -1 -1 0
1;
#X obj 481 186 tgl 15 0 empty empty empty 17 7 0 10 -262144 -1 -1 0
1;
#X obj 514 186 tgl 15 0 empty empty empty 17 7 0 10 -262144 -1 -1 0
1;
#X obj 114 169 unpack 0 0 0 0 0 0 0 0 0;
#X obj 545 186 tgl 15 0 empty empty empty 17 7 0 10 -262144 -1 -1 0
1;
#X obj 833 186 tgl 15 0 empty empty empty 17 7 0 10 -262144 -1 -1 0
1;
#X obj 768 186 tgl 15 0 empty empty empty 17 7 0 10 -262144 -1 -1 0
1;
#X obj 801 186 tgl 15 0 empty empty empty 17 7 0 10 -262144 -1 -1 0
1;
#X obj 897 186 tgl 15 0 empty empty empty 17 7 0 10 -262144 -1 -1 0
1;
#X obj 735 186 tgl 15 0 empty empty empty 17 7 0 10 -262144 -1 -1 0
1;
#X obj 705 186 tgl 15 0 empty empty empty 17 7 0 10 -262144 -1 -1 0
1;
#X obj 674 186 tgl 15 0 empty empty empty 17 7 0 10 -262144 -1 -1 0
1;
#X obj 865 186 tgl 15 0 empty empty empty 17 7 0 10 -262144 -1 -1 0
1;
#X obj 968 169 unpack 0 0 0 0 0 0 0 0 0;
#X obj 114 259 unpack 0 0 0 0 0 0 0 0 0;
#X obj 355 276 tgl 15 0 empty empty empty 17 7 0 10 -262144 -1 -1 0
1;
#X obj 449 276 tgl 15 0 empty empty empty 17 7 0 10 -262144 -1 -1 0
1;
#X obj 480 276 tgl 15 0 empty empty empty 17 7 0 10 -262144 -1 -1 0
1;
#X obj 419 276 tgl 15 0 empty empty empty 17 7 0 10 -262144 -1 -1 0
1;
#X obj 516 276 tgl 15 0 empty empty empty 17 7 0 10 -262144 -1 -1 0
1;
#X obj 545 276 tgl 15 0 empty empty empty 17 7 0 10 -262144 -1 -1 0
1;
#X obj 387 276 tgl 15 0 empty empty empty 17 7 0 10 -262144 -1 -1 0
1;
#X obj 323 276 tgl 15 0 empty empty empty 17 7 0 10 -262144 -1 -1 0
1;
#X obj 653 29 r tunePwr;
#X obj 653 46 tgl 15 0 empty empty empty 17 7 0 10 -262144 -1 -1 0
1;
#X obj 442 129 r inControl1;
#X obj 442 146 tgl 15 0 empty empty empty 17 7 0 10 -262144 -1 -1 0
1;
#X obj 442 357 tgl 15 0 empty empty empty 17 7 0 10 -262144 -1 -1 0
1;
#X obj 794 146 tgl 15 0 empty empty empty 17 7 0 10 -262144 -1 -1 0
1;
#X obj 794 128 r inControl2;
#X obj 442 339 r inControl3;
#X text 321 168 1;
#X text 355 168 2;
#X text 388 168 3;
#X text 419 168 4;
#X text 451 168 5;
#X text 482 168 6;
#X text 516 168 7;
#X text 547 168 8;
#X text 679 168 9;
#X text 703 168 10;
#X text 735 168 11;
#X text 767 168 12;
#X text 801 168 13;
#X text 833 168 14;
#X text 865 168 15;
#X text 897 168 16;
#X text 321 262 17;
#X text 353 262 18;
#X text 386 262 19;
#X text 417 262 20;
#X text 448 262 21;
#X text 479 262 22;
#X text 515 262 23;
#X text 545 262 24;
#X obj 62 186 r ampOne;
#X floatatom 314 203 5 0 0 0 - - -, f 5;
#X floatatom 346 203 5 0 0 0 - - -, f 5;
#X floatatom 378 203 5 0 0 0 - - -, f 5;
#X floatatom 410 203 5 0 0 0 - - -, f 5;
#X floatatom 442 203 5 0 0 0 - - -, f 5;
#X floatatom 474 203 5 0 0 0 - - -, f 5;
#X floatatom 506 203 5 0 0 0 - - -, f 5;
#X floatatom 538 203 5 0 0 0 - - -, f 5;
#X obj 114 186 unpack 1 1 1 1 1 1 1 1 1;
#X floatatom 666 203 5 0 0 0 - - -, f 5;
#X floatatom 698 203 5 0 0 0 - - -, f 5;
#X floatatom 730 203 5 0 0 0 - - -, f 5;
#X floatatom 762 203 5 0 0 0 - - -, f 5;
#X floatatom 794 203 5 0 0 0 - - -, f 5;
#X floatatom 826 203 5 0 0 0 - - -, f 5;
#X floatatom 858 203 5 0 0 0 - - -, f 5;
#X floatatom 890 203 5 0 0 0 - - -, f 5;
#X obj 968 186 unpack 1 1 1 1 1 1 1 1 1;
#X floatatom 314 293 5 0 0 0 - - -, f 5;
#X floatatom 346 293 5 0 0 0 - - -, f 5;
#X floatatom 378 293 5 0 0 0 - - -, f 5;
#X floatatom 410 293 5 0 0 0 - - -, f 5;
#X floatatom 442 293 5 0 0 0 - - -, f 5;
#X floatatom 474 293 5 0 0 0 - - -, f 5;
#X floatatom 506 293 5 0 0 0 - - -, f 5;
#X floatatom 538 293 5 0 0 0 - - -, f 5;
#X obj 114 276 unpack 1 1 1 1 1 1 1 1 1;
#X obj 1116 186 r ampTwo;
#X obj 50 276 r ampThree;
#X floatatom 666 293 5 0 0 0 - - -, f 5;
#X floatatom 698 293 5 0 0 0 - - -, f 5;
#X floatatom 730 293 5 0 0 0 - - -, f 5;
#X floatatom 762 293 5 0 0 0 - - -, f 5;
#X floatatom 794 293 5 0 0 0 - - -, f 5;
#X floatatom 826 293 5 0 0 0 - - -, f 5;
#X floatatom 858 293 5 0 0 0 - - -, f 5;
#X floatatom 890 293 5 0 0 0 - - -, f 5;
#X obj 968 276 unpack 1 1 1 1 1 1 1 1 1;
#X obj 1116 276 r ampFour;
#X obj 968 259 unpack 0 0 0 0 0 0 0 0 0;
#X obj 705 276 tgl 15 0 empty empty empty 17 7 0 10 -262144 -1 -1 0
1;
#X obj 800 276 tgl 15 0 empty empty empty 17 7 0 10 -262144 -1 -1 0
1;
#X obj 834 276 tgl 15 0 empty empty empty 17 7 0 10 -262144 -1 -1 0
1;
#X obj 770 276 tgl 15 0 empty empty empty 17 7 0 10 -262144 -1 -1 0
1;
#X obj 865 276 tgl 15 0 empty empty empty 17 7 0 10 -262144 -1 -1 0
1;
#X obj 898 276 tgl 15 0 empty empty empty 17 7 0 10 -262144 -1 -1 0
1;
#X obj 736 276 tgl 15 0 empty empty empty 17 7 0 10 -262144 -1 -1 0
1;
#X obj 673 276 tgl 15 0 empty empty empty 17 7 0 10 -262144 -1 -1 0
1;
#X obj 794 357 tgl 15 0 empty empty empty 17 7 0 10 -262144 -1 -1 0
1;
#X obj 794 339 r inControl4;
#X obj 1116 259 r osc4;
#X text 671 261 25;
#X text 703 261 26;
#X text 735 261 27;
#X text 768 261 28;
#X text 799 261 29;
#X text 833 261 30;
#X text 864 261 31;
#X text 898 261 32;
#X floatatom 314 220 5 0 0 0 - - -, f 5;
#X floatatom 346 220 5 0 0 0 - - -, f 5;
#X floatatom 378 220 5 0 0 0 - - -, f 5;
#X floatatom 410 220 5 0 0 0 - - -, f 5;
#X floatatom 442 220 5 0 0 0 - - -, f 5;
#X floatatom 474 220 5 0 0 0 - - -, f 5;
#X floatatom 506 220 5 0 0 0 - - -, f 5;
#X floatatom 538 220 5 0 0 0 - - -, f 5;
#X obj 114 203 unpack 1 1 1 1 1 1 1 1 1;
#X obj 56 203 r tuneOne;
#X floatatom 666 220 5 0 0 0 - - -, f 5;
#X floatatom 698 220 5 0 0 0 - - -, f 5;
#X floatatom 730 220 5 0 0 0 - - -, f 5;
#X floatatom 762 220 5 0 0 0 - - -, f 5;
#X floatatom 794 220 5 0 0 0 - - -, f 5;
#X floatatom 826 220 5 0 0 0 - - -, f 5;
#X floatatom 858 220 5 0 0 0 - - -, f 5;
#X floatatom 890 220 5 0 0 0 - - -, f 5;
#X obj 968 203 unpack 1 1 1 1 1 1 1 1 1;
#X floatatom 314 310 5 0 0 0 - - -, f 5;
#X floatatom 346 310 5 0 0 0 - - -, f 5;
#X floatatom 378 310 5 0 0 0 - - -, f 5;
#X floatatom 410 310 5 0 0 0 - - -, f 5;
#X floatatom 442 310 5 0 0 0 - - -, f 5;
#X floatatom 474 310 5 0 0 0 - - -, f 5;
#X floatatom 506 310 5 0 0 0 - - -, f 5;
#X floatatom 538 310 5 0 0 0 - - -, f 5;
#X obj 114 293 unpack 1 1 1 1 1 1 1 1 1;
#X floatatom 666 310 5 0 0 0 - - -, f 5;
#X floatatom 698 310 5 0 0 0 - - -, f 5;
#X floatatom 730 310 5 0 0 0 - - -, f 5;
#X floatatom 762 310 5 0 0 0 - - -, f 5;
#X floatatom 794 310 5 0 0 0 - - -, f 5;
#X floatatom 826 310 5 0 0 0 - - -, f 5;
#X floatatom 858 310 5 0 0 0 - - -, f 5;
#X floatatom 890 310 5 0 0 0 - - -, f 5;
#X obj 968 293 unpack 1 1 1 1 1 1 1 1 1;
#X obj 1116 203 r tuneTwo;
#X obj 44 293 r tuneThree;
#X obj 1116 293 r tuneFour;
#X obj 950 25 r sequencerPwr;
#X obj 950 43 tgl 15 0 empty empty empty 17 7 0 10 -262144 -1 -1 1
1;
#X obj 500 29 r sandbox;
#X obj 500 47 tgl 15 0 empty empty empty 17 7 0 10 -262144 -1 -1 1
1;
#X obj 578 29 r play;
#X obj 578 46 tgl 15 0 empty empty empty 17 7 0 10 -262144 -1 -1 0
1;
#X obj 64 372 tgl 15 0 empty empty empty 17 7 0 10 -262144 -1 -1 0
1;
#X text 567 183 oscillator power;
#X text 598 203 volume;
#X text 577 219 detune amount;
#X text 565 273 oscillator power;
#X text 598 293 volume;
#X text 577 309 detune amount;
#X obj 281 437 r attack;
#X obj 456 437 r decay;
#X floatatom 281 461 5 0 0 0 - - -, f 5;
#X obj 64 354 r playControl;
#X floatatom 456 462 5 0 0 0 - - -, f 5;
#X obj 334 437 r sustain;
#X obj 392 437 r decayAmt;
#X obj 503 437 r release;
#X floatatom 392 461 5 0 0 0 - - -, f 5;
#X floatatom 334 461 5 0 0 0 - - -, f 5;
#X floatatom 503 461 5 0 0 0 - - -, f 5;
#X obj 156 437 r noiseAmt;
#X floatatom 156 464 5 0 0 0 - - -, f 5;
#X text 74 47 Values of volume related fields are from 0 to 1 Values
of tuning fields are the number of cents off from the fundamntal frequency
\, so there's consistency across oscillators and percieved differences
;
#X text 343 413 values are in seconds. Knobs 1-5;
#X text 152 417 Master slider;
#X text 156 345 Button 4 Gives control to fields below, f 21;
#X connect 0 0 10 0;
#X connect 1 0 20 0;
#X connect 2 0 21 0;
#X connect 10 1 5 0;
#X connect 10 2 4 0;
#X connect 10 3 3 0;
#X connect 10 4 6 0;
#X connect 10 5 7 0;
#X connect 10 6 8 0;
#X connect 10 7 9 0;
#X connect 10 8 11 0;
#X connect 20 1 18 0;
#X connect 20 2 17 0;
#X connect 20 3 16 0;
#X connect 20 4 13 0;
#X connect 20 5 14 0;
#X connect 20 6 12 0;
#X connect 20 7 19 0;
#X connect 20 8 15 0;
#X connect 21 1 29 0;
#X connect 21 2 22 0;
#X connect 21 3 28 0;
#X connect 21 4 25 0;
#X connect 21 5 23 0;
#X connect 21 6 24 0;
#X connect 21 7 26 0;
#X connect 21 8 27 0;
#X connect 30 0 31 0;
#X connect 32 0 33 0;
#X connect 36 0 35 0;
#X connect 37 0 34 0;
#X connect 62 0 71 0;
#X connect 71 1 63 0;
#X connect 71 2 64 0;
#X connect 71 3 65 0;
#X connect 71 4 66 0;
#X connect 71 5 67 0;
#X connect 71 6 68 0;
#X connect 71 7 69 0;
#X connect 71 8 70 0;
#X connect 80 1 72 0;
#X connect 80 2 73 0;
#X connect 80 3 74 0;
#X connect 80 4 75 0;
#X connect 80 5 76 0;
#X connect 80 6 77 0;
#X connect 80 7 78 0;
#X connect 80 8 79 0;
#X connect 89 1 81 0;
#X connect 89 2 82 0;
#X connect 89 3 83 0;
#X connect 89 4 84 0;
#X connect 89 5 85 0;
#X connect 89 6 86 0;
#X connect 89 7 87 0;
#X connect 89 8 88 0;
#X connect 90 0 80 0;
#X connect 91 0 89 0;
#X connect 100 1 92 0;
#X connect 100 2 93 0;
#X connect 100 3 94 0;
#X connect 100 4 95 0;
#X connect 100 5 96 0;
#X connect 100 6 97 0;
#X connect 100 7 98 0;
#X connect 100 8 99 0;
#X connect 101 0 100 0;
#X connect 102 1 110 0;
#X connect 102 2 103 0;
#X connect 102 3 109 0;
#X connect 102 4 106 0;
#X connect 102 5 104 0;
#X connect 102 6 105 0;
#X connect 102 7 107 0;
#X connect 102 8 108 0;
#X connect 112 0 111 0;
#X connect 113 0 102 0;
#X connect 130 1 122 0;
#X connect 130 2 123 0;
#X connect 130 3 124 0;
#X connect 130 4 125 0;
#X connect 130 5 126 0;
#X connect 130 6 127 0;
#X connect 130 7 128 0;
#X connect 130 8 129 0;
#X connect 131 0 130 0;
#X connect 140 1 132 0;
#X connect 140 2 133 0;
#X connect 140 3 134 0;
#X connect 140 4 135 0;
#X connect 140 5 136 0;
#X connect 140 6 137 0;
#X connect 140 7 138 0;
#X connect 140 8 139 0;
#X connect 149 1 141 0;
#X connect 149 2 142 0;
#X connect 149 3 143 0;
#X connect 149 4 144 0;
#X connect 149 5 145 0;
#X connect 149 6 146 0;
#X connect 149 7 147 0;
#X connect 149 8 148 0;
#X connect 158 1 150 0;
#X connect 158 2 151 0;
#X connect 158 3 152 0;
#X connect 158 4 153 0;
#X connect 158 5 154 0;
#X connect 158 6 155 0;
#X connect 158 7 156 0;
#X connect 158 8 157 0;
#X connect 159 0 140 0;
#X connect 160 0 149 0;
#X connect 161 0 158 0;
#X connect 162 0 163 0;
#X connect 164 0 165 0;
#X connect 166 0 167 0;
#X connect 175 0 177 0;
#X connect 176 0 179 0;
#X connect 178 0 168 0;
#X connect 180 0 184 0;
#X connect 181 0 183 0;
#X connect 182 0 185 0;
#X connect 186 0 187 0;
#X coords 0 544 1 543 85 60 0;
#X restore 126 205 pd ViewParameters;
#X obj 126 239 SetParameters;
#X obj 125 274 PhaseOsc;
#X obj 692 140 loadbang;
#X obj 869 247 loadbang;
#N canvas 543 50 744 628 gemExperiments 0;
#X obj 29 49 gemwin;
#X msg 31 14 create \, 1;
#X msg 104 13 destroy;
#X obj 61 440 gemhead;
#X obj 267 471 r envTotal;
#X obj 86 516 sphere;
#X obj 80 475 color;
#X obj 193 12 r freq;
#X obj 267 516 / 25;
#X obj 193 38 - 20;
#X obj 150 136 *;
#X obj 341 203 *;
#X obj 349 137 - 58;
#X obj 348 167 / 29;
#X obj 238 122 *;
#X obj 177 80 / 29;
#X obj 655 185 < 58;
#X obj 635 226 *;
#X obj 610 279 *;
#X obj 574 191 - 29;
#X obj 386 222 *;
#X obj 616 190 > 29;
#X obj 225 78 <= 29;
#X obj 389 135 >= 58;
#X obj 541 223 / 29;
#X obj 536 258 *;
#X floatatom 80 66 5 0 0 0 - - -, f 5;
#X obj 410 163 * -1;
#X obj 409 184 + 29;
#X obj 153 61 * -1;
#X obj 141 83 + 29;
#X obj 134 108 / 29;
#X obj 409 206 / 29;
#X obj 591 216 * -1;
#X obj 590 237 + 29;
#X obj 590 259 / 29;
#X floatatom 90 152 5 0 0 0 - - -, f 5;
#X obj 45 185 bng 15 250 50 0 empty empty empty 17 7 0 10 -262144 -1
-1;
#X floatatom 380 504 5 0 0 0 - - -, f 5;
#X obj 207 448 print;
#X obj 19 135 t f f;
#X obj 17 256 delay;
#X obj 116 198 f;
#X obj 277 36 bng 15 250 50 0 empty empty empty 17 7 0 10 -262144 -1
-1;
#X obj 276 440 pack 0 0 0;
#X obj 191 193 t b f;
#X obj 43 222 select 0;
#X obj 297 295 select 0;
#X obj 175 225 select 0;
#X obj 329 263 select 0;
#X connect 1 0 0 0;
#X connect 2 0 0 0;
#X connect 3 0 6 0;
#X connect 4 0 8 0;
#X connect 4 0 38 0;
#X connect 6 0 5 0;
#X connect 7 0 9 0;
#X connect 7 0 43 0;
#X connect 8 0 5 1;
#X connect 9 0 12 0;
#X connect 9 0 15 0;
#X connect 9 0 16 0;
#X connect 9 0 19 0;
#X connect 9 0 21 0;
#X connect 9 0 22 0;
#X connect 9 0 23 0;
#X connect 9 0 29 0;
#X connect 9 0 26 0;
#X connect 10 0 37 0;
#X connect 10 0 42 0;
#X connect 11 0 37 0;
#X connect 11 0 47 0;
#X connect 12 0 13 0;
#X connect 12 0 27 0;
#X connect 13 0 11 0;
#X connect 14 0 37 0;
#X connect 14 0 36 0;
#X connect 14 0 45 0;
#X connect 15 0 14 0;
#X connect 16 0 17 1;
#X connect 17 0 18 1;
#X connect 17 0 25 1;
#X connect 18 0 37 0;
#X connect 18 0 44 1;
#X connect 19 0 24 0;
#X connect 19 0 33 0;
#X connect 20 0 37 0;
#X connect 20 0 49 0;
#X connect 21 0 17 0;
#X connect 22 0 10 1;
#X connect 22 0 14 1;
#X connect 23 0 11 1;
#X connect 23 0 20 1;
#X connect 24 0 25 0;
#X connect 25 0 37 0;
#X connect 25 0 44 2;
#X connect 27 0 28 0;
#X connect 28 0 32 0;
#X connect 29 0 30 0;
#X connect 30 0 31 0;
#X connect 31 0 10 0;
#X connect 32 0 20 0;
#X connect 33 0 34 0;
#X connect 34 0 35 0;
#X connect 35 0 18 0;
#X connect 37 0 44 0;
#X connect 42 0 46 0;
#X connect 44 0 6 1;
#X connect 44 0 39 0;
#X connect 45 0 42 0;
#X connect 45 1 48 0;
#X connect 46 1 44 0;
#X connect 47 1 44 0;
#X connect 48 1 44 1;
#X connect 49 1 44 2;
#X restore 125 310 pd gemExperiments;
#N canvas 0 50 450 250 (subpatch) 0;
#X array waveshape 100 float 5;
#A 0 -0.121796 -0.109311 -0.0961566 -0.0826784 -0.0692061 -0.05607
-0.043572 -0.0319934 -0.0215821 -0.0125632 -0.00510386 0.000647195
0.00460226 0.0067084 0.00695992 0.00539007 0.00208125 -0.0028518 -0.00925241
-0.0169351 -0.025687 -0.0352732 -0.0454428 -0.0559314 -0.066472 -0.0768
-0.0866557 -0.0957998 -0.104004 -0.111068 -0.116817 -0.121116 -0.123852
-0.124974 -0.124439 -0.12227 -0.118514 -0.113267 -0.106649 -0.0988334
-0.0900014 -0.0803737 -0.0701874 -0.0596959 -0.0491632 -0.038858 -0.0290427
-0.0199736 -0.0118921 -0.00502094 0.000444196 0.00433648 0.00652706
0.00692178 0.0054727 0.00216417 -0.00296035 -0.00982891 -0.0183127
-0.0282503 -0.0394337 -0.0516325 -0.0645642 -0.0779415 -0.0914432 -0.104733
-0.117475 -0.129327 -0.139947 -0.149016 -0.156228 -0.161298 -0.163984
-0.164071 -0.16139 -0.155822 -0.147289 -0.135774 -0.121307 -0.103975
-0.0839159 -0.0613257 -0.0364405 -0.00955283 0.0190156 0.0488949 0.0796952
0.110995 0.142357 0.173338 0.203495 0.232383 0.259579 0.284678 0.307295
0.327096 0.343778 0.357083 0.366812 0.372811;
#X coords 0 1 100 -1 500 140 1 0 0;
#X restore 31 628 graph;
#X obj 629 596 tabwrite~ waveshape;
#X obj 633 538 tgl 15 0 empty empty empty 17 7 0 10 -262144 -1 -1 1
1;
#X obj 826 558 *~ 0.2;
#X obj 633 566 metro 1000;
#X floatatom 894 716 5 0 0 0 - - -, f 5;
#X obj 982 604 env~;
#X obj 1032 655 s envTotal;
#X obj 961 228 s freq;
#X obj 831 639 env~;
#X obj 963 564 *~ 1;
#X floatatom 982 173 5 0 0 0 - - -, f 5;
#X obj 1102 482 Note, f 8;
#X obj 1026 482 Note, f 7;
#X obj 950 482 Note, f 7;
#X obj 1179 482 Note, f 7;
#X obj 1242 482 Note, f 10;
#X obj 1320 482 Note, f 10;
#X obj 1417 482 Note, f 9;
#X connect 0 0 3 0;
#X connect 0 0 8 0;
#X connect 0 1 2 0;
#X connect 1 0 2 1;
#X connect 2 0 3 1;
#X connect 3 0 12 0;
#X connect 5 0 6 0;
#X connect 5 0 40 0;
#X connect 6 0 9 0;
#X connect 6 0 10 0;
#X connect 7 0 22 0;
#X connect 9 0 7 0;
#X connect 10 0 11 0;
#X connect 11 0 6 1;
#X connect 12 0 19 0;
#X connect 12 0 33 0;
#X connect 13 0 15 0;
#X connect 14 0 15 0;
#X connect 15 0 30 1;
#X connect 15 0 42 0;
#X connect 15 0 61 1;
#X connect 15 0 63 1;
#X connect 15 0 64 1;
#X connect 15 0 65 1;
#X connect 15 0 66 1;
#X connect 15 0 67 1;
#X connect 15 0 68 1;
#X connect 15 0 69 1;
#X connect 16 0 18 0;
#X connect 17 0 18 0;
#X connect 18 0 19 1;
#X connect 18 0 22 1;
#X connect 18 0 30 2;
#X connect 18 0 41 0;
#X connect 18 0 54 1;
#X connect 18 0 63 2;
#X connect 18 0 64 2;
#X connect 18 0 65 2;
#X connect 18 0 66 2;
#X connect 18 0 67 2;
#X connect 18 0 68 2;
#X connect 18 0 69 2;
#X connect 19 0 30 4;
#X connect 19 0 35 0;
#X connect 19 0 63 4;
#X connect 19 0 64 4;
#X connect 19 0 65 4;
#X connect 19 0 66 4;
#X connect 19 0 67 4;
#X connect 19 0 68 4;
#X connect 19 0 69 4;
#X connect 20 0 35 1;
#X connect 21 0 31 0;
#X connect 21 0 62 0;
#X connect 21 1 31 1;
#X connect 22 0 23 0;
#X connect 23 1 30 3;
#X connect 23 1 20 0;
#X connect 23 1 63 3;
#X connect 23 1 64 3;
#X connect 23 1 65 3;
#X connect 23 1 66 3;
#X connect 23 1 67 3;
#X connect 23 1 68 3;
#X connect 23 1 69 3;
#X connect 24 0 32 0;
#X connect 25 0 36 0;
#X connect 25 1 26 0;
#X connect 25 1 38 0;
#X connect 26 0 13 0;
#X connect 26 0 17 0;
#X connect 26 1 14 0;
#X connect 26 1 16 0;
#X connect 30 0 61 0;
#X connect 31 0 24 0;
#X connect 31 1 24 1;
#X connect 31 1 59 0;
#X connect 31 2 24 2;
#X connect 32 0 30 0;
#X connect 32 1 65 0;
#X connect 32 2 64 0;
#X connect 32 3 63 0;
#X connect 32 4 66 0;
#X connect 32 5 67 0;
#X connect 32 6 68 0;
#X connect 32 7 69 0;
#X connect 35 0 54 0;
#X connect 36 0 38 1;
#X connect 37 0 36 1;
#X connect 38 0 39 0;
#X connect 39 0 5 0;
#X connect 48 0 5 0;
#X connect 49 0 18 0;
#X connect 53 0 55 0;
#X connect 54 0 34 0;
#X connect 54 0 34 1;
#X connect 54 0 60 0;
#X connect 54 0 52 0;
#X connect 55 0 52 0;
#X connect 57 0 58 0;
#X connect 60 0 58 0;
#X connect 60 0 56 0;
#X connect 61 0 34 0;
#X connect 61 0 34 1;
#X connect 61 0 57 0;
#X connect 63 0 61 0;
#X connect 64 0 61 0;
#X connect 65 0 61 0;
#X connect 66 0 61 0;
#X connect 67 0 61 0;
#X connect 68 0 61 0;
#X connect 69 0 61 0;
