#N canvas 206 41 898 533 10;
#X obj 107 154 ==;
#X obj 95 177 *;
#X obj 89 201 select 0;
#X obj 88 230 / 127;
#X obj 235 153 ==;
#X obj 223 176 *;
#X obj 217 200 select 0;
#X obj 216 229 / 127;
#X obj 305 155 ==;
#X obj 293 178 *;
#X obj 287 202 select 0;
#X obj 286 231 / 127;
#X obj 169 154 ==;
#X obj 158 179 *;
#X obj 151 201 select 0;
#X obj 373 154 ==;
#X obj 361 177 *;
#X obj 355 201 select 0;
#X obj 354 230 / 127;
#X obj 448 155 ==;
#X obj 436 178 *;
#X obj 430 202 select 0;
#X obj 429 231 / 127;
#X obj 511 155 ==;
#X obj 499 178 *;
#X obj 493 202 select 0;
#X obj 492 231 / 127;
#X obj 581 152 ==;
#X obj 569 175 *;
#X obj 563 199 select 0;
#X obj 562 228 / 127;
#X obj 175 12 inlet;
#X obj 227 14 inlet;
#X obj 152 234 / 127;
#X obj 304 12 inlet;
#X obj 88 276 outlet;
#X obj 151 274 outlet;
#X obj 219 275 outlet;
#X obj 287 275 outlet;
#X obj 349 274 outlet;
#X obj 425 274 outlet;
#X obj 490 274 outlet;
#X obj 561 276 outlet, f 11;
#X obj 123 130 f 21;
#X obj 185 130 f 22;
#X obj 251 129 f 23;
#X obj 321 131 f 24;
#X obj 389 130 f 25;
#X obj 449 129 f 26;
#X obj 527 131 f 27;
#X obj 597 128 f 28;
#X connect 0 0 1 1;
#X connect 1 0 2 0;
#X connect 2 1 3 0;
#X connect 3 0 35 0;
#X connect 4 0 5 1;
#X connect 5 0 6 0;
#X connect 6 1 7 0;
#X connect 7 0 37 0;
#X connect 8 0 9 1;
#X connect 9 0 10 0;
#X connect 10 1 11 0;
#X connect 11 0 38 0;
#X connect 12 0 13 1;
#X connect 13 0 14 0;
#X connect 14 1 33 0;
#X connect 15 0 16 1;
#X connect 16 0 17 0;
#X connect 17 1 18 0;
#X connect 18 0 39 0;
#X connect 19 0 20 1;
#X connect 20 0 21 0;
#X connect 21 1 22 0;
#X connect 22 0 40 0;
#X connect 23 0 24 1;
#X connect 24 0 25 0;
#X connect 25 1 26 0;
#X connect 26 0 41 0;
#X connect 27 0 28 1;
#X connect 28 0 29 0;
#X connect 29 1 30 0;
#X connect 30 0 42 0;
#X connect 31 0 43 0;
#X connect 31 0 44 0;
#X connect 31 0 45 0;
#X connect 31 0 46 0;
#X connect 31 0 47 0;
#X connect 31 0 48 0;
#X connect 31 0 49 0;
#X connect 31 0 50 0;
#X connect 32 0 1 0;
#X connect 32 0 13 0;
#X connect 32 0 5 0;
#X connect 32 0 9 0;
#X connect 32 0 16 0;
#X connect 32 0 20 0;
#X connect 32 0 24 0;
#X connect 32 0 28 0;
#X connect 33 0 36 0;
#X connect 34 0 0 0;
#X connect 34 0 12 0;
#X connect 34 0 4 0;
#X connect 34 0 8 0;
#X connect 34 0 15 0;
#X connect 34 0 19 0;
#X connect 34 0 23 0;
#X connect 34 0 27 0;
#X connect 43 0 0 1;
#X connect 44 0 12 1;
#X connect 45 0 4 1;
#X connect 46 0 8 1;
#X connect 47 0 15 1;
#X connect 48 0 19 1;
#X connect 49 0 23 1;
#X connect 50 0 27 1;
