#N canvas 57 50 1087 621 10;
#X text 28 22 Inputs: MIDI to control osc on/off Frequency;
#X obj 643 201 f 1;
#X obj 614 201 f 0;
#X obj 718 258 f 1;
#X obj 690 258 f 0;
#X obj 796 328 f 0;
#X obj 828 328 f 1;
#X floatatom 269 147 5 0 0 0 - - -, f 5;
#X obj 512 146 tgl 15 0 empty empty empty 17 7 0 10 -262144 -1 -1 0
1;
#X obj 332 275 OscBank2;
#X obj 313 495 outlet~;
#X text 365 463 audio outlet for the created note;
#X obj 621 44 ctlin;
#X obj 670 60 ==;
#X obj 695 28 int 0;
#X obj 626 87 *;
#X obj 269 95 inlet;
#X text 174 77 Inlet 1: MIDI message to turn on/off oscillators, f
23;
#X obj 436 12 inlet;
#X text 474 10 Inlet 2: frequency;
#X text 736 65 Control structure for buttons;
#X obj 392 345 OscBank3;
#X obj 269 218 OscBank1;
#X obj 512 170 s tunePwr;
#X obj 600 219 tgl 15 0 empty empty empty 17 7 0 10 -262144 -1 -1 0
1;
#X obj 687 281 tgl 15 0 empty empty empty 17 7 0 10 -262144 -1 -1 0
1;
#X obj 795 356 tgl 15 0 empty empty empty 17 7 0 10 -262144 -1 -1 0
1;
#X obj 600 249 s inControl1;
#X obj 795 379 s inControl3;
#X obj 687 306 s inControl2;
#X obj 467 417 OscBank4;
#X obj 932 400 f 0;
#X obj 964 400 f 1;
#X obj 931 428 tgl 15 0 empty empty empty 17 7 0 10 -262144 -1 -1 0
1;
#X obj 932 450 s inControl4;
#X obj 643 108 select 55 56 57 58 53 54;
#X obj 927 125 f 0;
#X obj 953 125 f 1;
#X obj 926 151 tgl 15 0 empty empty empty 17 7 0 10 -262144 -1 -1 0
1;
#X obj 927 173 s playControl;
#X obj 243 420 makeNoise;
#X obj 470 107 f 0;
#X obj 497 106 f 1;
#X obj 447 138 *;
#X obj 385 105 f 0;
#X obj 412 104 f 1;
#X obj 371 137 *;
#X obj 352 67 bng 15 250 50 0 empty empty empty 17 7 0 10 -262144 -1
-1;
#X obj 486 71 bng 15 250 50 0 empty empty empty 17 7 0 10 -262144 -1
-1;
#X obj 475 29 loadbang;
#X obj 351 39 r useExtFreq;
#X obj 487 49 r useIntFreq;
#X obj 323 104 r extFreq;
#X obj 342 166 select 0;
#X obj 432 164 select 0;
#X connect 1 0 22 2;
#X connect 1 0 24 0;
#X connect 2 0 22 2;
#X connect 2 0 24 0;
#X connect 3 0 9 2;
#X connect 3 0 25 0;
#X connect 4 0 9 2;
#X connect 4 0 25 0;
#X connect 5 0 21 2;
#X connect 5 0 26 0;
#X connect 6 0 21 2;
#X connect 6 0 26 0;
#X connect 7 0 22 0;
#X connect 8 0 9 3;
#X connect 8 0 21 3;
#X connect 8 0 22 3;
#X connect 8 0 23 0;
#X connect 8 0 30 3;
#X connect 9 0 21 0;
#X connect 9 1 10 0;
#X connect 12 0 13 0;
#X connect 12 1 15 0;
#X connect 13 0 15 1;
#X connect 14 0 13 1;
#X connect 15 0 35 0;
#X connect 16 0 7 0;
#X connect 18 0 43 0;
#X connect 21 0 30 0;
#X connect 21 1 10 0;
#X connect 22 0 9 0;
#X connect 22 1 10 0;
#X connect 24 0 27 0;
#X connect 25 0 29 0;
#X connect 26 0 28 0;
#X connect 30 1 10 0;
#X connect 31 0 33 0;
#X connect 31 0 30 2;
#X connect 32 0 33 0;
#X connect 32 0 30 2;
#X connect 33 0 34 0;
#X connect 35 0 4 0;
#X connect 35 0 1 0;
#X connect 35 0 5 0;
#X connect 35 0 31 0;
#X connect 35 0 36 0;
#X connect 35 1 2 0;
#X connect 35 1 4 0;
#X connect 35 1 3 0;
#X connect 35 1 5 0;
#X connect 35 1 31 0;
#X connect 35 1 36 0;
#X connect 35 2 4 0;
#X connect 35 2 2 0;
#X connect 35 2 6 0;
#X connect 35 2 31 0;
#X connect 35 2 36 0;
#X connect 35 3 32 0;
#X connect 35 3 5 0;
#X connect 35 3 2 0;
#X connect 35 3 36 0;
#X connect 35 3 4 0;
#X connect 35 4 8 0;
#X connect 35 5 2 0;
#X connect 35 5 4 0;
#X connect 35 5 5 0;
#X connect 35 5 31 0;
#X connect 35 5 37 0;
#X connect 36 0 38 0;
#X connect 37 0 38 0;
#X connect 38 0 39 0;
#X connect 40 0 10 0;
#X connect 41 0 43 1;
#X connect 42 0 43 1;
#X connect 43 0 54 0;
#X connect 44 0 46 1;
#X connect 45 0 46 1;
#X connect 46 0 53 0;
#X connect 47 0 45 0;
#X connect 47 0 41 0;
#X connect 48 0 42 0;
#X connect 48 0 44 0;
#X connect 49 0 48 0;
#X connect 50 0 47 0;
#X connect 51 0 48 0;
#X connect 52 0 46 0;
#X connect 53 1 22 1;
#X connect 53 1 9 1;
#X connect 53 1 21 1;
#X connect 53 1 30 1;
#X connect 54 1 22 1;
#X connect 54 1 9 1;
#X connect 54 1 21 1;
#X connect 54 1 30 1;
