#N canvas -8 -8 1536 781 10;
#X obj 44 466 inlet;
#X text 12 406 Takes in the bang for the beginning of every keypress
, f 18;
#X obj 164 421 inlet;
#X text 147 360 Takes in a float for the max amplitude, f 12;
#X obj 432 646 line~;
#X text 329 633 arguments to the right inlet are target THEN time,
f 19;
#X obj 164 502 f;
#X obj 44 488 bng 15 250 50 0 empty empty empty 17 7 0 10 -262144 -1
-1;
#X obj 209 503 f;
#X obj 432 734 outlet~;
#X obj 164 564 pack 0 0;
#X floatatom 508 733 5 0 0 0 - - -, f 5;
#X obj 506 710 env~;
#X obj 751 464 inlet;
#X obj 728 580 pack 0 0;
#X obj 728 526 f 0;
#X obj 773 538 f;
#X obj 751 500 bng 15 250 50 0 empty empty empty 17 7 0 10 -262144
-1 -1;
#X text 744 403 bang that signals the end of the note, f 10;
#X text 454 37 takes in a float for the percentage of the max amplitude
to decay to, f 17;
#X obj 277 453 delay;
#X obj 449 413 / 100;
#X obj 434 438 *;
#X obj 434 511 f;
#X obj 477 511 f;
#X obj 432 617 pack 0 0;
#X obj 279 430 +;
#X obj 277 483 bng 15 250 50 0 empty empty empty 17 7 0 10 -262144
-1 -1;
#X floatatom 567 687 5 0 0 0 - - -, f 5;
#X obj 565 664 env~;
#X obj 164 535 exp;
#X obj 434 597 exp;
#X obj 728 552 exp;
#X obj 432 694 log~;
#X floatatom 134 438 5 0 0 0 - - -, f 5;
#X obj 910 343 f 100;
#X obj 279 343 f 10;
#X obj 33 233 r playControl;
#X obj 33 251 tgl 15 0 empty empty empty 17 7 0 10 -262144 -1 -1 0
1;
#X floatatom 33 265 5 0 0 0 - - -, f 5;
#X obj 245 279 *;
#X obj 246 150 == 21;
#X obj 231 170 *;
#X obj 245 245 pow;
#X obj 181 152 bng 15 250 50 0 empty empty empty 17 7 0 10 -262144
-1 -1;
#X obj 181 174 f 1.08;
#X obj 853 279 *;
#X obj 906 176 *;
#X obj 853 240 pow;
#X obj 853 151 bng 15 250 50 0 empty empty empty 17 7 0 10 -262144
-1 -1;
#X obj 853 173 f 1.08;
#X obj 230 385 s attack;
#X obj 222 310 select 0 1;
#X obj 853 300 select 0 1;
#X obj 910 389 / 1000;
#X obj 230 361 / 1000;
#X obj 875 117 ctlin;
#X obj 921 151 == 25;
#X obj 360 279 *;
#X obj 376 184 *;
#X obj 360 247 pow;
#X obj 314 162 bng 15 250 50 0 empty empty empty 17 7 0 10 -262144
-1 -1;
#X obj 354 321 select 0 1;
#X obj 355 360 / 1000;
#X obj 391 162 == 22;
#X obj 314 192 f 1.08;
#X obj 355 384 s sustain;
#X obj 910 415 s release;
#X text 830 379 release time;
#X obj 411 343 f 1000;
#X obj 663 343 f 100;
#X obj 606 279 *;
#X obj 657 183 *;
#X obj 606 254 pow;
#X obj 606 151 bng 15 250 50 0 empty empty empty 17 7 0 10 -262144
-1 -1;
#X obj 606 177 f 1.08;
#X obj 606 300 select 0 1;
#X obj 663 399 / 1000;
#X text 609 370 decay time;
#X obj 663 425 s decay;
#X obj 672 156 == 24;
#X obj 520 343 f 100;
#X obj 463 279 *;
#X obj 465 202 *;
#X obj 463 300 select 0 1;
#X text 454 377 decay to %;
#X obj 480 176 == 23;
#X obj 520 392 s decayAmt;
#X obj 465 228 / 127;
#X obj 463 251 * 100;
#X obj 33 288 notein;
#X floatatom 475 360 5 0 0 0 - - -, f 5;
#X floatatom 623 360 5 0 0 0 - - -, f 5;
#X floatatom 870 360 5 0 0 0 - - -, f 5;
#X obj 181 125 ctlin;
#X obj 314 134 ctlin;
#X obj 465 118 ctlin;
#X obj 606 117 ctlin;
#X text 217 64 creates a float for the time to reach the target amp
in MS, f 10;
#X text 349 94 creates a float for the sustain length, f 12;
#X text 620 50 creates a float for the decay time, f 12;
#X text 848 69 creates a float for the release time;
#X obj 33 326 noteBangOnOff;
#X obj 91 302 bng 15 250 50 0 empty empty empty 17 7 0 10 -262144 -1
-1;
#X obj 425 573 select 0;
#X obj 434 542 *;
#X floatatom 290 371 5 0 0 0 - - -, f 5;
#X floatatom 418 371 5 0 0 0 - - -, f 5;
#X floatatom 478 442 5 0 0 0 - - -, f 5;
#X obj 392 503 f 1, f 4;
#X obj 515 603 bng 15 250 50 0 empty empty empty 17 7 0 10 -262144
-1 -1;
#X obj 44 509 f 0;
#X obj 377 543 f;
#X obj 348 528 bng 15 250 50 0 empty empty empty 17 7 0 10 -262144
-1 -1;
#X connect 0 0 7 0;
#X connect 2 0 34 0;
#X connect 2 0 6 0;
#X connect 2 0 22 0;
#X connect 4 0 29 0;
#X connect 4 0 33 0;
#X connect 6 0 30 0;
#X connect 7 0 6 0;
#X connect 7 0 8 0;
#X connect 7 0 20 0;
#X connect 7 0 111 0;
#X connect 7 0 109 0;
#X connect 8 0 10 1;
#X connect 10 0 4 0;
#X connect 12 0 11 0;
#X connect 13 0 17 0;
#X connect 14 0 4 0;
#X connect 15 0 32 0;
#X connect 15 0 105 1;
#X connect 15 0 112 0;
#X connect 16 0 14 1;
#X connect 17 0 16 0;
#X connect 17 0 15 0;
#X connect 20 0 23 0;
#X connect 20 0 24 0;
#X connect 20 0 27 0;
#X connect 21 0 22 1;
#X connect 21 0 108 0;
#X connect 22 0 23 0;
#X connect 23 0 105 0;
#X connect 23 0 113 0;
#X connect 24 0 25 1;
#X connect 25 0 4 0;
#X connect 26 0 20 1;
#X connect 29 0 28 0;
#X connect 30 0 10 0;
#X connect 31 0 25 0;
#X connect 32 0 14 0;
#X connect 33 0 12 0;
#X connect 33 0 9 0;
#X connect 35 0 54 0;
#X connect 35 0 93 0;
#X connect 35 0 16 0;
#X connect 36 0 55 0;
#X connect 36 0 26 0;
#X connect 36 0 8 0;
#X connect 36 0 106 0;
#X connect 37 0 38 0;
#X connect 38 0 39 0;
#X connect 39 0 40 1;
#X connect 39 0 46 1;
#X connect 39 0 58 1;
#X connect 39 0 71 1;
#X connect 39 0 82 1;
#X connect 40 0 52 0;
#X connect 41 0 42 1;
#X connect 42 0 43 1;
#X connect 43 0 40 0;
#X connect 44 0 45 0;
#X connect 45 0 43 0;
#X connect 46 0 53 0;
#X connect 47 0 48 1;
#X connect 48 0 46 0;
#X connect 49 0 50 0;
#X connect 50 0 48 0;
#X connect 52 2 36 0;
#X connect 53 2 35 0;
#X connect 54 0 67 0;
#X connect 55 0 51 0;
#X connect 56 0 49 0;
#X connect 56 0 47 0;
#X connect 56 1 57 0;
#X connect 57 0 47 1;
#X connect 58 0 62 0;
#X connect 59 0 60 1;
#X connect 60 0 58 0;
#X connect 61 0 65 0;
#X connect 62 2 69 0;
#X connect 63 0 66 0;
#X connect 64 0 59 1;
#X connect 65 0 60 0;
#X connect 69 0 63 0;
#X connect 69 0 26 1;
#X connect 69 0 107 0;
#X connect 70 0 77 0;
#X connect 70 0 92 0;
#X connect 70 0 24 0;
#X connect 71 0 76 0;
#X connect 72 0 73 1;
#X connect 73 0 71 0;
#X connect 74 0 75 0;
#X connect 75 0 73 0;
#X connect 76 2 70 0;
#X connect 77 0 79 0;
#X connect 80 0 72 1;
#X connect 81 0 91 0;
#X connect 81 0 87 0;
#X connect 81 0 21 0;
#X connect 82 0 84 0;
#X connect 83 0 88 0;
#X connect 84 2 81 0;
#X connect 86 0 83 1;
#X connect 88 0 89 0;
#X connect 89 0 82 0;
#X connect 90 0 102 0;
#X connect 94 0 44 0;
#X connect 94 0 42 0;
#X connect 94 1 41 0;
#X connect 95 0 61 0;
#X connect 95 0 59 0;
#X connect 95 1 64 0;
#X connect 96 0 83 0;
#X connect 96 1 86 0;
#X connect 97 0 74 0;
#X connect 97 0 72 0;
#X connect 97 1 80 0;
#X connect 102 0 36 0;
#X connect 102 0 69 0;
#X connect 102 0 81 0;
#X connect 102 0 70 0;
#X connect 102 0 35 0;
#X connect 103 0 102 0;
#X connect 104 1 31 0;
#X connect 104 1 110 0;
#X connect 105 0 104 0;
#X connect 109 0 112 1;
#X connect 112 0 105 1;
#X connect 113 0 112 0;
