#N canvas 0 50 450 382 10;
#X obj 145 20 ctlin;
#X obj 158 61 == 7;
#X obj 208 58 r playControl;
#X obj 193 91 *;
#X obj 145 118 *;
#X obj 145 145 select 0;
#X obj 190 174 / 126;
#X obj 190 199 exp;
#X obj 190 223 - 1.007;
#X obj 190 250 / 1.732;
#X obj 75 244 noise~;
#X obj 75 278 *~;
#X obj 74 310 outlet~;
#X obj 190 288 s noiseAmt;
#X connect 0 0 4 0;
#X connect 0 1 1 0;
#X connect 1 0 3 0;
#X connect 2 0 3 1;
#X connect 3 0 4 1;
#X connect 4 0 5 0;
#X connect 5 1 6 0;
#X connect 6 0 7 0;
#X connect 7 0 8 0;
#X connect 8 0 9 0;
#X connect 9 0 11 1;
#X connect 9 0 13 0;
#X connect 10 0 11 0;
#X connect 11 0 12 0;
