#N canvas 0 50 1536 781 10;
#X obj 254 353 *~;
#X obj 271 323 line~;
#X obj 355 298 tgl 15 0 empty empty empty 17 7 0 10 -262144 -1 -1 0
1;
#X obj 332 351 *~;
#X obj 355 323 line~;
#X obj 433 298 tgl 15 0 empty empty empty 17 7 0 10 -262144 -1 -1 0
1;
#X obj 409 354 *~;
#X obj 433 325 line~;
#X obj 516 298 tgl 15 0 empty empty empty 17 7 0 10 -262144 -1 -1 0
1;
#X obj 516 326 line~;
#X obj 602 298 tgl 15 0 empty empty empty 17 7 0 10 -262144 -1 -1 0
1;
#X obj 574 351 *~;
#X obj 602 326 line~;
#X obj 684 298 tgl 15 0 empty empty empty 17 7 0 10 -262144 -1 -1 0
1;
#X obj 658 349 *~;
#X obj 684 326 line~;
#X obj 760 298 tgl 15 0 empty empty empty 17 7 0 10 -262144 -1 -1 0
1;
#X obj 739 351 *~;
#X obj 760 325 line~;
#X obj 846 298 tgl 15 0 empty empty empty 17 7 0 10 -262144 -1 -1 0
1;
#X obj 818 351 *~;
#X obj 846 327 line~;
#X obj 495 353 *~;
#X obj 232 255 osc~;
#X obj 307 254 osc~;
#X obj 392 253 osc~;
#X obj 472 249 osc~;
#X obj 551 254 osc~;
#X obj 639 255 osc~;
#X obj 724 256 osc~;
#X obj 798 251 osc~;
#X obj 271 298 tgl 15 0 empty empty empty 17 7 0 10 -262144 -1 -1 0
1;
#X obj 249 199 +;
#X obj 411 199 +;
#X obj 332 199 +;
#X obj 568 199 +;
#X obj 489 199 +;
#X obj 656 199 +;
#X obj 814 199 +;
#X obj 735 199 +;
#X floatatom 266 255 5 0 0 0 - - -, f 5;
#X floatatom 346 255 5 0 0 0 - - -, f 5;
#X floatatom 426 253 5 0 0 0 - - -, f 5;
#X floatatom 594 254 5 0 0 0 - - -, f 5;
#X floatatom 682 258 5 0 0 0 - - -, f 5;
#X floatatom 761 256 5 0 0 0 - - -, f 5;
#X floatatom 842 251 5 0 0 0 - - -, f 5;
#X floatatom 507 251 5 0 0 0 - - -, f 5;
#X floatatom 572 109 5 0 0 0 - - -, f 5;
#X floatatom 304 89 5 0 0 0 - - -, f 5;
#X obj 537 563 *~ 1;
#X obj 304 53 inlet;
#X text 155 47 inlet 1 controls which oscillators are on \, takes in
a MIDI value, f 22;
#X text 615 47 inlet 2 dictates the frequency that runs through this
instance of the oscillator bank, f 30;
#X obj 572 65 inlet;
#X text 1 305 outlets connected to the corresponding inlets, f 24
;
#X text 1138 349 outlets connected to the corresponding right inlets
, f 20;
#X text 1016 82 outlets connected to the corresponding right inlets
, f 20;
#X obj 896 84 bng 15 250 50 0 empty empty empty 17 7 0 10 -262144 -1
-1;
#X obj 1220 145 inlet;
#X obj 960 32 ctlin;
#X text 1168 83 inlet 3 is the toggle that corresponds to the tuning
and amplitude control structures, f 28;
#X obj 1084 337 *;
#X obj 1125 337 *;
#X obj 1084 289 ctlin;
#X obj 1307 181 inlet;
#X text 1350 173 inlet 4 is the toggle that turns on and off tuning
individual oscillators, f 30;
#X obj 536 593 outlet~;
#X obj 1221 170 tgl 15 0 empty empty empty 17 7 0 10 -262144 -1 -1
0 1;
#X floatatom 1307 232 5 0 0 0 - - -, f 5;
#X obj 162 418 outlet;
#X text 596 578 outlet 2 is the audio coming out of the oscillators
, f 24;
#X text 41 436 outlet 1 is used for chaining select statements that
control on/off for the other oscillators, f 27;
#X obj 960 82 *;
#X obj 989 82 *;
#X obj 911 313 pack 0 0 0 0 0 0 0 0 0;
#X obj 917 257 bng 15 250 50 0 empty empty empty 17 7 0 10 -262144
-1 -1;
#X obj 915 281 f 1;
#X obj 991 405 ctlin;
#X obj 1007 457 f 1;
#X obj 1006 440 bng 15 250 50 0 empty empty empty 17 7 0 10 -262144
-1 -1;
#X obj 33 281 select 25 26 27 28 29 30 31 32;
#X obj 249 226 * 25;
#X obj 332 227 * 26;
#X obj 411 230 * 27;
#X obj 489 227 * 28;
#X obj 568 228 * 29;
#X obj 656 226 * 30;
#X obj 735 226 * 31;
#X obj 814 227 * 32;
#X obj 1018 501 s ampFour;
#X obj 911 333 s osc4;
#N canvas 240 51 766 772 TuneControl4 0;
#X obj 27 148 ==;
#X obj 15 171 *;
#X obj 155 147 ==;
#X obj 143 170 *;
#X obj 137 223 select 0;
#X obj 225 149 ==;
#X obj 213 172 *;
#X obj 207 225 select 0;
#X obj 89 148 ==;
#X obj 78 173 *;
#X obj 74 223 select 0;
#X obj 293 148 ==;
#X obj 281 171 *;
#X obj 275 224 select 0;
#X obj 368 149 ==;
#X obj 356 172 *;
#X obj 350 225 select 0;
#X obj 431 149 ==;
#X obj 419 172 *;
#X obj 413 225 select 0;
#X obj 501 146 ==;
#X obj 489 169 *;
#X obj 483 222 select 0;
#X obj 32 38 inlet initBang;
#X obj 180 34 inlet ctlinVal;
#X obj 304 39 inlet ctrlinWhich;
#X obj 585 147 inlet resetAll;
#X obj 13 252 - 63;
#X obj 579 287 bng 15 250 50 0 empty empty empty 17 7 0 10 -262144
-1 -1;
#X obj 33 347 *;
#X obj 9 225 select 0;
#X obj 575 314 tgl 15 0 empty empty empty 17 7 0 10 -262144 -1 -1 0
1;
#X obj 22 309 f;
#X obj 137 249 - 63;
#X obj 160 346 *;
#X obj 150 309 f;
#X obj 207 255 - 63;
#X obj 218 352 *;
#X obj 209 312 f;
#X obj 75 250 - 63;
#X obj 100 349 *;
#X obj 85 307 f;
#X obj 279 256 - 63;
#X obj 290 353 *;
#X obj 281 313 f;
#X obj 350 255 - 63;
#X obj 361 352 *;
#X obj 352 312 f;
#X obj 414 256 - 63;
#X obj 425 353 *;
#X obj 416 313 f;
#X obj 482 258 - 63;
#X obj 493 355 *;
#X obj 484 315 f;
#X obj 36 397 outlet;
#X obj 103 397 outlet;
#X obj 159 399 outlet;
#X obj 216 401 outlet;
#X obj 283 399 outlet;
#X obj 358 392 outlet;
#X obj 418 393 outlet;
#X obj 483 391 outlet;
#X obj 561 377 outlet;
#X obj 43 124 f 41;
#X obj 105 124 f 42;
#X obj 171 123 f 43;
#X obj 241 125 f 44;
#X obj 309 124 f 45;
#X obj 369 123 f 46;
#X obj 447 125 f 47;
#X obj 517 122 f 48;
#X floatatom 29 199 5 0 0 0 - - -, f 5;
#X floatatom 22 331 5 0 0 0 - - -, f 5;
#X obj 16 276 / 12;
#X obj 77 274 / 12;
#X obj 142 273 / 12;
#X obj 211 279 / 12;
#X obj 283 280 / 12;
#X obj 354 279 / 12;
#X obj 418 280 / 12;
#X obj 486 282 / 12;
#X connect 0 0 1 1;
#X connect 1 0 30 0;
#X connect 1 0 71 0;
#X connect 2 0 3 1;
#X connect 3 0 4 0;
#X connect 4 1 33 0;
#X connect 5 0 6 1;
#X connect 6 0 7 0;
#X connect 7 1 36 0;
#X connect 8 0 9 1;
#X connect 9 0 10 0;
#X connect 10 1 39 0;
#X connect 11 0 12 1;
#X connect 12 0 13 0;
#X connect 13 1 42 0;
#X connect 14 0 15 1;
#X connect 15 0 16 0;
#X connect 16 1 45 0;
#X connect 17 0 18 1;
#X connect 18 0 19 0;
#X connect 19 1 48 0;
#X connect 20 0 21 1;
#X connect 21 0 22 0;
#X connect 22 1 51 0;
#X connect 23 0 63 0;
#X connect 23 0 64 0;
#X connect 23 0 65 0;
#X connect 23 0 66 0;
#X connect 23 0 67 0;
#X connect 23 0 68 0;
#X connect 23 0 69 0;
#X connect 23 0 70 0;
#X connect 24 0 1 0;
#X connect 24 0 9 0;
#X connect 24 0 3 0;
#X connect 24 0 6 0;
#X connect 24 0 12 0;
#X connect 24 0 15 0;
#X connect 24 0 18 0;
#X connect 24 0 21 0;
#X connect 25 0 20 0;
#X connect 25 0 17 0;
#X connect 25 0 14 0;
#X connect 25 0 11 0;
#X connect 25 0 5 0;
#X connect 25 0 2 0;
#X connect 25 0 8 0;
#X connect 25 0 0 0;
#X connect 26 0 28 0;
#X connect 27 0 73 0;
#X connect 28 0 31 0;
#X connect 28 0 32 0;
#X connect 28 0 41 0;
#X connect 28 0 35 0;
#X connect 28 0 38 0;
#X connect 28 0 44 0;
#X connect 28 0 47 0;
#X connect 28 0 50 0;
#X connect 28 0 53 0;
#X connect 29 0 54 0;
#X connect 30 1 27 0;
#X connect 31 0 29 1;
#X connect 31 0 40 1;
#X connect 31 0 34 1;
#X connect 31 0 37 1;
#X connect 31 0 43 1;
#X connect 31 0 46 1;
#X connect 31 0 49 1;
#X connect 31 0 52 1;
#X connect 31 0 62 0;
#X connect 32 0 29 0;
#X connect 32 0 72 0;
#X connect 33 0 75 0;
#X connect 34 0 56 0;
#X connect 35 0 34 0;
#X connect 36 0 76 0;
#X connect 37 0 57 0;
#X connect 38 0 37 0;
#X connect 39 0 74 0;
#X connect 40 0 55 0;
#X connect 41 0 40 0;
#X connect 42 0 77 0;
#X connect 43 0 58 0;
#X connect 44 0 43 0;
#X connect 45 0 78 0;
#X connect 46 0 59 0;
#X connect 47 0 46 0;
#X connect 48 0 79 0;
#X connect 49 0 60 0;
#X connect 50 0 49 0;
#X connect 51 0 80 0;
#X connect 52 0 61 0;
#X connect 53 0 52 0;
#X connect 63 0 0 1;
#X connect 64 0 8 1;
#X connect 65 0 2 1;
#X connect 66 0 5 1;
#X connect 67 0 11 1;
#X connect 68 0 14 1;
#X connect 69 0 17 1;
#X connect 70 0 20 1;
#X connect 73 0 32 0;
#X connect 74 0 41 0;
#X connect 75 0 35 0;
#X connect 76 0 38 0;
#X connect 77 0 44 0;
#X connect 78 0 47 0;
#X connect 79 0 50 0;
#X connect 80 0 53 0;
#X restore 931 123 pd TuneControl4;
#N canvas 60 50 768 414 AmpControl4 0;
#X obj 102 154 ==;
#X obj 87 177 *;
#X obj 87 201 select 0;
#X obj 86 230 / 127;
#X obj 241 153 ==;
#X obj 226 176 *;
#X obj 226 200 select 0;
#X obj 225 229 / 127;
#X obj 305 155 ==;
#X obj 290 178 *;
#X obj 290 202 select 0;
#X obj 289 231 / 127;
#X obj 170 154 ==;
#X obj 155 179 *;
#X obj 155 201 select 0;
#X obj 373 154 ==;
#X obj 358 177 *;
#X obj 358 201 select 0;
#X obj 357 230 / 127;
#X obj 440 155 ==;
#X obj 425 178 *;
#X obj 425 202 select 0;
#X obj 424 231 / 127;
#X obj 503 155 ==;
#X obj 488 178 *;
#X obj 488 202 select 0;
#X obj 487 231 / 127;
#X obj 574 152 ==;
#X obj 559 175 *;
#X obj 559 199 select 0;
#X obj 558 228 / 127;
#X obj 175 12 inlet;
#X obj 227 14 inlet;
#X obj 156 234 / 127;
#X obj 304 12 inlet;
#X obj 86 325 outlet;
#X obj 156 327 outlet;
#X obj 225 328 outlet;
#X obj 289 329 outlet;
#X obj 357 328 outlet;
#X obj 424 327 outlet;
#X obj 487 327 outlet;
#X obj 558 329 outlet;
#X obj 117 130 f 21;
#X obj 185 130 f 22;
#X obj 256 129 f 23;
#X obj 320 131 f 24;
#X obj 388 130 f 25;
#X obj 455 129 f 26;
#X obj 518 131 f 27;
#X obj 589 128 f 28;
#X obj 86 259 exp;
#X obj 156 264 exp;
#X obj 558 258 exp;
#X obj 487 261 exp;
#X obj 424 258 exp;
#X obj 357 264 exp;
#X obj 289 264 exp;
#X obj 225 259 exp;
#X obj 86 283 - 1.007;
#X obj 156 286 - 1.007;
#X obj 225 283 - 1.007;
#X obj 289 288 - 1.007;
#X obj 357 285 - 1.007;
#X obj 424 282 - 1.007;
#X obj 487 286 - 1.007;
#X obj 558 284 - 1.007;
#X obj 86 304 / 1.711;
#X obj 157 306 / 1.711;
#X obj 225 304 / 1.711;
#X obj 291 308 / 1.711;
#X obj 357 306 / 1.711;
#X obj 425 306 / 1.711;
#X obj 488 307 / 1.711;
#X obj 558 307 / 1.711;
#X floatatom 35 234 5 0 0 0 - - -, f 5;
#X connect 0 0 1 1;
#X connect 1 0 2 0;
#X connect 1 0 75 0;
#X connect 2 1 3 0;
#X connect 3 0 51 0;
#X connect 4 0 5 1;
#X connect 5 0 6 0;
#X connect 6 1 7 0;
#X connect 7 0 58 0;
#X connect 8 0 9 1;
#X connect 9 0 10 0;
#X connect 10 1 11 0;
#X connect 11 0 57 0;
#X connect 12 0 13 1;
#X connect 13 0 14 0;
#X connect 14 1 33 0;
#X connect 15 0 16 1;
#X connect 16 0 17 0;
#X connect 17 1 18 0;
#X connect 18 0 56 0;
#X connect 19 0 20 1;
#X connect 20 0 21 0;
#X connect 21 1 22 0;
#X connect 22 0 55 0;
#X connect 23 0 24 1;
#X connect 24 0 25 0;
#X connect 25 1 26 0;
#X connect 26 0 54 0;
#X connect 27 0 28 1;
#X connect 28 0 29 0;
#X connect 29 1 30 0;
#X connect 30 0 53 0;
#X connect 31 0 43 0;
#X connect 31 0 44 0;
#X connect 31 0 45 0;
#X connect 31 0 46 0;
#X connect 31 0 47 0;
#X connect 31 0 48 0;
#X connect 31 0 49 0;
#X connect 31 0 50 0;
#X connect 32 0 1 0;
#X connect 32 0 13 0;
#X connect 32 0 5 0;
#X connect 32 0 9 0;
#X connect 32 0 16 0;
#X connect 32 0 20 0;
#X connect 32 0 24 0;
#X connect 32 0 28 0;
#X connect 33 0 52 0;
#X connect 34 0 0 0;
#X connect 34 0 12 0;
#X connect 34 0 4 0;
#X connect 34 0 8 0;
#X connect 34 0 15 0;
#X connect 34 0 19 0;
#X connect 34 0 23 0;
#X connect 34 0 27 0;
#X connect 43 0 0 1;
#X connect 44 0 12 1;
#X connect 45 0 4 1;
#X connect 46 0 8 1;
#X connect 47 0 15 1;
#X connect 48 0 19 1;
#X connect 49 0 23 1;
#X connect 50 0 27 1;
#X connect 51 0 59 0;
#X connect 52 0 60 0;
#X connect 53 0 66 0;
#X connect 54 0 65 0;
#X connect 55 0 64 0;
#X connect 56 0 63 0;
#X connect 57 0 62 0;
#X connect 58 0 61 0;
#X connect 59 0 67 0;
#X connect 60 0 68 0;
#X connect 61 0 69 0;
#X connect 62 0 70 0;
#X connect 63 0 71 0;
#X connect 64 0 72 0;
#X connect 65 0 73 0;
#X connect 66 0 74 0;
#X connect 67 0 35 0;
#X connect 68 0 36 0;
#X connect 69 0 37 0;
#X connect 70 0 38 0;
#X connect 71 0 39 0;
#X connect 72 0 40 0;
#X connect 73 0 41 0;
#X connect 74 0 42 0;
#X restore 1044 378 pd AmpControl4;
#X obj 854 66 ctlin;
#X obj 870 120 f 1;
#X obj 869 103 bng 15 250 50 0 empty empty empty 17 7 0 10 -262144
-1 -1;
#X obj 944 186 s tuneFour;
#X obj 845 85 delay 10;
#X obj 992 422 delay 10;
#X obj 270 275 r oscSend25;
#X obj 354 275 r oscSend26;
#X obj 432 274 r oscSend27;
#X obj 515 274 r oscSend28;
#X obj 601 273 r oscSend29;
#X obj 683 273 r oscSend30;
#X obj 759 273 r oscSend31;
#X obj 843 273 r oscSend32;
#X obj 897 290 bng 15 250 50 0 empty empty empty 17 7 0 10 -262144
-1 -1;
#X obj 944 166 pack 0 0 0 0 0 0 0 0 0;
#X obj 896 53 ctlin;
#X obj 274 407 r extAmp25;
#X obj 350 406 r extAmp26;
#X obj 431 400 r extAmp27;
#X obj 517 400 r extAmp28;
#X obj 596 397 r extAmp29;
#X obj 679 394 r extAmp30;
#X obj 759 390 r extAmp31;
#X obj 837 387 r extAmp32;
#X obj 256 480 *~ 0.5;
#X obj 334 480 *~ 0.5;
#X obj 411 480 *~ 0.5;
#X obj 496 480 *~ 0.5;
#X obj 576 480 *~ 0.5;
#X obj 660 480 *~ 0.5;
#X obj 740 480 *~ 0.5;
#X obj 819 480 *~ 0.5;
#X obj 1018 481 pack 1 0.5 0.5 0.5 0.5 0.5 0.5 0.5 0.5;
#X connect 0 0 119 0;
#X connect 1 0 0 1;
#X connect 2 0 4 0;
#X connect 2 0 75 2;
#X connect 3 0 120 0;
#X connect 4 0 3 1;
#X connect 5 0 7 0;
#X connect 5 0 75 3;
#X connect 6 0 121 0;
#X connect 7 0 6 1;
#X connect 8 0 9 0;
#X connect 8 0 75 4;
#X connect 9 0 22 1;
#X connect 10 0 12 0;
#X connect 10 0 75 5;
#X connect 11 0 123 0;
#X connect 12 0 11 1;
#X connect 13 0 15 0;
#X connect 13 0 75 6;
#X connect 14 0 124 0;
#X connect 15 0 14 1;
#X connect 16 0 18 0;
#X connect 16 0 75 7;
#X connect 17 0 125 0;
#X connect 18 0 17 1;
#X connect 19 0 21 0;
#X connect 19 0 75 8;
#X connect 20 0 126 0;
#X connect 21 0 20 1;
#X connect 22 0 122 0;
#X connect 23 0 0 0;
#X connect 24 0 3 0;
#X connect 25 0 6 0;
#X connect 26 0 22 0;
#X connect 27 0 11 0;
#X connect 28 0 14 0;
#X connect 29 0 17 0;
#X connect 30 0 20 0;
#X connect 31 0 1 0;
#X connect 31 0 75 1;
#X connect 32 0 82 0;
#X connect 33 0 84 0;
#X connect 34 0 83 0;
#X connect 35 0 86 0;
#X connect 36 0 85 0;
#X connect 37 0 87 0;
#X connect 38 0 89 0;
#X connect 39 0 88 0;
#X connect 48 0 32 0;
#X connect 48 0 34 0;
#X connect 48 0 33 0;
#X connect 48 0 36 0;
#X connect 48 0 35 0;
#X connect 48 0 37 0;
#X connect 48 0 39 0;
#X connect 48 0 38 0;
#X connect 49 0 81 0;
#X connect 50 0 67 0;
#X connect 51 0 49 0;
#X connect 51 0 76 0;
#X connect 54 0 48 0;
#X connect 58 0 92 0;
#X connect 58 0 93 0;
#X connect 59 0 63 1;
#X connect 59 0 62 1;
#X connect 59 0 68 0;
#X connect 59 0 73 1;
#X connect 59 0 74 1;
#X connect 60 0 73 0;
#X connect 60 1 74 0;
#X connect 62 0 93 1;
#X connect 63 0 93 2;
#X connect 64 0 62 0;
#X connect 64 1 63 0;
#X connect 65 0 92 3;
#X connect 65 0 69 0;
#X connect 73 0 92 1;
#X connect 74 0 92 2;
#X connect 75 0 91 0;
#X connect 76 0 77 0;
#X connect 77 0 75 0;
#X connect 78 0 80 0;
#X connect 78 0 99 0;
#X connect 79 0 127 0;
#X connect 80 0 79 0;
#X connect 81 0 31 0;
#X connect 81 1 2 0;
#X connect 81 2 5 0;
#X connect 81 3 8 0;
#X connect 81 4 10 0;
#X connect 81 5 13 0;
#X connect 81 6 16 0;
#X connect 81 7 19 0;
#X connect 81 8 70 0;
#X connect 82 0 40 0;
#X connect 82 0 23 0;
#X connect 83 0 24 0;
#X connect 83 0 41 0;
#X connect 84 0 42 0;
#X connect 84 0 25 0;
#X connect 85 0 47 0;
#X connect 85 0 26 0;
#X connect 86 0 43 0;
#X connect 86 0 27 0;
#X connect 87 0 44 0;
#X connect 87 0 28 0;
#X connect 88 0 45 0;
#X connect 88 0 29 0;
#X connect 89 0 46 0;
#X connect 89 0 30 0;
#X connect 92 0 32 1;
#X connect 92 0 109 1;
#X connect 92 1 34 1;
#X connect 92 1 109 2;
#X connect 92 2 33 1;
#X connect 92 2 109 3;
#X connect 92 3 36 1;
#X connect 92 3 109 4;
#X connect 92 4 35 1;
#X connect 92 4 109 5;
#X connect 92 5 37 1;
#X connect 92 5 109 6;
#X connect 92 6 39 1;
#X connect 92 6 109 7;
#X connect 92 7 38 1;
#X connect 92 7 109 8;
#X connect 93 0 119 1;
#X connect 93 0 127 1;
#X connect 93 1 120 1;
#X connect 93 1 127 2;
#X connect 93 2 121 1;
#X connect 93 2 127 3;
#X connect 93 3 122 1;
#X connect 93 3 127 4;
#X connect 93 4 123 1;
#X connect 93 4 127 5;
#X connect 93 5 124 1;
#X connect 93 5 127 6;
#X connect 93 6 125 1;
#X connect 93 6 127 7;
#X connect 93 7 126 1;
#X connect 93 7 127 8;
#X connect 94 0 96 0;
#X connect 94 0 98 0;
#X connect 95 0 109 0;
#X connect 96 0 95 0;
#X connect 98 0 96 0;
#X connect 99 0 80 0;
#X connect 100 0 31 0;
#X connect 100 0 108 0;
#X connect 101 0 2 0;
#X connect 101 0 108 0;
#X connect 102 0 5 0;
#X connect 102 0 108 0;
#X connect 103 0 8 0;
#X connect 103 0 108 0;
#X connect 104 0 10 0;
#X connect 104 0 108 0;
#X connect 105 0 13 0;
#X connect 105 0 108 0;
#X connect 106 0 16 0;
#X connect 106 0 108 0;
#X connect 107 0 19 0;
#X connect 107 0 108 0;
#X connect 108 0 75 0;
#X connect 109 0 97 0;
#X connect 110 0 58 0;
#X connect 111 0 80 0;
#X connect 111 0 119 1;
#X connect 111 0 127 1;
#X connect 112 0 80 0;
#X connect 112 0 120 1;
#X connect 112 0 127 2;
#X connect 113 0 80 0;
#X connect 113 0 121 1;
#X connect 113 0 127 3;
#X connect 114 0 80 0;
#X connect 114 0 122 1;
#X connect 114 0 127 4;
#X connect 115 0 80 0;
#X connect 115 0 123 1;
#X connect 115 0 127 5;
#X connect 116 0 80 0;
#X connect 116 0 124 1;
#X connect 116 0 127 6;
#X connect 117 0 80 0;
#X connect 117 0 125 1;
#X connect 117 0 127 7;
#X connect 118 0 80 0;
#X connect 118 0 126 1;
#X connect 118 0 127 8;
#X connect 119 0 50 0;
#X connect 120 0 50 0;
#X connect 121 0 50 0;
#X connect 122 0 50 0;
#X connect 123 0 50 0;
#X connect 124 0 50 0;
#X connect 125 0 50 0;
#X connect 126 0 50 0;
#X connect 127 0 90 0;
