#N canvas -8 -8 1536 781 10;
#X obj 258 464 *~;
#X obj 275 434 line~;
#X obj 359 359 tgl 15 0 empty empty empty 17 7 0 10 -262144 -1 -1 0
1;
#X obj 336 462 *~;
#X obj 359 434 line~;
#X obj 437 359 tgl 15 0 empty empty empty 17 7 0 10 -262144 -1 -1 0
1;
#X obj 413 465 *~;
#X obj 437 436 line~;
#X obj 520 359 tgl 15 0 empty empty empty 17 7 0 10 -262144 -1 -1 0
1;
#X obj 520 437 line~;
#X obj 606 359 tgl 15 0 empty empty empty 17 7 0 10 -262144 -1 -1 0
1;
#X obj 578 462 *~;
#X obj 606 437 line~;
#X obj 688 359 tgl 15 0 empty empty empty 17 7 0 10 -262144 -1 -1 0
1;
#X obj 662 460 *~;
#X obj 688 437 line~;
#X obj 764 359 tgl 15 0 empty empty empty 17 7 0 10 -262144 -1 -1 0
1;
#X obj 743 462 *~;
#X obj 764 436 line~;
#X obj 850 359 tgl 15 0 empty empty empty 17 7 0 10 -262144 -1 -1 0
1;
#X obj 822 462 *~;
#X obj 850 438 line~;
#X obj 499 464 *~;
#X obj 236 291 osc~;
#X obj 311 290 osc~;
#X obj 396 289 osc~;
#X obj 476 285 osc~;
#X obj 555 290 osc~;
#X obj 643 291 osc~;
#X obj 728 292 osc~;
#X obj 802 287 osc~;
#X obj 275 359 tgl 15 0 empty empty empty 17 7 0 10 -262144 -1 -1 0
1;
#X obj 253 237 +;
#X obj 415 237 +;
#X obj 336 237 +;
#X obj 572 237 +;
#X obj 493 237 +;
#X obj 660 237 +;
#X obj 818 237 +;
#X obj 739 237 +;
#X floatatom 270 291 5 0 0 0 - - -, f 5;
#X floatatom 350 291 5 0 0 0 - - -, f 5;
#X floatatom 430 289 5 0 0 0 - - -, f 5;
#X floatatom 598 290 5 0 0 0 - - -, f 5;
#X floatatom 686 294 5 0 0 0 - - -, f 5;
#X floatatom 765 292 5 0 0 0 - - -, f 5;
#X floatatom 846 287 5 0 0 0 - - -, f 5;
#X floatatom 511 287 5 0 0 0 - - -, f 5;
#X floatatom 576 126 5 0 0 0 - - -, f 5;
#X floatatom 308 132 5 0 0 0 - - -, f 5;
#X obj 541 658 *~ 1;
#X obj 308 96 inlet;
#X text 159 90 inlet 1 controls which oscillators are on \, takes in
a MIDI value, f 22;
#X text 619 64 inlet 2 dictates the frequency that runs through this
instance of the oscillator bank, f 30;
#X obj 576 82 inlet;
#X text 5 416 outlets connected to the corresponding inlets, f 24
;
#X text 1233 507 outlets connected to the corresponding right inlets
, f 20;
#X text 1049 68 outlets connected to the corresponding right inlets
, f 20;
#X obj 924 76 bng 15 250 50 0 empty empty empty 17 7 0 10 -262144 -1
-1;
#X obj 1238 162 inlet;
#X obj 998 22 ctlin;
#X text 1186 100 inlet 3 is the toggle that corresponds to the tuning
and amplitude control structures, f 28;
#X obj 1174 487 *;
#X obj 1215 487 *;
#X obj 1271 373 ctlin;
#X obj 1314 203 inlet;
#X text 1357 195 inlet 4 is the toggle that turns on and off tuning
individual oscillators, f 30;
#X obj 540 688 outlet~;
#X obj 1239 187 tgl 15 0 empty empty empty 17 7 0 10 -262144 -1 -1
0 1;
#X floatatom 1314 254 5 0 0 0 - - -, f 5;
#X obj 167 546 outlet;
#X text 600 673 outlet 2 is the audio coming out of the oscillators
, f 24;
#X text 46 564 outlet 1 is used for chaining select statements that
control on/off for the other oscillators, f 27;
#X obj 988 84 *;
#X obj 1017 84 *;
#N canvas 0 50 766 772 TuneControl2 0;
#X obj 28 148 ==;
#X obj 13 171 *;
#X obj 155 147 ==;
#X obj 140 170 *;
#X obj 140 223 select 0;
#X obj 221 149 ==;
#X obj 206 172 *;
#X obj 206 225 select 0;
#X obj 90 148 ==;
#X obj 75 173 *;
#X obj 75 223 select 0;
#X obj 289 148 ==;
#X obj 274 171 *;
#X obj 274 224 select 0;
#X obj 368 149 ==;
#X obj 353 172 *;
#X obj 353 225 select 0;
#X obj 428 149 ==;
#X obj 413 172 *;
#X obj 413 225 select 0;
#X obj 501 146 ==;
#X obj 486 169 *;
#X obj 483 222 select 0;
#X obj 43 37 inlet initBang;
#X obj 180 34 inlet ctlinVal;
#X obj 304 39 inlet ctrlinWhich;
#X obj 575 147 inlet resetAll;
#X obj 17 256 - 63;
#X obj 575 292 bng 15 250 50 0 empty empty empty 17 7 0 10 -262144
-1 -1;
#X obj 17 336 *;
#X obj 13 225 select 0;
#X obj 575 321 tgl 15 0 empty empty empty 17 7 0 10 -262144 -1 -1 0
1;
#X obj 17 307 f;
#X obj 140 256 - 63;
#X obj 140 336 *;
#X obj 140 307 f;
#X obj 206 256 - 63;
#X obj 206 336 *;
#X obj 206 307 f;
#X obj 76 256 - 63;
#X obj 76 336 *;
#X obj 76 307 f;
#X obj 278 256 - 63;
#X obj 278 336 *;
#X obj 278 307 f;
#X obj 353 256 - 63;
#X obj 353 336 *;
#X obj 353 307 f;
#X obj 414 256 - 63;
#X obj 413 336 *;
#X obj 413 307 f;
#X obj 486 256 - 63;
#X obj 486 336 *;
#X obj 486 307 f;
#X obj 17 364 outlet;
#X obj 76 364 outlet;
#X obj 140 364 outlet;
#X obj 206 364 outlet;
#X obj 278 364 outlet;
#X obj 353 364 outlet;
#X obj 413 364 outlet;
#X obj 486 364 outlet;
#X obj 575 364 outlet;
#X obj 43 124 f 41;
#X obj 105 124 f 42;
#X obj 170 123 f 43;
#X obj 236 125 f 44;
#X obj 304 124 f 45;
#X obj 383 123 f 46;
#X obj 443 125 f 47;
#X obj 516 122 f 48;
#X floatatom 27 199 5 0 0 0 - - -, f 5;
#X obj 17 283 / 12;
#X obj 76 283 / 12;
#X obj 140 283 / 12;
#X obj 206 283 / 12;
#X obj 278 283 / 12;
#X obj 353 283 / 12;
#X obj 414 283 / 12;
#X obj 486 283 / 12;
#X connect 0 0 1 1;
#X connect 1 0 30 0;
#X connect 1 0 71 0;
#X connect 2 0 3 1;
#X connect 3 0 4 0;
#X connect 4 1 33 0;
#X connect 5 0 6 1;
#X connect 6 0 7 0;
#X connect 7 1 36 0;
#X connect 8 0 9 1;
#X connect 9 0 10 0;
#X connect 10 1 39 0;
#X connect 11 0 12 1;
#X connect 12 0 13 0;
#X connect 13 1 42 0;
#X connect 14 0 15 1;
#X connect 15 0 16 0;
#X connect 16 1 45 0;
#X connect 17 0 18 1;
#X connect 18 0 19 0;
#X connect 19 1 48 0;
#X connect 20 0 21 1;
#X connect 21 0 22 0;
#X connect 22 1 51 0;
#X connect 23 0 63 0;
#X connect 23 0 64 0;
#X connect 23 0 65 0;
#X connect 23 0 66 0;
#X connect 23 0 67 0;
#X connect 23 0 68 0;
#X connect 23 0 69 0;
#X connect 23 0 70 0;
#X connect 24 0 1 0;
#X connect 24 0 9 0;
#X connect 24 0 3 0;
#X connect 24 0 6 0;
#X connect 24 0 12 0;
#X connect 24 0 15 0;
#X connect 24 0 18 0;
#X connect 24 0 21 0;
#X connect 25 0 20 0;
#X connect 25 0 17 0;
#X connect 25 0 14 0;
#X connect 25 0 11 0;
#X connect 25 0 5 0;
#X connect 25 0 2 0;
#X connect 25 0 8 0;
#X connect 25 0 0 0;
#X connect 26 0 28 0;
#X connect 27 0 72 0;
#X connect 28 0 31 0;
#X connect 28 0 32 0;
#X connect 28 0 41 0;
#X connect 28 0 35 0;
#X connect 28 0 38 0;
#X connect 28 0 44 0;
#X connect 28 0 47 0;
#X connect 28 0 50 0;
#X connect 28 0 53 0;
#X connect 29 0 54 0;
#X connect 30 1 27 0;
#X connect 31 0 29 1;
#X connect 31 0 40 1;
#X connect 31 0 34 1;
#X connect 31 0 37 1;
#X connect 31 0 43 1;
#X connect 31 0 46 1;
#X connect 31 0 49 1;
#X connect 31 0 52 1;
#X connect 31 0 62 0;
#X connect 32 0 29 0;
#X connect 33 0 74 0;
#X connect 34 0 56 0;
#X connect 35 0 34 0;
#X connect 36 0 75 0;
#X connect 37 0 57 0;
#X connect 38 0 37 0;
#X connect 39 0 73 0;
#X connect 40 0 55 0;
#X connect 41 0 40 0;
#X connect 42 0 76 0;
#X connect 43 0 58 0;
#X connect 44 0 43 0;
#X connect 45 0 77 0;
#X connect 46 0 59 0;
#X connect 47 0 46 0;
#X connect 48 0 78 0;
#X connect 49 0 60 0;
#X connect 50 0 49 0;
#X connect 51 0 79 0;
#X connect 52 0 61 0;
#X connect 53 0 52 0;
#X connect 63 0 0 1;
#X connect 64 0 8 1;
#X connect 65 0 2 1;
#X connect 66 0 5 1;
#X connect 67 0 11 1;
#X connect 68 0 14 1;
#X connect 69 0 17 1;
#X connect 70 0 20 1;
#X connect 72 0 32 0;
#X connect 73 0 41 0;
#X connect 74 0 35 0;
#X connect 75 0 38 0;
#X connect 76 0 44 0;
#X connect 77 0 47 0;
#X connect 78 0 50 0;
#X connect 79 0 53 0;
#X restore 959 125 pd TuneControl2;
#N canvas 526 188 768 414 AmpControl2 0;
#X obj 102 154 ==;
#X obj 87 177 *;
#X obj 87 201 select 0;
#X obj 86 230 / 127;
#X obj 241 153 ==;
#X obj 226 176 *;
#X obj 226 200 select 0;
#X obj 225 229 / 127;
#X obj 305 155 ==;
#X obj 290 178 *;
#X obj 290 202 select 0;
#X obj 289 231 / 127;
#X obj 170 154 ==;
#X obj 155 179 *;
#X obj 155 201 select 0;
#X obj 373 154 ==;
#X obj 358 177 *;
#X obj 358 201 select 0;
#X obj 357 230 / 127;
#X obj 440 155 ==;
#X obj 425 178 *;
#X obj 425 202 select 0;
#X obj 424 231 / 127;
#X obj 503 155 ==;
#X obj 488 178 *;
#X obj 488 202 select 0;
#X obj 487 231 / 127;
#X obj 574 152 ==;
#X obj 559 175 *;
#X obj 559 199 select 0;
#X obj 558 228 / 127;
#X obj 175 12 inlet;
#X obj 227 14 inlet;
#X obj 156 234 / 127;
#X obj 304 12 inlet;
#X obj 86 325 outlet;
#X obj 156 327 outlet;
#X obj 225 328 outlet;
#X obj 289 329 outlet;
#X obj 357 328 outlet;
#X obj 424 327 outlet;
#X obj 487 327 outlet;
#X obj 558 329 outlet;
#X obj 117 130 f 21;
#X obj 185 130 f 22;
#X obj 256 129 f 23;
#X obj 320 131 f 24;
#X obj 388 130 f 25;
#X obj 455 129 f 26;
#X obj 518 131 f 27;
#X obj 589 128 f 28;
#X obj 86 259 exp;
#X obj 156 264 exp;
#X obj 558 258 exp;
#X obj 487 261 exp;
#X obj 424 258 exp;
#X obj 357 264 exp;
#X obj 289 264 exp;
#X obj 225 259 exp;
#X floatatom 52 208 5 0 0 0 - - -, f 5;
#X obj 86 283 - 1.007;
#X obj 156 286 - 1.007;
#X obj 225 283 - 1.007;
#X obj 289 288 - 1.007;
#X obj 357 285 - 1.007;
#X obj 424 282 - 1.007;
#X obj 487 286 - 1.007;
#X obj 558 284 - 1.007;
#X obj 86 304 / 1.711;
#X obj 157 306 / 1.711;
#X obj 225 304 / 1.711;
#X obj 291 308 / 1.711;
#X obj 357 306 / 1.711;
#X obj 425 306 / 1.711;
#X obj 488 307 / 1.711;
#X obj 558 307 / 1.711;
#X connect 0 0 1 1;
#X connect 1 0 2 0;
#X connect 1 0 59 0;
#X connect 2 1 3 0;
#X connect 3 0 51 0;
#X connect 4 0 5 1;
#X connect 5 0 6 0;
#X connect 6 1 7 0;
#X connect 7 0 58 0;
#X connect 8 0 9 1;
#X connect 9 0 10 0;
#X connect 10 1 11 0;
#X connect 11 0 57 0;
#X connect 12 0 13 1;
#X connect 13 0 14 0;
#X connect 14 1 33 0;
#X connect 15 0 16 1;
#X connect 16 0 17 0;
#X connect 17 1 18 0;
#X connect 18 0 56 0;
#X connect 19 0 20 1;
#X connect 20 0 21 0;
#X connect 21 1 22 0;
#X connect 22 0 55 0;
#X connect 23 0 24 1;
#X connect 24 0 25 0;
#X connect 25 1 26 0;
#X connect 26 0 54 0;
#X connect 27 0 28 1;
#X connect 28 0 29 0;
#X connect 29 1 30 0;
#X connect 30 0 53 0;
#X connect 31 0 43 0;
#X connect 31 0 44 0;
#X connect 31 0 45 0;
#X connect 31 0 46 0;
#X connect 31 0 47 0;
#X connect 31 0 48 0;
#X connect 31 0 49 0;
#X connect 31 0 50 0;
#X connect 32 0 1 0;
#X connect 32 0 13 0;
#X connect 32 0 5 0;
#X connect 32 0 9 0;
#X connect 32 0 16 0;
#X connect 32 0 20 0;
#X connect 32 0 24 0;
#X connect 32 0 28 0;
#X connect 33 0 52 0;
#X connect 34 0 0 0;
#X connect 34 0 12 0;
#X connect 34 0 4 0;
#X connect 34 0 8 0;
#X connect 34 0 15 0;
#X connect 34 0 19 0;
#X connect 34 0 23 0;
#X connect 34 0 27 0;
#X connect 43 0 0 1;
#X connect 44 0 12 1;
#X connect 45 0 4 1;
#X connect 46 0 8 1;
#X connect 47 0 15 1;
#X connect 48 0 19 1;
#X connect 49 0 23 1;
#X connect 50 0 27 1;
#X connect 51 0 60 0;
#X connect 52 0 61 0;
#X connect 53 0 67 0;
#X connect 54 0 66 0;
#X connect 55 0 65 0;
#X connect 56 0 64 0;
#X connect 57 0 63 0;
#X connect 58 0 62 0;
#X connect 60 0 68 0;
#X connect 61 0 69 0;
#X connect 62 0 70 0;
#X connect 63 0 71 0;
#X connect 64 0 72 0;
#X connect 65 0 73 0;
#X connect 66 0 74 0;
#X connect 67 0 75 0;
#X connect 68 0 35 0;
#X connect 69 0 36 0;
#X connect 70 0 37 0;
#X connect 71 0 38 0;
#X connect 72 0 39 0;
#X connect 73 0 40 0;
#X connect 74 0 41 0;
#X connect 75 0 42 0;
#X restore 1134 524 pd AmpControl2;
#X obj 253 262 * 9;
#X obj 336 263 * 10;
#X obj 415 266 * 11;
#X obj 493 263 * 12;
#X obj 572 264 * 13;
#X obj 660 262 * 14;
#X obj 739 262 * 15;
#X obj 818 263 * 16;
#X obj 37 316 select 9 10 11 12 13 14 15 16;
#X obj 898 258 bng 15 250 50 0 empty empty empty 17 7 0 10 -262144
-1 -1;
#X obj 896 282 f 1;
#X obj 894 463 s osc2;
#X obj 1086 487 ctlin;
#X obj 1099 545 f 1;
#X obj 1098 528 bng 15 250 50 0 empty empty empty 17 7 0 10 -262144
-1 -1;
#X obj 1123 623 s ampTwo;
#X obj 907 94 ctlin;
#X obj 923 191 f 1;
#X obj 922 131 bng 15 250 50 0 empty empty empty 17 7 0 10 -262144
-1 -1;
#X obj 933 235 s tuneTwo;
#X obj 1081 505 delay 10;
#X obj 907 112 delay 10;
#X obj 276 312 r oscSend9;
#X obj 359 312 r oscSend10;
#X obj 437 312 r oscSend11;
#X obj 518 312 r oscSend12;
#X obj 605 312 r oscSend13;
#X obj 687 312 r oscSend14;
#X obj 763 312 r oscSend15;
#X obj 848 312 r oscSend16;
#X obj 894 357 bng 15 250 50 0 empty empty empty 17 7 0 10 -262144
-1 -1;
#X obj 934 215 pack 0 0 0 0 0 0 0 0 0;
#X obj 919 374 pack 0 0 0 0 0 0 0 0 0;
#X floatatom 1293 479 5 0 0 0 - - -, f 5;
#X obj 924 55 ctlin;
#X obj 279 505 r extAmp9;
#X obj 355 504 r extAmp10;
#X obj 436 498 r extAmp11;
#X obj 522 498 r extAmp12;
#X obj 601 495 r extAmp13;
#X obj 684 492 r extAmp14;
#X obj 764 488 r extAmp15;
#X obj 842 485 r extAmp16;
#X obj 1017 493 loadbang;
#X obj 260 575 *~ 0.5;
#X obj 338 575 *~ 0.5;
#X obj 415 575 *~ 0.5;
#X obj 500 575 *~ 0.5;
#X obj 580 575 *~ 0.5;
#X obj 664 575 *~ 0.5;
#X obj 744 575 *~ 0.5;
#X obj 823 575 *~ 0.5;
#X obj 1123 600 pack 1 0.5 0.5 0.5 0.5 0.5 0.5 0.5 0.5;
#X connect 0 0 121 0;
#X connect 1 0 0 1;
#X connect 2 0 4 0;
#X connect 2 0 109 2;
#X connect 3 0 122 0;
#X connect 4 0 3 1;
#X connect 5 0 7 0;
#X connect 5 0 109 3;
#X connect 6 0 123 0;
#X connect 7 0 6 1;
#X connect 8 0 9 0;
#X connect 8 0 109 4;
#X connect 9 0 22 1;
#X connect 10 0 12 0;
#X connect 10 0 109 5;
#X connect 11 0 125 0;
#X connect 12 0 11 1;
#X connect 13 0 15 0;
#X connect 13 0 109 6;
#X connect 14 0 126 0;
#X connect 15 0 14 1;
#X connect 16 0 18 0;
#X connect 16 0 109 7;
#X connect 17 0 127 0;
#X connect 18 0 17 1;
#X connect 19 0 21 0;
#X connect 19 0 109 8;
#X connect 20 0 128 0;
#X connect 21 0 20 1;
#X connect 22 0 124 0;
#X connect 23 0 0 0;
#X connect 24 0 3 0;
#X connect 25 0 6 0;
#X connect 26 0 22 0;
#X connect 27 0 11 0;
#X connect 28 0 14 0;
#X connect 29 0 17 0;
#X connect 30 0 20 0;
#X connect 31 0 1 0;
#X connect 31 0 109 1;
#X connect 32 0 77 0;
#X connect 33 0 79 0;
#X connect 34 0 78 0;
#X connect 35 0 81 0;
#X connect 36 0 80 0;
#X connect 37 0 82 0;
#X connect 38 0 84 0;
#X connect 39 0 83 0;
#X connect 48 0 32 0;
#X connect 48 0 34 0;
#X connect 48 0 33 0;
#X connect 48 0 36 0;
#X connect 48 0 35 0;
#X connect 48 0 37 0;
#X connect 48 0 39 0;
#X connect 48 0 38 0;
#X connect 49 0 85 0;
#X connect 50 0 67 0;
#X connect 51 0 49 0;
#X connect 51 0 86 0;
#X connect 54 0 48 0;
#X connect 58 0 76 0;
#X connect 58 0 75 0;
#X connect 59 0 63 1;
#X connect 59 0 62 1;
#X connect 59 0 68 0;
#X connect 59 0 73 1;
#X connect 59 0 74 1;
#X connect 60 0 73 0;
#X connect 60 1 74 0;
#X connect 62 0 76 1;
#X connect 63 0 76 2;
#X connect 63 0 110 0;
#X connect 64 0 62 0;
#X connect 64 1 63 0;
#X connect 65 0 69 0;
#X connect 65 0 75 3;
#X connect 73 0 75 1;
#X connect 74 0 75 2;
#X connect 75 0 108 1;
#X connect 75 0 32 1;
#X connect 75 1 108 2;
#X connect 75 1 34 1;
#X connect 75 2 108 3;
#X connect 75 2 33 1;
#X connect 75 3 108 4;
#X connect 75 3 36 1;
#X connect 75 4 108 5;
#X connect 75 4 35 1;
#X connect 75 5 108 6;
#X connect 75 5 37 1;
#X connect 75 6 108 7;
#X connect 75 6 39 1;
#X connect 75 7 108 8;
#X connect 75 7 38 1;
#X connect 76 0 121 1;
#X connect 76 0 129 1;
#X connect 76 1 122 1;
#X connect 76 1 129 2;
#X connect 76 2 123 1;
#X connect 76 2 129 3;
#X connect 76 3 124 1;
#X connect 76 3 129 4;
#X connect 76 4 125 1;
#X connect 76 4 129 5;
#X connect 76 5 126 1;
#X connect 76 5 129 6;
#X connect 76 6 127 1;
#X connect 76 6 129 7;
#X connect 76 7 128 1;
#X connect 76 7 129 8;
#X connect 77 0 40 0;
#X connect 77 0 23 0;
#X connect 78 0 24 0;
#X connect 78 0 41 0;
#X connect 79 0 42 0;
#X connect 79 0 25 0;
#X connect 80 0 47 0;
#X connect 80 0 26 0;
#X connect 81 0 43 0;
#X connect 81 0 27 0;
#X connect 82 0 44 0;
#X connect 82 0 28 0;
#X connect 83 0 45 0;
#X connect 83 0 29 0;
#X connect 84 0 46 0;
#X connect 84 0 30 0;
#X connect 85 0 31 0;
#X connect 85 1 2 0;
#X connect 85 2 5 0;
#X connect 85 3 8 0;
#X connect 85 4 10 0;
#X connect 85 5 13 0;
#X connect 85 6 16 0;
#X connect 85 7 19 0;
#X connect 85 8 70 0;
#X connect 86 0 87 0;
#X connect 87 0 109 0;
#X connect 89 0 91 0;
#X connect 89 0 97 0;
#X connect 90 0 129 0;
#X connect 91 0 90 0;
#X connect 93 0 95 0;
#X connect 93 0 98 0;
#X connect 94 0 108 0;
#X connect 95 0 94 0;
#X connect 97 0 91 0;
#X connect 98 0 95 0;
#X connect 99 0 31 0;
#X connect 99 0 107 0;
#X connect 100 0 2 0;
#X connect 100 0 107 0;
#X connect 101 0 5 0;
#X connect 101 0 107 0;
#X connect 102 0 8 0;
#X connect 102 0 107 0;
#X connect 103 0 10 0;
#X connect 103 0 107 0;
#X connect 104 0 13 0;
#X connect 104 0 107 0;
#X connect 105 0 16 0;
#X connect 105 0 107 0;
#X connect 106 0 19 0;
#X connect 106 0 107 0;
#X connect 107 0 109 0;
#X connect 108 0 96 0;
#X connect 109 0 88 0;
#X connect 111 0 58 0;
#X connect 112 0 91 0;
#X connect 112 0 121 1;
#X connect 112 0 129 1;
#X connect 113 0 91 0;
#X connect 113 0 122 1;
#X connect 113 0 129 2;
#X connect 114 0 91 0;
#X connect 114 0 123 1;
#X connect 114 0 129 3;
#X connect 115 0 91 0;
#X connect 115 0 124 1;
#X connect 115 0 129 4;
#X connect 116 0 91 0;
#X connect 116 0 125 1;
#X connect 116 0 129 5;
#X connect 117 0 91 0;
#X connect 117 0 126 1;
#X connect 117 0 129 6;
#X connect 118 0 91 0;
#X connect 118 0 127 1;
#X connect 118 0 129 7;
#X connect 119 0 91 0;
#X connect 119 0 128 1;
#X connect 119 0 129 8;
#X connect 120 0 91 0;
#X connect 121 0 50 0;
#X connect 122 0 50 0;
#X connect 123 0 50 0;
#X connect 124 0 50 0;
#X connect 125 0 50 0;
#X connect 126 0 50 0;
#X connect 127 0 50 0;
#X connect 128 0 50 0;
#X connect 129 0 92 0;
