#N canvas -8 -8 1536 781 10;
#X obj 53 497 select 1 2 3 4 5 6 7 8;
#X obj 232 359 osc~;
#X obj 307 358 osc~;
#X obj 411 334 * 3;
#X obj 489 331 * 4;
#X obj 568 332 * 5;
#X obj 656 330 * 6;
#X obj 735 330 * 7;
#X obj 814 331 * 8;
#X obj 392 357 osc~;
#X obj 472 353 osc~;
#X obj 551 358 osc~;
#X obj 639 359 osc~;
#X obj 724 360 osc~;
#X obj 798 355 osc~;
#X obj 249 303 +;
#X obj 411 303 +;
#X obj 332 303 +;
#X obj 568 303 +;
#X obj 489 303 +;
#X obj 656 303 +;
#X obj 814 303 +;
#X obj 735 303 +;
#X floatatom 266 359 5 0 0 0 - - -, f 5;
#X floatatom 346 359 5 0 0 0 - - -, f 5;
#X floatatom 426 357 5 0 0 0 - - -, f 5;
#X floatatom 594 358 5 0 0 0 - - -, f 5;
#X floatatom 682 362 5 0 0 0 - - -, f 5;
#X floatatom 761 360 5 0 0 0 - - -, f 5;
#X floatatom 842 355 5 0 0 0 - - -, f 5;
#N canvas 737 50 766 772 TuneControl1 0;
#X obj 28 148 ==;
#X obj 13 171 *;
#X obj 155 147 ==;
#X obj 140 170 *;
#X obj 140 223 select 0;
#X obj 221 149 ==;
#X obj 206 172 *;
#X obj 206 225 select 0;
#X obj 90 148 ==;
#X obj 75 173 *;
#X obj 75 223 select 0;
#X obj 289 148 ==;
#X obj 274 171 *;
#X obj 274 224 select 0;
#X obj 368 149 ==;
#X obj 353 172 *;
#X obj 353 225 select 0;
#X obj 428 149 ==;
#X obj 413 172 *;
#X obj 413 225 select 0;
#X obj 501 146 ==;
#X obj 486 169 *;
#X obj 483 222 select 0;
#X obj 43 37 inlet initBang;
#X obj 180 34 inlet ctlinVal;
#X obj 304 39 inlet ctrlinWhich;
#X obj 575 147 inlet resetAll;
#X obj 17 256 - 63;
#X obj 575 292 bng 15 250 50 0 empty empty empty 17 7 0 10 -262144
-1 -1;
#X obj 17 336 *;
#X obj 13 225 select 0;
#X obj 575 321 tgl 15 0 empty empty empty 17 7 0 10 -262144 -1 -1 0
1;
#X obj 17 307 f;
#X obj 140 256 - 63;
#X obj 140 336 *;
#X obj 140 307 f;
#X obj 206 256 - 63;
#X obj 206 336 *;
#X obj 206 307 f;
#X obj 76 256 - 63;
#X obj 76 336 *;
#X obj 76 307 f;
#X obj 278 256 - 63;
#X obj 278 336 *;
#X obj 278 307 f;
#X obj 353 256 - 63;
#X obj 353 336 *;
#X obj 353 307 f;
#X obj 414 256 - 63;
#X obj 413 336 *;
#X obj 413 307 f;
#X obj 486 256 - 63;
#X obj 486 336 *;
#X obj 486 307 f;
#X obj 17 364 outlet;
#X obj 76 364 outlet;
#X obj 140 364 outlet;
#X obj 206 364 outlet;
#X obj 278 364 outlet;
#X obj 353 364 outlet;
#X obj 413 364 outlet;
#X obj 486 364 outlet;
#X obj 575 364 outlet;
#X obj 43 124 f 41;
#X obj 105 124 f 42;
#X obj 170 123 f 43;
#X obj 236 125 f 44;
#X obj 304 124 f 45;
#X obj 383 123 f 46;
#X obj 443 125 f 47;
#X obj 516 122 f 48;
#X floatatom 27 199 5 0 0 0 - - -, f 5;
#X obj 17 283 / 12;
#X obj 76 283 / 12;
#X obj 140 283 / 12;
#X obj 206 283 / 12;
#X obj 278 283 / 12;
#X obj 353 283 / 12;
#X obj 414 283 / 12;
#X obj 486 283 / 12;
#X connect 0 0 1 1;
#X connect 1 0 30 0;
#X connect 1 0 71 0;
#X connect 2 0 3 1;
#X connect 3 0 4 0;
#X connect 4 1 33 0;
#X connect 5 0 6 1;
#X connect 6 0 7 0;
#X connect 7 1 36 0;
#X connect 8 0 9 1;
#X connect 9 0 10 0;
#X connect 10 1 39 0;
#X connect 11 0 12 1;
#X connect 12 0 13 0;
#X connect 13 1 42 0;
#X connect 14 0 15 1;
#X connect 15 0 16 0;
#X connect 16 1 45 0;
#X connect 17 0 18 1;
#X connect 18 0 19 0;
#X connect 19 1 48 0;
#X connect 20 0 21 1;
#X connect 21 0 22 0;
#X connect 22 1 51 0;
#X connect 23 0 63 0;
#X connect 23 0 64 0;
#X connect 23 0 65 0;
#X connect 23 0 66 0;
#X connect 23 0 67 0;
#X connect 23 0 68 0;
#X connect 23 0 69 0;
#X connect 23 0 70 0;
#X connect 24 0 1 0;
#X connect 24 0 9 0;
#X connect 24 0 3 0;
#X connect 24 0 6 0;
#X connect 24 0 12 0;
#X connect 24 0 15 0;
#X connect 24 0 18 0;
#X connect 24 0 21 0;
#X connect 25 0 20 0;
#X connect 25 0 17 0;
#X connect 25 0 14 0;
#X connect 25 0 11 0;
#X connect 25 0 5 0;
#X connect 25 0 2 0;
#X connect 25 0 8 0;
#X connect 25 0 0 0;
#X connect 26 0 28 0;
#X connect 27 0 72 0;
#X connect 28 0 31 0;
#X connect 28 0 32 0;
#X connect 28 0 41 0;
#X connect 28 0 35 0;
#X connect 28 0 38 0;
#X connect 28 0 44 0;
#X connect 28 0 47 0;
#X connect 28 0 50 0;
#X connect 28 0 53 0;
#X connect 29 0 54 0;
#X connect 30 1 27 0;
#X connect 31 0 29 1;
#X connect 31 0 40 1;
#X connect 31 0 34 1;
#X connect 31 0 37 1;
#X connect 31 0 43 1;
#X connect 31 0 46 1;
#X connect 31 0 49 1;
#X connect 31 0 52 1;
#X connect 31 0 62 0;
#X connect 32 0 29 0;
#X connect 33 0 74 0;
#X connect 34 0 56 0;
#X connect 35 0 34 0;
#X connect 36 0 75 0;
#X connect 37 0 57 0;
#X connect 38 0 37 0;
#X connect 39 0 73 0;
#X connect 40 0 55 0;
#X connect 41 0 40 0;
#X connect 42 0 76 0;
#X connect 43 0 58 0;
#X connect 44 0 43 0;
#X connect 45 0 77 0;
#X connect 46 0 59 0;
#X connect 47 0 46 0;
#X connect 48 0 78 0;
#X connect 49 0 60 0;
#X connect 50 0 49 0;
#X connect 51 0 79 0;
#X connect 52 0 61 0;
#X connect 53 0 52 0;
#X connect 63 0 0 1;
#X connect 64 0 8 1;
#X connect 65 0 2 1;
#X connect 66 0 5 1;
#X connect 67 0 11 1;
#X connect 68 0 14 1;
#X connect 69 0 17 1;
#X connect 70 0 20 1;
#X connect 72 0 32 0;
#X connect 73 0 41 0;
#X connect 74 0 35 0;
#X connect 75 0 38 0;
#X connect 76 0 44 0;
#X connect 77 0 47 0;
#X connect 78 0 50 0;
#X connect 79 0 53 0;
#X restore 1012 214 pd TuneControl1;
#N canvas 558 149 768 414 AmpControl1 0;
#X obj 102 154 ==;
#X obj 87 177 *;
#X obj 87 201 select 0;
#X obj 86 230 / 127;
#X obj 241 153 ==;
#X obj 226 176 *;
#X obj 226 200 select 0;
#X obj 225 229 / 127;
#X obj 305 155 ==;
#X obj 290 178 *;
#X obj 290 202 select 0;
#X obj 289 231 / 127;
#X obj 170 154 ==;
#X obj 155 179 *;
#X obj 155 201 select 0;
#X obj 373 154 ==;
#X obj 358 177 *;
#X obj 358 201 select 0;
#X obj 357 230 / 127;
#X obj 440 155 ==;
#X obj 425 178 *;
#X obj 425 202 select 0;
#X obj 424 231 / 127;
#X obj 503 155 ==;
#X obj 488 178 *;
#X obj 488 202 select 0;
#X obj 487 231 / 127;
#X obj 574 152 ==;
#X obj 559 175 *;
#X obj 559 199 select 0;
#X obj 558 228 / 127;
#X obj 175 12 inlet;
#X obj 227 14 inlet;
#X obj 156 234 / 127;
#X obj 304 12 inlet;
#X obj 86 325 outlet;
#X obj 156 327 outlet;
#X obj 225 328 outlet;
#X obj 289 329 outlet;
#X obj 357 328 outlet;
#X obj 424 327 outlet;
#X obj 487 327 outlet;
#X obj 558 329 outlet;
#X obj 117 130 f 21;
#X obj 185 130 f 22;
#X obj 256 129 f 23;
#X obj 320 131 f 24;
#X obj 388 130 f 25;
#X obj 455 129 f 26;
#X obj 518 131 f 27;
#X obj 589 128 f 28;
#X obj 86 259 exp;
#X obj 156 264 exp;
#X obj 558 258 exp;
#X obj 487 261 exp;
#X obj 424 258 exp;
#X obj 357 264 exp;
#X obj 289 264 exp;
#X obj 225 259 exp;
#X obj 86 283 - 1.007;
#X obj 156 286 - 1.007;
#X obj 225 283 - 1.007;
#X obj 289 288 - 1.007;
#X obj 357 285 - 1.007;
#X obj 424 282 - 1.007;
#X obj 487 286 - 1.007;
#X obj 558 284 - 1.007;
#X obj 85 304 / 1.711;
#X obj 157 306 / 1.711;
#X obj 225 304 / 1.711;
#X obj 291 308 / 1.711;
#X obj 357 306 / 1.711;
#X obj 425 306 / 1.711;
#X obj 488 307 / 1.711;
#X obj 558 307 / 1.711;
#X connect 0 0 1 1;
#X connect 1 0 2 0;
#X connect 2 1 3 0;
#X connect 3 0 51 0;
#X connect 4 0 5 1;
#X connect 5 0 6 0;
#X connect 6 1 7 0;
#X connect 7 0 58 0;
#X connect 8 0 9 1;
#X connect 9 0 10 0;
#X connect 10 1 11 0;
#X connect 11 0 57 0;
#X connect 12 0 13 1;
#X connect 13 0 14 0;
#X connect 14 1 33 0;
#X connect 15 0 16 1;
#X connect 16 0 17 0;
#X connect 17 1 18 0;
#X connect 18 0 56 0;
#X connect 19 0 20 1;
#X connect 20 0 21 0;
#X connect 21 1 22 0;
#X connect 22 0 55 0;
#X connect 23 0 24 1;
#X connect 24 0 25 0;
#X connect 25 1 26 0;
#X connect 26 0 54 0;
#X connect 27 0 28 1;
#X connect 28 0 29 0;
#X connect 29 1 30 0;
#X connect 30 0 53 0;
#X connect 31 0 43 0;
#X connect 31 0 44 0;
#X connect 31 0 45 0;
#X connect 31 0 46 0;
#X connect 31 0 47 0;
#X connect 31 0 48 0;
#X connect 31 0 49 0;
#X connect 31 0 50 0;
#X connect 32 0 1 0;
#X connect 32 0 13 0;
#X connect 32 0 5 0;
#X connect 32 0 9 0;
#X connect 32 0 16 0;
#X connect 32 0 20 0;
#X connect 32 0 24 0;
#X connect 32 0 28 0;
#X connect 33 0 52 0;
#X connect 34 0 0 0;
#X connect 34 0 12 0;
#X connect 34 0 4 0;
#X connect 34 0 8 0;
#X connect 34 0 15 0;
#X connect 34 0 19 0;
#X connect 34 0 23 0;
#X connect 34 0 27 0;
#X connect 43 0 0 1;
#X connect 44 0 12 1;
#X connect 45 0 4 1;
#X connect 46 0 8 1;
#X connect 47 0 15 1;
#X connect 48 0 19 1;
#X connect 49 0 23 1;
#X connect 50 0 27 1;
#X connect 51 0 59 0;
#X connect 52 0 60 0;
#X connect 53 0 66 0;
#X connect 54 0 65 0;
#X connect 55 0 64 0;
#X connect 56 0 63 0;
#X connect 57 0 62 0;
#X connect 58 0 61 0;
#X connect 59 0 67 0;
#X connect 60 0 68 0;
#X connect 61 0 69 0;
#X connect 62 0 70 0;
#X connect 63 0 71 0;
#X connect 64 0 72 0;
#X connect 65 0 73 0;
#X connect 66 0 74 0;
#X connect 67 0 35 0;
#X connect 68 0 36 0;
#X connect 69 0 37 0;
#X connect 70 0 38 0;
#X connect 71 0 39 0;
#X connect 72 0 40 0;
#X connect 73 0 41 0;
#X connect 74 0 42 0;
#X restore 1131 354 pd AmpControl1;
#X obj 249 330 * 1;
#X obj 332 331 * 2;
#X floatatom 507 355 5 0 0 0 - - -, f 5;
#X floatatom 572 192 5 0 0 0 - - -, f 5;
#X floatatom 53 431 5 0 0 0 - - -, f 5;
#X obj 48 393 inlet;
#X text 83 379 inlet 1 controls which oscillators are on \, takes in
a MIDI value, f 22;
#X text 615 130 inlet 2 dictates the frequency that runs through this
instance of the oscillator bank, f 30;
#X obj 572 148 inlet;
#X text 65 465 outlets connected to the corresponding inlets, f 24
;
#X text 1236 346 outlets connected to the corresponding right inlets
, f 20;
#X text 1098 166 outlets connected to the corresponding right inlets
, f 20;
#X obj 920 141 bng 15 250 50 0 empty empty empty 17 7 0 10 -262144
-1 -1;
#X obj 1291 122 inlet;
#X obj 1041 123 ctlin;
#X text 1239 60 inlet 3 is the toggle that corresponds to the tuning
and amplitude control structures, f 28;
#X obj 1171 317 *;
#X obj 1212 317 *;
#X obj 1171 269 ctlin;
#X obj 1337 163 inlet;
#X text 1380 155 inlet 4 is the toggle that turns on and off tuning
individual oscillators, f 25;
#X obj 535 713 outlet~;
#X obj 1292 147 tgl 15 0 empty empty empty 17 7 0 10 -262144 -1 -1
0 1;
#X floatatom 1337 214 5 0 0 0 - - -, f 5;
#X obj 177 633 outlet;
#X text 595 698 outlet 2 is the audio coming out of the oscillators
, f 24;
#X text 134 656 outlet 1 is used for chaining select statements that
control on/off for the other oscillators, f 27;
#X obj 1041 173 *;
#X obj 1070 173 *;
#X obj 47 645 s osc1;
#X obj 46 609 pack 0 0 0 0 0 0 0 0 0;
#X obj 48 534 bng 15 250 50 0 empty empty empty 17 7 0 10 -262144 -1
-1;
#X obj 46 558 f 1;
#X obj 1130 503 s ampOne;
#X obj 1076 319 ctlin;
#X obj 1092 397 f 1;
#X obj 1091 380 bng 15 250 50 0 empty empty empty 17 7 0 10 -262144
-1 -1;
#X obj 961 176 ctlin;
#X obj 979 237 f 1;
#X obj 978 220 bng 15 250 50 0 empty empty empty 17 7 0 10 -262144
-1 -1;
#X obj 990 261 pack 0 0 0 0 0 0 0 0 0;
#X obj 989 281 s tuneOne;
#X obj 956 196 delay 10;
#X obj 1074 339 delay 10;
#X obj 46 585 bng 15 250 50 0 empty empty empty 17 7 0 10 -262144 -1
-1;
#X obj 920 110 ctlin;
#X obj 246 421 r~ extAmp1;
#X obj 1017 340 loadbang;
#X obj 324 422 r~ extAmp2;
#X obj 486 422 r~ extAmp4;
#X obj 567 423 r~ extAmp5;
#X obj 651 423 r~ extAmp6;
#X obj 729 419 r~ extAmp7;
#X obj 810 422 r~ extAmp8;
#X obj 402 699 env~;
#X floatatom 403 730 5 0 0 0 - - -, f 5;
#X obj 310 455 +~;
#X obj 388 460 +~;
#X obj 402 421 r~ extAmp3;
#X obj 472 461 +~;
#X obj 552 461 +~;
#X obj 635 461 +~;
#X obj 715 456 +~;
#X obj 796 458 +~;
#X obj 231 598 *~;
#X obj 245 567 line~;
#X obj 323 543 tgl 15 0 empty empty empty 17 7 0 10 -262144 -1 -1 0
1;
#X obj 309 596 *~;
#X obj 323 568 line~;
#X obj 402 543 tgl 15 0 empty empty empty 17 7 0 10 -262144 -1 -1 0
1;
#X obj 387 599 *~;
#X obj 402 570 line~;
#X obj 484 543 tgl 15 0 empty empty empty 17 7 0 10 -262144 -1 -1 0
1;
#X obj 484 571 line~;
#X obj 570 543 tgl 15 0 empty empty empty 17 7 0 10 -262144 -1 -1 0
1;
#X obj 551 596 *~;
#X obj 570 571 line~;
#X obj 652 543 tgl 15 0 empty empty empty 17 7 0 10 -262144 -1 -1 0
1;
#X obj 635 594 *~;
#X obj 652 571 line~;
#X obj 728 543 tgl 15 0 empty empty empty 17 7 0 10 -262144 -1 -1 0
1;
#X obj 716 596 *~;
#X obj 728 570 line~;
#X obj 814 543 tgl 15 0 empty empty empty 17 7 0 10 -262144 -1 -1 0
1;
#X obj 795 596 *~;
#X obj 814 572 line~;
#X obj 472 598 *~;
#X obj 245 542 tgl 15 0 empty empty empty 17 7 0 10 -262144 -1 -1 0
1;
#X obj 245 481 r oscSend1;
#X obj 323 482 r oscSend2;
#X obj 402 481 r oscSend3;
#X obj 484 481 r oscSend4;
#X obj 570 480 r oscSend5;
#X obj 652 480 r oscSend6;
#X obj 728 480 r oscSend7;
#X obj 814 480 r oscSend8;
#X obj 232 449 -~;
#X obj 536 683 *~ 0.25;
#X obj 232 400 *~ 0.5;
#X obj 310 400 *~ 0.5;
#X obj 387 400 *~ 0.5;
#X obj 472 400 *~ 0.5;
#X obj 552 400 *~ 0.5;
#X obj 636 400 *~ 0.5;
#X obj 716 400 *~ 0.5;
#X obj 795 400 *~ 0.5;
#X obj 1131 483 pack 1 0.5 0.5 0.5 0.5 0.5 0.5 0.5 0.5;
#X connect 0 0 119 0;
#X connect 0 1 98 0;
#X connect 0 2 101 0;
#X connect 0 3 104 0;
#X connect 0 4 106 0;
#X connect 0 5 109 0;
#X connect 0 6 112 0;
#X connect 0 7 115 0;
#X connect 0 8 56 0;
#X connect 1 0 130 0;
#X connect 2 0 131 0;
#X connect 3 0 25 0;
#X connect 3 0 9 0;
#X connect 4 0 34 0;
#X connect 4 0 10 0;
#X connect 5 0 26 0;
#X connect 5 0 11 0;
#X connect 6 0 27 0;
#X connect 6 0 12 0;
#X connect 7 0 28 0;
#X connect 7 0 13 0;
#X connect 8 0 29 0;
#X connect 8 0 14 0;
#X connect 9 0 132 0;
#X connect 10 0 133 0;
#X connect 11 0 134 0;
#X connect 12 0 135 0;
#X connect 13 0 136 0;
#X connect 14 0 137 0;
#X connect 15 0 32 0;
#X connect 16 0 3 0;
#X connect 17 0 33 0;
#X connect 18 0 5 0;
#X connect 19 0 4 0;
#X connect 20 0 6 0;
#X connect 21 0 8 0;
#X connect 22 0 7 0;
#X connect 30 0 15 1;
#X connect 30 0 72 1;
#X connect 30 1 17 1;
#X connect 30 1 72 2;
#X connect 30 2 16 1;
#X connect 30 2 72 3;
#X connect 30 3 19 1;
#X connect 30 3 72 4;
#X connect 30 4 18 1;
#X connect 30 4 72 5;
#X connect 30 5 20 1;
#X connect 30 5 72 6;
#X connect 30 6 22 1;
#X connect 30 6 72 7;
#X connect 30 7 21 1;
#X connect 30 7 72 8;
#X connect 31 0 130 1;
#X connect 31 0 138 1;
#X connect 31 1 131 1;
#X connect 31 1 138 2;
#X connect 31 2 132 1;
#X connect 31 2 138 3;
#X connect 31 3 133 1;
#X connect 31 3 138 4;
#X connect 31 4 134 1;
#X connect 31 4 138 5;
#X connect 31 5 135 1;
#X connect 31 5 138 6;
#X connect 31 6 136 1;
#X connect 31 6 138 7;
#X connect 31 7 137 1;
#X connect 31 7 138 8;
#X connect 32 0 23 0;
#X connect 32 0 1 0;
#X connect 33 0 2 0;
#X connect 33 0 24 0;
#X connect 35 0 15 0;
#X connect 35 0 17 0;
#X connect 35 0 16 0;
#X connect 35 0 19 0;
#X connect 35 0 18 0;
#X connect 35 0 20 0;
#X connect 35 0 22 0;
#X connect 35 0 21 0;
#X connect 36 0 0 0;
#X connect 37 0 36 0;
#X connect 37 0 63 0;
#X connect 40 0 35 0;
#X connect 44 0 30 0;
#X connect 44 0 31 0;
#X connect 45 0 49 1;
#X connect 45 0 48 1;
#X connect 45 0 54 0;
#X connect 45 0 59 1;
#X connect 45 0 60 1;
#X connect 46 0 59 0;
#X connect 46 1 60 0;
#X connect 48 0 31 1;
#X connect 49 0 31 2;
#X connect 50 0 48 0;
#X connect 50 1 49 0;
#X connect 51 0 30 3;
#X connect 51 0 55 0;
#X connect 59 0 30 1;
#X connect 60 0 30 2;
#X connect 62 0 61 0;
#X connect 63 0 64 0;
#X connect 64 0 62 0;
#X connect 66 0 68 0;
#X connect 66 0 75 0;
#X connect 67 0 138 0;
#X connect 68 0 67 0;
#X connect 69 0 74 0;
#X connect 69 0 71 0;
#X connect 70 0 72 0;
#X connect 71 0 70 0;
#X connect 72 0 73 0;
#X connect 74 0 71 0;
#X connect 75 0 68 0;
#X connect 76 0 62 0;
#X connect 77 0 44 0;
#X connect 78 0 128 1;
#X connect 79 0 68 0;
#X connect 80 0 88 1;
#X connect 81 0 91 1;
#X connect 82 0 92 1;
#X connect 83 0 93 1;
#X connect 84 0 94 1;
#X connect 85 0 95 1;
#X connect 86 0 87 0;
#X connect 88 0 99 0;
#X connect 89 0 102 0;
#X connect 90 0 89 1;
#X connect 91 0 118 0;
#X connect 92 0 107 0;
#X connect 93 0 110 0;
#X connect 94 0 113 0;
#X connect 95 0 116 0;
#X connect 96 0 129 0;
#X connect 97 0 96 1;
#X connect 98 0 100 0;
#X connect 98 0 62 2;
#X connect 99 0 129 0;
#X connect 100 0 99 1;
#X connect 101 0 103 0;
#X connect 101 0 62 3;
#X connect 102 0 129 0;
#X connect 103 0 102 1;
#X connect 104 0 105 0;
#X connect 104 0 62 4;
#X connect 105 0 118 1;
#X connect 106 0 108 0;
#X connect 106 0 62 5;
#X connect 107 0 129 0;
#X connect 108 0 107 1;
#X connect 109 0 111 0;
#X connect 109 0 62 6;
#X connect 110 0 129 0;
#X connect 111 0 110 1;
#X connect 112 0 114 0;
#X connect 112 0 62 7;
#X connect 113 0 129 0;
#X connect 114 0 113 1;
#X connect 115 0 117 0;
#X connect 115 0 62 8;
#X connect 116 0 129 0;
#X connect 117 0 116 1;
#X connect 118 0 129 0;
#X connect 119 0 97 0;
#X connect 119 0 62 1;
#X connect 120 0 119 0;
#X connect 121 0 98 0;
#X connect 122 0 101 0;
#X connect 123 0 104 0;
#X connect 124 0 106 0;
#X connect 125 0 109 0;
#X connect 126 0 112 0;
#X connect 127 0 115 0;
#X connect 128 0 96 0;
#X connect 129 0 53 0;
#X connect 130 0 128 0;
#X connect 131 0 88 0;
#X connect 132 0 89 0;
#X connect 133 0 91 0;
#X connect 134 0 92 0;
#X connect 135 0 93 0;
#X connect 136 0 94 0;
#X connect 137 0 95 0;
#X connect 138 0 65 0;
