#N canvas 0 50 1536 781 10;
#X obj 258 353 *~;
#X obj 275 323 line~;
#X obj 359 298 tgl 15 0 empty empty empty 17 7 0 10 -262144 -1 -1 0
1;
#X obj 336 351 *~;
#X obj 359 323 line~;
#X obj 437 298 tgl 15 0 empty empty empty 17 7 0 10 -262144 -1 -1 0
1;
#X obj 413 354 *~;
#X obj 437 325 line~;
#X obj 520 298 tgl 15 0 empty empty empty 17 7 0 10 -262144 -1 -1 0
1;
#X obj 520 326 line~;
#X obj 606 298 tgl 15 0 empty empty empty 17 7 0 10 -262144 -1 -1 0
1;
#X obj 578 351 *~;
#X obj 606 326 line~;
#X obj 688 298 tgl 15 0 empty empty empty 17 7 0 10 -262144 -1 -1 0
1;
#X obj 662 349 *~;
#X obj 688 326 line~;
#X obj 764 298 tgl 15 0 empty empty empty 17 7 0 10 -262144 -1 -1 0
1;
#X obj 743 351 *~;
#X obj 764 325 line~;
#X obj 850 298 tgl 15 0 empty empty empty 17 7 0 10 -262144 -1 -1 0
1;
#X obj 822 351 *~;
#X obj 850 327 line~;
#X obj 499 353 *~;
#X obj 236 240 osc~;
#X obj 311 239 osc~;
#X obj 396 238 osc~;
#X obj 476 234 osc~;
#X obj 555 239 osc~;
#X obj 643 240 osc~;
#X obj 728 241 osc~;
#X obj 802 236 osc~;
#X obj 275 298 tgl 15 0 empty empty empty 17 7 0 10 -262144 -1 -1 0
1;
#X obj 253 184 +;
#X obj 415 184 +;
#X obj 336 184 +;
#X obj 572 184 +;
#X obj 493 184 +;
#X obj 660 184 +;
#X obj 818 184 +;
#X obj 739 184 +;
#X floatatom 270 240 5 0 0 0 - - -, f 5;
#X floatatom 350 240 5 0 0 0 - - -, f 5;
#X floatatom 430 238 5 0 0 0 - - -, f 5;
#X floatatom 598 239 5 0 0 0 - - -, f 5;
#X floatatom 686 243 5 0 0 0 - - -, f 5;
#X floatatom 765 241 5 0 0 0 - - -, f 5;
#X floatatom 846 236 5 0 0 0 - - -, f 5;
#X floatatom 511 236 5 0 0 0 - - -, f 5;
#X floatatom 576 73 5 0 0 0 - - -, f 5;
#X floatatom 308 53 5 0 0 0 - - -, f 5;
#X obj 539 600 *~ 1;
#X obj 308 17 inlet;
#X text 159 11 inlet 1 controls which oscillators are on \, takes in
a MIDI value, f 22;
#X text 619 11 inlet 2 dictates the frequency that runs through this
instance of the oscillator bank, f 30;
#X obj 576 29 inlet;
#X text 5 305 outlets connected to the corresponding inlets, f 24
;
#X text 1165 389 outlets connected to the corresponding right inlets
, f 20;
#X text 1030 126 outlets connected to the corresponding right inlets
, f 20;
#X obj 881 97 bng 15 250 50 0 empty empty empty 17 7 0 10 -262144 -1
-1;
#X obj 1224 109 inlet;
#X obj 974 76 ctlin;
#X text 1172 47 inlet 3 is the toggle that corresponds to the tuning
and amplitude control structures, f 28;
#X obj 1215 260 *;
#X obj 1256 260 *;
#X obj 1187 219 ctlin;
#X obj 1335 150 inlet;
#X text 1378 142 inlet 4 is the toggle that turns on and off tuning
individual oscillators, f 30;
#X obj 538 630 outlet~;
#X obj 1225 134 tgl 15 0 empty empty empty 17 7 0 10 -262144 -1 -1
0 1;
#X floatatom 1335 201 5 0 0 0 - - -, f 5;
#X obj 166 391 outlet;
#X text 598 615 outlet 2 is the audio coming out of the oscillators
, f 24;
#X text 45 409 outlet 1 is used for chaining select statements that
control on/off for the other oscillators, f 27;
#X obj 974 126 *;
#X obj 1003 126 *;
#X obj 37 281 select 17 18 19 20 21 22 23 24;
#X obj 253 211 * 17;
#X obj 336 212 * 18;
#X obj 415 215 * 19;
#X obj 493 212 * 20;
#X obj 572 213 * 21;
#X obj 660 211 * 22;
#X obj 739 211 * 23;
#X obj 818 212 * 24;
#N canvas 403 86 766 772 TuneControl3 0;
#X obj 27 148 ==;
#X obj 15 171 *;
#X obj 155 147 ==;
#X obj 143 170 *;
#X obj 137 223 select 0;
#X obj 225 149 ==;
#X obj 213 172 *;
#X obj 207 225 select 0;
#X obj 89 148 ==;
#X obj 78 173 *;
#X obj 74 223 select 0;
#X obj 293 148 ==;
#X obj 281 171 *;
#X obj 275 224 select 0;
#X obj 368 149 ==;
#X obj 356 172 *;
#X obj 350 225 select 0;
#X obj 431 149 ==;
#X obj 419 172 *;
#X obj 413 225 select 0;
#X obj 501 146 ==;
#X obj 489 169 *;
#X obj 483 222 select 0;
#X obj 32 38 inlet initBang;
#X obj 180 34 inlet ctlinVal;
#X obj 304 39 inlet ctrlinWhich;
#X obj 585 147 inlet resetAll;
#X obj 13 252 - 63;
#X obj 579 287 bng 15 250 50 0 empty empty empty 17 7 0 10 -262144
-1 -1;
#X obj 33 347 *;
#X obj 9 225 select 0;
#X obj 575 314 tgl 15 0 empty empty empty 17 7 0 10 -262144 -1 -1 0
1;
#X obj 22 309 f;
#X obj 137 249 - 63;
#X obj 160 346 *;
#X obj 150 309 f;
#X obj 207 255 - 63;
#X obj 218 352 *;
#X obj 209 312 f;
#X obj 75 250 - 63;
#X obj 100 349 *;
#X obj 85 307 f;
#X obj 279 256 - 63;
#X obj 290 353 *;
#X obj 281 313 f;
#X obj 350 255 - 63;
#X obj 361 352 *;
#X obj 352 312 f;
#X obj 414 256 - 63;
#X obj 425 353 *;
#X obj 416 313 f;
#X obj 482 258 - 63;
#X obj 493 355 *;
#X obj 484 315 f;
#X obj 36 397 outlet;
#X obj 103 397 outlet;
#X obj 159 399 outlet;
#X obj 216 401 outlet;
#X obj 283 399 outlet;
#X obj 358 392 outlet;
#X obj 418 393 outlet;
#X obj 483 391 outlet;
#X obj 561 377 outlet;
#X obj 43 124 f 41;
#X obj 105 124 f 42;
#X obj 171 123 f 43;
#X obj 241 125 f 44;
#X obj 309 124 f 45;
#X obj 369 123 f 46;
#X obj 447 125 f 47;
#X obj 517 122 f 48;
#X floatatom 29 199 5 0 0 0 - - -, f 5;
#X floatatom 22 331 5 0 0 0 - - -, f 5;
#X obj 16 276 / 12;
#X obj 77 274 / 12;
#X obj 142 273 / 12;
#X obj 211 279 / 12;
#X obj 283 280 / 12;
#X obj 354 279 / 12;
#X obj 418 280 / 12;
#X obj 486 282 / 12;
#X connect 0 0 1 1;
#X connect 1 0 30 0;
#X connect 1 0 71 0;
#X connect 2 0 3 1;
#X connect 3 0 4 0;
#X connect 4 1 33 0;
#X connect 5 0 6 1;
#X connect 6 0 7 0;
#X connect 7 1 36 0;
#X connect 8 0 9 1;
#X connect 9 0 10 0;
#X connect 10 1 39 0;
#X connect 11 0 12 1;
#X connect 12 0 13 0;
#X connect 13 1 42 0;
#X connect 14 0 15 1;
#X connect 15 0 16 0;
#X connect 16 1 45 0;
#X connect 17 0 18 1;
#X connect 18 0 19 0;
#X connect 19 1 48 0;
#X connect 20 0 21 1;
#X connect 21 0 22 0;
#X connect 22 1 51 0;
#X connect 23 0 63 0;
#X connect 23 0 64 0;
#X connect 23 0 65 0;
#X connect 23 0 66 0;
#X connect 23 0 67 0;
#X connect 23 0 68 0;
#X connect 23 0 69 0;
#X connect 23 0 70 0;
#X connect 24 0 1 0;
#X connect 24 0 9 0;
#X connect 24 0 3 0;
#X connect 24 0 6 0;
#X connect 24 0 12 0;
#X connect 24 0 15 0;
#X connect 24 0 18 0;
#X connect 24 0 21 0;
#X connect 25 0 20 0;
#X connect 25 0 17 0;
#X connect 25 0 14 0;
#X connect 25 0 11 0;
#X connect 25 0 5 0;
#X connect 25 0 2 0;
#X connect 25 0 8 0;
#X connect 25 0 0 0;
#X connect 26 0 28 0;
#X connect 27 0 73 0;
#X connect 28 0 31 0;
#X connect 28 0 32 0;
#X connect 28 0 41 0;
#X connect 28 0 35 0;
#X connect 28 0 38 0;
#X connect 28 0 44 0;
#X connect 28 0 47 0;
#X connect 28 0 50 0;
#X connect 28 0 53 0;
#X connect 29 0 54 0;
#X connect 30 1 27 0;
#X connect 31 0 29 1;
#X connect 31 0 40 1;
#X connect 31 0 34 1;
#X connect 31 0 37 1;
#X connect 31 0 43 1;
#X connect 31 0 46 1;
#X connect 31 0 49 1;
#X connect 31 0 52 1;
#X connect 31 0 62 0;
#X connect 32 0 29 0;
#X connect 32 0 72 0;
#X connect 33 0 75 0;
#X connect 34 0 56 0;
#X connect 35 0 34 0;
#X connect 36 0 76 0;
#X connect 37 0 57 0;
#X connect 38 0 37 0;
#X connect 39 0 74 0;
#X connect 40 0 55 0;
#X connect 41 0 40 0;
#X connect 42 0 77 0;
#X connect 43 0 58 0;
#X connect 44 0 43 0;
#X connect 45 0 78 0;
#X connect 46 0 59 0;
#X connect 47 0 46 0;
#X connect 48 0 79 0;
#X connect 49 0 60 0;
#X connect 50 0 49 0;
#X connect 51 0 80 0;
#X connect 52 0 61 0;
#X connect 53 0 52 0;
#X connect 63 0 0 1;
#X connect 64 0 8 1;
#X connect 65 0 2 1;
#X connect 66 0 5 1;
#X connect 67 0 11 1;
#X connect 68 0 14 1;
#X connect 69 0 17 1;
#X connect 70 0 20 1;
#X connect 73 0 32 0;
#X connect 74 0 41 0;
#X connect 75 0 35 0;
#X connect 76 0 38 0;
#X connect 77 0 44 0;
#X connect 78 0 47 0;
#X connect 79 0 50 0;
#X connect 80 0 53 0;
#X restore 945 167 pd TuneControl3;
#N canvas 75 143 768 414 AmpControl3 0;
#X obj 102 154 ==;
#X obj 87 177 *;
#X obj 87 201 select 0;
#X obj 86 230 / 127;
#X obj 241 153 ==;
#X obj 226 176 *;
#X obj 226 200 select 0;
#X obj 225 229 / 127;
#X obj 305 155 ==;
#X obj 290 178 *;
#X obj 290 202 select 0;
#X obj 289 231 / 127;
#X obj 170 154 ==;
#X obj 155 179 *;
#X obj 155 201 select 0;
#X obj 373 154 ==;
#X obj 358 177 *;
#X obj 358 201 select 0;
#X obj 357 230 / 127;
#X obj 440 155 ==;
#X obj 425 178 *;
#X obj 425 202 select 0;
#X obj 424 231 / 127;
#X obj 503 155 ==;
#X obj 488 178 *;
#X obj 488 202 select 0;
#X obj 487 231 / 127;
#X obj 574 152 ==;
#X obj 559 175 *;
#X obj 559 199 select 0;
#X obj 558 228 / 127;
#X obj 175 12 inlet;
#X obj 227 14 inlet;
#X obj 156 234 / 127;
#X obj 304 12 inlet;
#X obj 86 325 outlet;
#X obj 156 327 outlet;
#X obj 225 328 outlet;
#X obj 289 329 outlet;
#X obj 357 328 outlet;
#X obj 424 327 outlet;
#X obj 487 327 outlet;
#X obj 558 329 outlet;
#X obj 117 130 f 21;
#X obj 185 130 f 22;
#X obj 256 129 f 23;
#X obj 320 131 f 24;
#X obj 388 130 f 25;
#X obj 455 129 f 26;
#X obj 518 131 f 27;
#X obj 589 128 f 28;
#X obj 86 259 exp;
#X obj 156 264 exp;
#X obj 558 258 exp;
#X obj 487 261 exp;
#X obj 424 258 exp;
#X obj 357 264 exp;
#X obj 289 264 exp;
#X obj 225 259 exp;
#X obj 86 283 - 1.007;
#X obj 156 286 - 1.007;
#X obj 225 283 - 1.007;
#X obj 289 288 - 1.007;
#X obj 357 285 - 1.007;
#X obj 424 282 - 1.007;
#X obj 487 286 - 1.007;
#X obj 558 284 - 1.007;
#X obj 85 304 / 1.711;
#X obj 157 306 / 1.711;
#X obj 225 304 / 1.711;
#X obj 291 308 / 1.711;
#X obj 357 306 / 1.711;
#X obj 425 306 / 1.711;
#X obj 488 307 / 1.711;
#X obj 558 307 / 1.711;
#X connect 0 0 1 1;
#X connect 1 0 2 0;
#X connect 2 1 3 0;
#X connect 3 0 51 0;
#X connect 4 0 5 1;
#X connect 5 0 6 0;
#X connect 6 1 7 0;
#X connect 7 0 58 0;
#X connect 8 0 9 1;
#X connect 9 0 10 0;
#X connect 10 1 11 0;
#X connect 11 0 57 0;
#X connect 12 0 13 1;
#X connect 13 0 14 0;
#X connect 14 1 33 0;
#X connect 15 0 16 1;
#X connect 16 0 17 0;
#X connect 17 1 18 0;
#X connect 18 0 56 0;
#X connect 19 0 20 1;
#X connect 20 0 21 0;
#X connect 21 1 22 0;
#X connect 22 0 55 0;
#X connect 23 0 24 1;
#X connect 24 0 25 0;
#X connect 25 1 26 0;
#X connect 26 0 54 0;
#X connect 27 0 28 1;
#X connect 28 0 29 0;
#X connect 29 1 30 0;
#X connect 30 0 53 0;
#X connect 31 0 43 0;
#X connect 31 0 44 0;
#X connect 31 0 45 0;
#X connect 31 0 46 0;
#X connect 31 0 47 0;
#X connect 31 0 48 0;
#X connect 31 0 49 0;
#X connect 31 0 50 0;
#X connect 32 0 1 0;
#X connect 32 0 13 0;
#X connect 32 0 5 0;
#X connect 32 0 9 0;
#X connect 32 0 16 0;
#X connect 32 0 20 0;
#X connect 32 0 24 0;
#X connect 32 0 28 0;
#X connect 33 0 52 0;
#X connect 34 0 0 0;
#X connect 34 0 12 0;
#X connect 34 0 4 0;
#X connect 34 0 8 0;
#X connect 34 0 15 0;
#X connect 34 0 19 0;
#X connect 34 0 23 0;
#X connect 34 0 27 0;
#X connect 43 0 0 1;
#X connect 44 0 12 1;
#X connect 45 0 4 1;
#X connect 46 0 8 1;
#X connect 47 0 15 1;
#X connect 48 0 19 1;
#X connect 49 0 23 1;
#X connect 50 0 27 1;
#X connect 51 0 59 0;
#X connect 52 0 60 0;
#X connect 53 0 66 0;
#X connect 54 0 65 0;
#X connect 55 0 64 0;
#X connect 56 0 63 0;
#X connect 57 0 62 0;
#X connect 58 0 61 0;
#X connect 59 0 67 0;
#X connect 60 0 68 0;
#X connect 61 0 69 0;
#X connect 62 0 70 0;
#X connect 63 0 71 0;
#X connect 64 0 72 0;
#X connect 65 0 73 0;
#X connect 66 0 74 0;
#X connect 67 0 35 0;
#X connect 68 0 36 0;
#X connect 69 0 37 0;
#X connect 70 0 38 0;
#X connect 71 0 39 0;
#X connect 72 0 40 0;
#X connect 73 0 41 0;
#X connect 74 0 42 0;
#X restore 1053 402 pd AmpControl3;
#X obj 902 313 pack 0 0 0 0 0 0 0 0 0;
#X obj 906 221 bng 15 250 50 0 empty empty empty 17 7 0 10 -262144
-1 -1;
#X obj 906 245 f 1;
#X obj 902 334 s osc3;
#X obj 985 464 ctlin;
#X obj 1001 514 f 1;
#X obj 1000 497 bng 15 250 50 0 empty empty empty 17 7 0 10 -262144
-1 -1;
#X obj 1011 558 s ampThree;
#X obj 901 124 ctlin;
#X obj 916 178 f 1;
#X obj 915 161 bng 15 250 50 0 empty empty empty 17 7 0 10 -262144
-1 -1;
#X obj 926 222 s tuneThree;
#X obj 902 143 delay 10;
#X obj 984 482 delay 10;
#X obj 274 273 r oscSend17;
#X obj 358 273 r oscSend18;
#X obj 436 272 r oscSend19;
#X obj 519 272 r oscSend20;
#X obj 605 271 r oscSend21;
#X obj 687 271 r oscSend22;
#X obj 763 271 r oscSend23;
#X obj 849 271 r oscSend24;
#X obj 901 294 bng 15 250 50 0 empty empty empty 17 7 0 10 -262144
-1 -1;
#X obj 927 202 pack 0 0 0 0 0 0 0 0 0;
#X obj 881 66 ctlin;
#X obj 274 428 r extAmp17;
#X obj 350 427 r extAmp18;
#X obj 431 421 r extAmp19;
#X obj 517 421 r extAmp20;
#X obj 596 418 r extAmp21;
#X obj 679 415 r extAmp22;
#X obj 759 411 r extAmp23;
#X obj 837 408 r extAmp24;
#X obj 258 517 *~ 0.5;
#X obj 336 517 *~ 0.5;
#X obj 413 517 *~ 0.5;
#X obj 498 517 *~ 0.5;
#X obj 578 517 *~ 0.5;
#X obj 662 517 *~ 0.5;
#X obj 742 517 *~ 0.5;
#X obj 821 517 *~ 0.5;
#X obj 1012 538 pack 1 0.5 0.5 0.5 0.5 0.5 0.5 0.5 0.5;
#X connect 0 0 119 0;
#X connect 1 0 0 1;
#X connect 2 0 4 0;
#X connect 2 0 86 2;
#X connect 3 0 120 0;
#X connect 4 0 3 1;
#X connect 5 0 7 0;
#X connect 5 0 86 3;
#X connect 6 0 121 0;
#X connect 7 0 6 1;
#X connect 8 0 9 0;
#X connect 8 0 86 4;
#X connect 9 0 22 1;
#X connect 10 0 12 0;
#X connect 10 0 86 5;
#X connect 11 0 123 0;
#X connect 12 0 11 1;
#X connect 13 0 15 0;
#X connect 13 0 86 6;
#X connect 14 0 124 0;
#X connect 15 0 14 1;
#X connect 16 0 18 0;
#X connect 16 0 86 7;
#X connect 17 0 125 0;
#X connect 18 0 17 1;
#X connect 19 0 21 0;
#X connect 19 0 86 8;
#X connect 20 0 126 0;
#X connect 21 0 20 1;
#X connect 22 0 122 0;
#X connect 23 0 0 0;
#X connect 24 0 3 0;
#X connect 25 0 6 0;
#X connect 26 0 22 0;
#X connect 27 0 11 0;
#X connect 28 0 14 0;
#X connect 29 0 17 0;
#X connect 30 0 20 0;
#X connect 31 0 1 0;
#X connect 31 0 86 1;
#X connect 32 0 76 0;
#X connect 33 0 78 0;
#X connect 34 0 77 0;
#X connect 35 0 80 0;
#X connect 36 0 79 0;
#X connect 37 0 81 0;
#X connect 38 0 83 0;
#X connect 39 0 82 0;
#X connect 48 0 32 0;
#X connect 48 0 34 0;
#X connect 48 0 33 0;
#X connect 48 0 36 0;
#X connect 48 0 35 0;
#X connect 48 0 37 0;
#X connect 48 0 39 0;
#X connect 48 0 38 0;
#X connect 49 0 75 0;
#X connect 50 0 67 0;
#X connect 51 0 49 0;
#X connect 51 0 87 0;
#X connect 54 0 48 0;
#X connect 58 0 84 0;
#X connect 58 0 85 0;
#X connect 59 0 63 1;
#X connect 59 0 62 1;
#X connect 59 0 68 0;
#X connect 59 0 73 1;
#X connect 59 0 74 1;
#X connect 60 0 73 0;
#X connect 60 1 74 0;
#X connect 62 0 85 1;
#X connect 63 0 85 2;
#X connect 64 0 62 0;
#X connect 64 1 63 0;
#X connect 65 0 84 3;
#X connect 65 0 69 0;
#X connect 73 0 84 1;
#X connect 74 0 84 2;
#X connect 75 0 31 0;
#X connect 75 1 2 0;
#X connect 75 2 5 0;
#X connect 75 3 8 0;
#X connect 75 4 10 0;
#X connect 75 5 13 0;
#X connect 75 6 16 0;
#X connect 75 7 19 0;
#X connect 75 8 70 0;
#X connect 76 0 40 0;
#X connect 76 0 23 0;
#X connect 77 0 24 0;
#X connect 77 0 41 0;
#X connect 78 0 42 0;
#X connect 78 0 25 0;
#X connect 79 0 47 0;
#X connect 79 0 26 0;
#X connect 80 0 43 0;
#X connect 80 0 27 0;
#X connect 81 0 44 0;
#X connect 81 0 28 0;
#X connect 82 0 45 0;
#X connect 82 0 29 0;
#X connect 83 0 46 0;
#X connect 83 0 30 0;
#X connect 84 0 32 1;
#X connect 84 0 109 1;
#X connect 84 1 34 1;
#X connect 84 1 109 2;
#X connect 84 2 33 1;
#X connect 84 2 109 3;
#X connect 84 3 36 1;
#X connect 84 3 109 4;
#X connect 84 4 35 1;
#X connect 84 4 109 5;
#X connect 84 5 37 1;
#X connect 84 5 109 6;
#X connect 84 6 39 1;
#X connect 84 6 109 7;
#X connect 84 7 38 1;
#X connect 84 7 109 8;
#X connect 85 0 119 1;
#X connect 85 0 127 1;
#X connect 85 1 120 1;
#X connect 85 1 127 2;
#X connect 85 2 121 1;
#X connect 85 2 127 3;
#X connect 85 3 122 1;
#X connect 85 3 127 4;
#X connect 85 4 123 1;
#X connect 85 4 127 5;
#X connect 85 5 124 1;
#X connect 85 5 127 6;
#X connect 85 6 125 1;
#X connect 85 6 127 7;
#X connect 85 7 126 1;
#X connect 85 7 127 8;
#X connect 86 0 89 0;
#X connect 87 0 88 0;
#X connect 88 0 86 0;
#X connect 90 0 92 0;
#X connect 90 0 99 0;
#X connect 91 0 127 0;
#X connect 92 0 91 0;
#X connect 94 0 96 0;
#X connect 94 0 98 0;
#X connect 95 0 109 0;
#X connect 96 0 95 0;
#X connect 98 0 96 0;
#X connect 99 0 92 0;
#X connect 100 0 31 0;
#X connect 100 0 108 0;
#X connect 101 0 2 0;
#X connect 101 0 108 0;
#X connect 102 0 5 0;
#X connect 102 0 108 0;
#X connect 103 0 8 0;
#X connect 103 0 108 0;
#X connect 104 0 10 0;
#X connect 104 0 108 0;
#X connect 105 0 13 0;
#X connect 105 0 108 0;
#X connect 106 0 16 0;
#X connect 106 0 108 0;
#X connect 107 0 19 0;
#X connect 107 0 108 0;
#X connect 108 0 86 0;
#X connect 109 0 97 0;
#X connect 110 0 58 0;
#X connect 111 0 92 0;
#X connect 111 0 119 1;
#X connect 111 0 127 1;
#X connect 112 0 92 0;
#X connect 112 0 120 1;
#X connect 112 0 127 2;
#X connect 113 0 92 0;
#X connect 113 0 121 1;
#X connect 113 0 127 3;
#X connect 114 0 92 0;
#X connect 114 0 122 1;
#X connect 114 0 127 4;
#X connect 115 0 92 0;
#X connect 115 0 123 1;
#X connect 115 0 127 5;
#X connect 116 0 92 0;
#X connect 116 0 124 1;
#X connect 116 0 127 6;
#X connect 117 0 92 0;
#X connect 117 0 125 1;
#X connect 117 0 127 7;
#X connect 118 0 92 0;
#X connect 118 0 126 1;
#X connect 118 0 127 8;
#X connect 119 0 50 0;
#X connect 120 0 50 0;
#X connect 121 0 50 0;
#X connect 122 0 50 0;
#X connect 123 0 50 0;
#X connect 124 0 50 0;
#X connect 125 0 50 0;
#X connect 126 0 50 0;
#X connect 127 0 93 0;
