#N canvas 188 31 1367 569 10;
#X obj 35 116 s oscSend1;
#X obj 102 116 s oscSend2;
#X obj 168 116 s oscSend3;
#X obj 235 116 s oscSend4;
#X obj 303 116 s oscSend5;
#X obj 370 116 s oscSend6;
#X obj 436 116 s oscSend7;
#X obj 503 116 s oscSend8;
#X obj 102 97 bng 15 250 50 0 empty empty empty 17 7 0 10 -262144 -1
-1;
#X obj 168 97 bng 15 250 50 0 empty empty empty 17 7 0 10 -262144 -1
-1;
#X obj 235 97 bng 15 250 50 0 empty empty empty 17 7 0 10 -262144 -1
-1;
#X obj 303 95 bng 15 250 50 0 empty empty empty 17 7 0 10 -262144 -1
-1;
#X obj 370 95 bng 15 250 50 0 empty empty empty 17 7 0 10 -262144 -1
-1;
#X obj 436 95 bng 15 250 50 0 empty empty empty 17 7 0 10 -262144 -1
-1;
#X obj 503 95 bng 15 250 50 0 empty empty empty 17 7 0 10 -262144 -1
-1;
#X obj 35 97 bng 15 250 50 0 empty empty empty 17 7 0 10 -262144 -1
-1;
#X obj 650 97 bng 15 250 50 0 empty empty empty 17 7 0 10 -262144 -1
-1;
#X obj 723 97 bng 15 250 50 0 empty empty empty 17 7 0 10 -262144 -1
-1;
#X obj 796 97 bng 15 250 50 0 empty empty empty 17 7 0 10 -262144 -1
-1;
#X obj 870 95 bng 15 250 50 0 empty empty empty 17 7 0 10 -262144 -1
-1;
#X obj 943 95 bng 15 250 50 0 empty empty empty 17 7 0 10 -262144 -1
-1;
#X obj 1016 95 bng 15 250 50 0 empty empty empty 17 7 0 10 -262144
-1 -1;
#X obj 1089 95 bng 15 250 50 0 empty empty empty 17 7 0 10 -262144
-1 -1;
#X obj 583 97 bng 15 250 50 0 empty empty empty 17 7 0 10 -262144 -1
-1;
#X obj 583 116 s oscSend9;
#X obj 650 116 s oscSend10;
#X obj 723 116 s oscSend11;
#X obj 796 116 s oscSend12;
#X obj 870 116 s oscSend13;
#X obj 943 116 s oscSend14;
#X obj 1016 116 s oscSend15;
#X obj 1089 116 s oscSend16;
#X obj 116 271 bng 15 250 50 0 empty empty empty 17 7 0 10 -262144
-1 -1;
#X obj 189 271 bng 15 250 50 0 empty empty empty 17 7 0 10 -262144
-1 -1;
#X obj 263 271 bng 15 250 50 0 empty empty empty 17 7 0 10 -262144
-1 -1;
#X obj 336 269 bng 15 250 50 0 empty empty empty 17 7 0 10 -262144
-1 -1;
#X obj 409 269 bng 15 250 50 0 empty empty empty 17 7 0 10 -262144
-1 -1;
#X obj 482 269 bng 15 250 50 0 empty empty empty 17 7 0 10 -262144
-1 -1;
#X obj 555 269 bng 15 250 50 0 empty empty empty 17 7 0 10 -262144
-1 -1;
#X obj 43 271 bng 15 250 50 0 empty empty empty 17 7 0 10 -262144 -1
-1;
#X obj 708 271 bng 15 250 50 0 empty empty empty 17 7 0 10 -262144
-1 -1;
#X obj 781 271 bng 15 250 50 0 empty empty empty 17 7 0 10 -262144
-1 -1;
#X obj 854 271 bng 15 250 50 0 empty empty empty 17 7 0 10 -262144
-1 -1;
#X obj 928 269 bng 15 250 50 0 empty empty empty 17 7 0 10 -262144
-1 -1;
#X obj 1001 269 bng 15 250 50 0 empty empty empty 17 7 0 10 -262144
-1 -1;
#X obj 1074 269 bng 15 250 50 0 empty empty empty 17 7 0 10 -262144
-1 -1;
#X obj 1147 269 bng 15 250 50 0 empty empty empty 17 7 0 10 -262144
-1 -1;
#X obj 635 271 bng 15 250 50 0 empty empty empty 17 7 0 10 -262144
-1 -1;
#X obj 43 290 s oscSend17;
#X obj 116 290 s oscSend18;
#X obj 189 290 s oscSend19;
#X obj 263 290 s oscSend20;
#X obj 336 290 s oscSend21;
#X obj 409 290 s oscSend22;
#X obj 482 290 s oscSend23;
#X obj 555 290 s oscSend24;
#X obj 635 290 s oscSend25;
#X obj 708 290 s oscSend26;
#X obj 781 290 s oscSend27;
#X obj 854 290 s oscSend28;
#X obj 928 290 s oscSend29;
#X obj 1001 290 s oscSend30;
#X obj 1074 290 s oscSend31;
#X obj 1147 290 s oscSend32;
#X obj 34 60 metro 1000;
#X obj 110 61 metro 1010;
#X obj 184 59 metro 1020;
#X obj 255 59 metro 1030;
#X obj 324 60 metro 1040;
#X obj 401 56 metro 1050;
#X obj 481 56 metro 1060;
#X obj 552 55 metro 1070;
#X obj 630 53 metro 1080;
#X obj 706 54 metro 1090;
#X obj 780 52 metro 1100;
#X obj 851 52 metro 1110;
#X obj 920 53 metro 1120;
#X obj 997 49 metro 1130;
#X obj 1077 49 metro 1140;
#X obj 1148 48 metro 1150;
#X obj 38 225 metro 1160;
#X obj 114 226 metro 1170;
#X obj 188 224 metro 1180;
#X obj 259 224 metro 1190;
#X obj 328 225 metro 1200;
#X obj 405 221 metro 1210;
#X obj 485 221 metro 1220;
#X obj 556 220 metro 1230;
#X obj 634 218 metro 1240;
#X obj 710 219 metro 1250;
#X obj 784 217 metro 1260;
#X obj 855 217 metro 1270;
#X obj 924 218 metro 1280;
#X obj 1001 214 metro 1290;
#X obj 1081 214 metro 1300;
#X obj 1152 213 metro 1310;
#X obj 93 9 tgl 15 0 empty empty empty 17 7 0 10 -262144 -1 -1 0 1
;
#X obj 77 168 tgl 15 0 empty empty empty 17 7 0 10 -262144 -1 -1 0
1;
#X connect 8 0 1 0;
#X connect 9 0 2 0;
#X connect 10 0 3 0;
#X connect 11 0 4 0;
#X connect 12 0 5 0;
#X connect 13 0 6 0;
#X connect 14 0 7 0;
#X connect 15 0 0 0;
#X connect 16 0 25 0;
#X connect 17 0 26 0;
#X connect 18 0 27 0;
#X connect 19 0 28 0;
#X connect 20 0 29 0;
#X connect 21 0 30 0;
#X connect 22 0 31 0;
#X connect 23 0 24 0;
#X connect 32 0 49 0;
#X connect 33 0 50 0;
#X connect 34 0 51 0;
#X connect 35 0 52 0;
#X connect 36 0 53 0;
#X connect 37 0 54 0;
#X connect 38 0 55 0;
#X connect 39 0 48 0;
#X connect 40 0 57 0;
#X connect 41 0 58 0;
#X connect 42 0 59 0;
#X connect 43 0 60 0;
#X connect 44 0 61 0;
#X connect 45 0 62 0;
#X connect 46 0 63 0;
#X connect 47 0 56 0;
#X connect 64 0 15 0;
#X connect 65 0 8 0;
#X connect 66 0 9 0;
#X connect 67 0 10 0;
#X connect 68 0 11 0;
#X connect 69 0 12 0;
#X connect 70 0 13 0;
#X connect 71 0 14 0;
#X connect 72 0 23 0;
#X connect 73 0 16 0;
#X connect 74 0 17 0;
#X connect 75 0 18 0;
#X connect 76 0 19 0;
#X connect 77 0 20 0;
#X connect 78 0 21 0;
#X connect 79 0 22 0;
#X connect 80 0 39 0;
#X connect 81 0 32 0;
#X connect 82 0 33 0;
#X connect 83 0 34 0;
#X connect 84 0 35 0;
#X connect 85 0 36 0;
#X connect 86 0 37 0;
#X connect 87 0 38 0;
#X connect 88 0 47 0;
#X connect 89 0 40 0;
#X connect 90 0 41 0;
#X connect 91 0 42 0;
#X connect 92 0 43 0;
#X connect 93 0 44 0;
#X connect 94 0 45 0;
#X connect 95 0 46 0;
#X connect 96 0 64 0;
#X connect 96 0 65 0;
#X connect 96 0 66 0;
#X connect 96 0 67 0;
#X connect 96 0 68 0;
#X connect 96 0 69 0;
#X connect 96 0 70 0;
#X connect 96 0 71 0;
#X connect 96 0 72 0;
#X connect 96 0 73 0;
#X connect 96 0 74 0;
#X connect 96 0 75 0;
#X connect 96 0 76 0;
#X connect 96 0 77 0;
#X connect 96 0 78 0;
#X connect 96 0 79 0;
#X connect 96 0 97 0;
#X connect 97 0 80 0;
#X connect 97 0 81 0;
#X connect 97 0 82 0;
#X connect 97 0 83 0;
#X connect 97 0 84 0;
#X connect 97 0 85 0;
#X connect 97 0 86 0;
#X connect 97 0 87 0;
#X connect 97 0 88 0;
#X connect 97 0 89 0;
#X connect 97 0 90 0;
#X connect 97 0 91 0;
#X connect 97 0 92 0;
#X connect 97 0 93 0;
#X connect 97 0 94 0;
#X connect 97 0 95 0;
