#N canvas -8 -8 1536 781 10;
#X obj 477 113 notein, f 7;
#X obj -45 520 *~;
#X obj -41 495 line~;
#X obj 70 470 tgl 15 0 empty empty empty 17 7 0 10 -262144 -1 -1 1
1;
#X obj 25 519 *~;
#X obj 51 494 line~;
#X obj 142 471 tgl 15 0 empty empty empty 17 7 0 10 -262144 -1 -1 1
1;
#X obj 97 518 *~;
#X obj 122 495 line~;
#X obj 232 470 tgl 15 0 empty empty empty 17 7 0 10 -262144 -1 -1 1
1;
#X obj 210 493 line~;
#X obj 328 476 tgl 15 0 empty empty empty 17 7 0 10 -262144 -1 -1 1
1;
#X obj 294 521 *~;
#X obj 314 497 line~;
#X obj 407 477 tgl 15 0 empty empty empty 17 7 0 10 -262144 -1 -1 1
1;
#X obj 367 518 *~;
#X obj 386 497 line~;
#X obj 481 475 tgl 15 0 empty empty empty 17 7 0 10 -262144 -1 -1 1
1;
#X obj 438 518 *~;
#X obj 462 500 line~;
#X obj 367 135 key;
#X floatatom 354 162 5 0 0 0 - - -, f 5;
#X obj 342 183 - 96;
#X floatatom 389 204 5 0 0 0 - - -, f 5;
#X obj 560 480 tgl 15 0 empty empty empty 17 7 0 10 -262144 -1 -1 1
1;
#X obj 519 519 *~;
#X obj 548 500 line~;
#X obj 1004 478 tgl 15 0 empty empty empty 17 7 0 10 -262144 -1 -1
0 1;
#X obj 975 525 *~;
#X obj 994 499 line~;
#X obj 331 598 *~ 1;
#X obj 229 254 select 1 2 3 4 5 6 7 8;
#X obj 1178 271 select 9 10 11 12 13 14 15 16;
#X obj 1082 480 tgl 15 0 empty empty empty 17 7 0 10 -262144 -1 -1
1 1;
#X obj 1058 525 *~;
#X obj 1079 503 line~;
#X obj 1157 479 tgl 15 0 empty empty empty 17 7 0 10 -262144 -1 -1
0 1;
#X obj 1130 527 *~;
#X obj 1148 500 line~;
#X obj 1231 479 tgl 15 0 empty empty empty 17 7 0 10 -262144 -1 -1
0 1;
#X obj 1199 526 *~;
#X obj 1218 503 line~;
#X obj 1299 480 tgl 15 0 empty empty empty 17 7 0 10 -262144 -1 -1
0 1;
#X obj 1261 530 *~;
#X obj 1287 503 line~;
#X obj 1369 481 tgl 15 0 empty empty empty 17 7 0 10 -262144 -1 -1
0 1;
#X obj 1332 531 *~;
#X obj 1351 507 line~;
#X obj 190 517 *~;
#X obj 539 113 int 0;
#X obj 531 145 ==;
#X obj 486 187 *;
#X obj 377 598 *~ 1;
#X obj 415 598 *~ 1;
#X obj 456 598 *~ 1;
#X obj 502 599 *~ 1;
#X obj 539 600 *~ 1;
#X obj 578 599 *~ 1;
#X obj 615 600 *~ 1;
#X obj 763 543 ctlin;
#X obj 755 388 bng 15 250 50 0 empty empty empty 17 7 0 10 -262144
-1 -1;
#X obj -15 402 * 2;
#X obj 73 404 * 3;
#X obj 165 402 * 4;
#X obj 256 405 * 5;
#X obj 336 406 * 6;
#X obj 409 404 * 7;
#X obj 478 408 * 8;
#X obj 937 599 *~ 1;
#X obj 984 600 *~ 1;
#X obj 1028 601 *~ 1;
#X obj 1069 601 *~ 1;
#X obj 1116 600 *~ 1;
#X obj 1159 600 *~ 1;
#X obj 1196 599 *~ 1;
#X obj 1239 599 *~ 1;
#X obj 734 512 f 1;
#X obj 707 512 f 0;
#X obj 700 541 tgl 15 0 empty empty empty 17 7 0 10 -262144 -1 -1 1
1;
#X obj 732 538 tgl 15 0 empty empty empty 17 7 0 10 -262144 -1 -1 1
1;
#X obj 858 510 f 1;
#X obj 829 511 f 0;
#X obj 848 536 tgl 15 0 empty empty empty 17 7 0 10 -262144 -1 -1 0
1;
#X obj 871 537 tgl 15 0 empty empty empty 17 7 0 10 -262144 -1 -1 0
1;
#X obj 685 562 *;
#X obj 717 560 *;
#X obj 832 560 *;
#X obj 863 559 *;
#X obj 965 405 * 9;
#X obj 1038 405 * 10;
#X obj 1114 409 * 11;
#X obj 1197 408 * 12;
#X obj 1251 407 * 13;
#X obj 1341 403 * 14;
#N canvas 0 50 450 250 (subpatch) 0;
#X array sequencerPitches 6 float 3;
#A 0 220 261.63 293.66 329.63 392 440;
#X coords 0 0 6 1000 200 140 1 0 0;
#X restore 944 43 graph;
#X obj 765 81 tgl 15 0 empty empty empty 17 7 0 10 -262144 -1 -1 0
1;
#X obj 766 161 tabread sequencerPitches;
#X obj 636 319 f 1;
#X obj 607 320 f 0;
#X obj 873 325 f 1;
#X obj 845 324 f 0;
#X obj 785 351 ctlin;
#X obj 605 346 tgl 15 0 empty empty empty 17 7 0 10 -262144 -1 -1 0
1;
#X obj 626 346 tgl 15 0 empty empty empty 17 7 0 10 -262144 -1 -1 0
1;
#X obj 844 350 tgl 15 0 empty empty empty 17 7 0 10 -262144 -1 -1 0
1;
#X obj 865 350 tgl 15 0 empty empty empty 17 7 0 10 -262144 -1 -1 0
1;
#X obj 596 369 *;
#X obj 628 367 *;
#X obj 831 373 *;
#X obj 858 373 *;
#X floatatom 442 170 5 0 0 0 - - -, f 5;
#X obj 693 306 select 48 49 50 51 44;
#X obj -22 471 tgl 15 0 empty empty empty 17 7 0 10 -262144 -1 -1 1
1;
#X obj -83 402 * 1;
#X obj -60 425 +;
#X obj 101 426 +;
#X obj 14 426 +;
#X obj 270 427 +;
#X obj 189 428 +;
#X obj 360 428 +;
#X obj 519 430 +;
#X obj 435 430 +;
#X obj 647 429 tgl 15 0 empty empty empty 17 7 0 10 -262144 -1 -1 0
1;
#X floatatom -60 447 5 0 0 0 - - -, f 5;
#X floatatom 18 450 5 0 0 0 - - -, f 5;
#X obj 916 434 tgl 15 0 empty empty empty 17 7 0 10 -262144 -1 -1 0
1;
#X obj 958 432 +;
#X floatatom 969 457 5 0 0 0 - - -, f 5;
#X obj 1112 432 +;
#X obj 1045 432 +;
#X obj 1257 431 +;
#X obj 1189 431 +;
#X obj 1309 430 +;
#X floatatom 106 448 5 0 0 0 - - -, f 5;
#X floatatom 197 450 5 0 0 0 - - -, f 5;
#X floatatom 283 449 5 0 0 0 - - -, f 5;
#X floatatom 367 453 5 0 0 0 - - -, f 5;
#X floatatom 444 458 5 0 0 0 - - -, f 5;
#X floatatom 519 452 5 0 0 0 - - -, f 5;
#X floatatom 1055 457 5 0 0 0 - - -, f 5;
#X floatatom 1131 454 5 0 0 0 - - -, f 5;
#X floatatom 1200 455 5 0 0 0 - - -, f 5;
#X floatatom 1268 454 5 0 0 0 - - -, f 5;
#X floatatom 1335 456 5 0 0 0 - - -, f 5;
#X obj 765 123 random 7;
#X obj 825 54 random 3;
#X obj 825 76 * 250;
#X obj 825 582 AmpControl;
#X obj 665 583 AmpControl;
#X obj 557 412 TuneControl;
#X obj 828 414 TuneControl;
#X obj 1440 482 tgl 15 0 empty empty empty 17 7 0 10 -262144 -1 -1
0 1;
#X obj 1404 529 *~;
#X obj 1422 506 line~;
#X obj 1509 486 tgl 15 0 empty empty empty 17 7 0 10 -262144 -1 -1
0 1;
#X obj 1462 533 *~;
#X obj 1480 510 line~;
#X obj 1401 405 * 15;
#X obj 1449 409 * 16;
#X obj 1435 432 +;
#X obj 1383 431 +;
#X floatatom 1393 455 5 0 0 0 - - -, f 5;
#X floatatom 1457 456 5 0 0 0 - - -, f 5;
#X obj -83 469 bp~, f 7;
#X obj 6 469 bp~, f 5;
#X obj 93 468 bp~, f 6;
#X obj 184 469 bp~, f 5;
#X obj 279 475 bp~, f 5;
#X obj 358 474 bp~, f 5;
#X obj 429 480 bp~, f 5;
#X obj 512 476 bp~, f 5;
#X obj 665 458 adc~;
#X floatatom 747 455 5 0 0 0 - - -, f 5;
#X obj 958 482 bp~, f 5;
#X obj 1041 477 bp~, f 5;
#X obj 1116 476 bp~, f 6;
#X obj 1185 478 bp~, f 5;
#X obj 1256 478 bp~, f 5;
#X obj 1325 479 bp~, f 5;
#X obj 1395 481 bp~, f 4;
#X obj 1463 483 bp~, f 4;
#X obj 765 101 metro 125;
#X obj 748 713 dac~;
#X obj 766 183 / 2;
#X obj 485 217 - 35;
#X obj 654 489 env~;
#X floatatom 655 513 5 0 0 0 - - -, f 5;
#X obj 762 642 *~ 3, f 25;
#X obj 684 658 osc~ 220;
#X obj -31 593 env~;
#X obj 3 594 env~;
#X obj 48 592 env~;
#X obj 82 593 env~;
#X floatatom -25 627 5 0 0 0 - - -, f 5;
#X floatatom 13 627 5 0 0 0 - - -, f 5;
#X floatatom 48 629 5 0 0 0 - - -, f 5;
#X floatatom 82 628 5 0 0 0 - - -, f 5;
#X obj 114 594 env~;
#X obj 148 595 env~;
#X obj 193 593 env~;
#X obj 227 594 env~;
#X floatatom 120 628 5 0 0 0 - - -, f 5;
#X floatatom 158 628 5 0 0 0 - - -, f 5;
#X floatatom 193 630 5 0 0 0 - - -, f 5;
#X floatatom 227 629 5 0 0 0 - - -, f 5;
#X obj 677 686 *~ 0.2;
#X connect 0 0 51 0;
#X connect 0 0 60 0;
#X connect 0 0 110 0;
#X connect 0 1 50 0;
#X connect 1 0 30 0;
#X connect 1 0 189 0;
#X connect 2 0 1 1;
#X connect 3 0 5 0;
#X connect 4 0 52 0;
#X connect 4 0 190 0;
#X connect 5 0 4 1;
#X connect 6 0 8 0;
#X connect 7 0 53 0;
#X connect 7 0 191 0;
#X connect 8 0 7 1;
#X connect 9 0 10 0;
#X connect 10 0 48 1;
#X connect 11 0 13 0;
#X connect 12 0 55 0;
#X connect 12 0 197 0;
#X connect 13 0 12 1;
#X connect 14 0 16 0;
#X connect 15 0 56 0;
#X connect 15 0 198 0;
#X connect 16 0 15 1;
#X connect 17 0 19 0;
#X connect 18 0 57 0;
#X connect 18 0 199 0;
#X connect 19 0 18 1;
#X connect 20 0 21 0;
#X connect 21 0 22 0;
#X connect 22 0 23 0;
#X connect 24 0 26 0;
#X connect 25 0 58 0;
#X connect 25 0 200 0;
#X connect 26 0 25 1;
#X connect 27 0 29 0;
#X connect 28 0 68 0;
#X connect 29 0 28 1;
#X connect 30 0 187 0;
#X connect 31 0 112 0;
#X connect 31 1 3 0;
#X connect 31 2 6 0;
#X connect 31 3 9 0;
#X connect 31 4 11 0;
#X connect 31 5 14 0;
#X connect 31 6 17 0;
#X connect 31 7 24 0;
#X connect 31 8 32 0;
#X connect 32 0 27 0;
#X connect 32 1 33 0;
#X connect 32 2 36 0;
#X connect 32 3 39 0;
#X connect 32 4 42 0;
#X connect 32 5 45 0;
#X connect 32 6 151 0;
#X connect 32 7 154 0;
#X connect 33 0 35 0;
#X connect 34 0 69 0;
#X connect 35 0 34 1;
#X connect 36 0 38 0;
#X connect 37 0 70 0;
#X connect 38 0 37 1;
#X connect 39 0 41 0;
#X connect 40 0 71 0;
#X connect 41 0 40 1;
#X connect 42 0 44 0;
#X connect 43 0 72 0;
#X connect 44 0 43 1;
#X connect 45 0 47 0;
#X connect 46 0 73 0;
#X connect 47 0 46 1;
#X connect 48 0 54 0;
#X connect 48 0 192 0;
#X connect 49 0 50 1;
#X connect 50 0 51 1;
#X connect 51 0 111 0;
#X connect 51 0 184 0;
#X connect 52 0 187 0;
#X connect 53 0 187 0;
#X connect 54 0 187 0;
#X connect 55 0 187 0;
#X connect 56 0 187 0;
#X connect 57 0 187 0;
#X connect 58 0 187 0;
#X connect 59 0 84 0;
#X connect 59 0 86 0;
#X connect 59 1 85 0;
#X connect 59 1 87 0;
#X connect 60 0 147 0;
#X connect 60 0 148 0;
#X connect 60 0 149 0;
#X connect 60 0 150 0;
#X connect 61 0 116 0;
#X connect 62 0 115 0;
#X connect 63 0 118 0;
#X connect 64 0 117 0;
#X connect 65 0 119 0;
#X connect 66 0 121 0;
#X connect 67 0 120 0;
#X connect 68 0 187 0;
#X connect 69 0 187 0;
#X connect 70 0 187 0;
#X connect 71 0 187 0;
#X connect 72 0 187 0;
#X connect 73 0 187 0;
#X connect 74 0 187 0;
#X connect 75 0 187 0;
#X connect 76 0 78 0;
#X connect 76 0 79 0;
#X connect 77 0 78 0;
#X connect 77 0 79 0;
#X connect 78 0 84 1;
#X connect 79 0 85 1;
#X connect 80 0 82 0;
#X connect 80 0 83 0;
#X connect 81 0 82 0;
#X connect 81 0 83 0;
#X connect 82 0 86 1;
#X connect 83 0 87 1;
#X connect 84 0 148 1;
#X connect 85 0 148 2;
#X connect 86 0 147 1;
#X connect 87 0 147 2;
#X connect 88 0 126 0;
#X connect 89 0 129 0;
#X connect 90 0 128 0;
#X connect 91 0 131 0;
#X connect 92 0 130 0;
#X connect 93 0 132 0;
#X connect 95 0 181 0;
#X connect 96 0 61 0;
#X connect 96 0 62 0;
#X connect 96 0 63 0;
#X connect 96 0 64 0;
#X connect 96 0 65 0;
#X connect 96 0 66 0;
#X connect 96 0 67 0;
#X connect 96 0 88 0;
#X connect 96 0 89 0;
#X connect 96 0 90 0;
#X connect 96 0 91 0;
#X connect 96 0 92 0;
#X connect 96 0 93 0;
#X connect 96 0 113 0;
#X connect 96 0 157 0;
#X connect 96 0 158 0;
#X connect 96 0 183 0;
#X connect 97 0 102 0;
#X connect 97 0 103 0;
#X connect 98 0 102 0;
#X connect 98 0 103 0;
#X connect 99 0 104 0;
#X connect 99 0 105 0;
#X connect 100 0 104 0;
#X connect 100 0 105 0;
#X connect 101 0 106 0;
#X connect 101 0 108 0;
#X connect 101 1 107 0;
#X connect 101 1 109 0;
#X connect 102 0 106 1;
#X connect 103 0 107 1;
#X connect 104 0 108 1;
#X connect 105 0 109 1;
#X connect 106 0 149 1;
#X connect 107 0 149 2;
#X connect 108 0 150 1;
#X connect 109 0 150 2;
#X connect 111 0 76 0;
#X connect 111 0 81 0;
#X connect 111 0 98 0;
#X connect 111 0 100 0;
#X connect 111 1 77 0;
#X connect 111 1 80 0;
#X connect 111 1 98 0;
#X connect 111 1 100 0;
#X connect 111 2 77 0;
#X connect 111 2 81 0;
#X connect 111 2 97 0;
#X connect 111 2 100 0;
#X connect 111 3 77 0;
#X connect 111 3 81 0;
#X connect 111 3 98 0;
#X connect 111 3 99 0;
#X connect 111 4 149 3;
#X connect 111 4 150 3;
#X connect 112 0 2 0;
#X connect 113 0 114 0;
#X connect 114 0 123 0;
#X connect 115 0 133 0;
#X connect 116 0 124 0;
#X connect 117 0 135 0;
#X connect 118 0 134 0;
#X connect 119 0 136 0;
#X connect 120 0 138 0;
#X connect 121 0 137 0;
#X connect 123 0 163 1;
#X connect 124 0 164 1;
#X connect 126 0 127 0;
#X connect 127 0 173 1;
#X connect 128 0 140 0;
#X connect 129 0 139 0;
#X connect 130 0 142 0;
#X connect 131 0 141 0;
#X connect 132 0 143 0;
#X connect 133 0 165 1;
#X connect 134 0 166 1;
#X connect 135 0 167 1;
#X connect 136 0 168 1;
#X connect 137 0 169 1;
#X connect 138 0 170 1;
#X connect 139 0 174 1;
#X connect 140 0 175 1;
#X connect 141 0 176 1;
#X connect 142 0 177 1;
#X connect 143 0 178 1;
#X connect 144 0 96 0;
#X connect 145 0 146 0;
#X connect 146 0 181 1;
#X connect 147 0 68 1;
#X connect 147 1 69 1;
#X connect 147 2 70 1;
#X connect 147 3 71 1;
#X connect 147 4 72 1;
#X connect 147 5 73 1;
#X connect 147 6 74 1;
#X connect 147 7 75 1;
#X connect 148 0 30 1;
#X connect 148 1 52 1;
#X connect 148 2 53 1;
#X connect 148 3 54 1;
#X connect 148 4 55 1;
#X connect 148 5 56 1;
#X connect 148 6 57 1;
#X connect 148 7 58 1;
#X connect 149 0 114 1;
#X connect 149 1 116 1;
#X connect 149 2 115 1;
#X connect 149 3 118 1;
#X connect 149 4 117 1;
#X connect 149 5 119 1;
#X connect 149 6 121 1;
#X connect 149 7 120 1;
#X connect 149 8 122 0;
#X connect 150 0 126 1;
#X connect 150 1 129 1;
#X connect 150 2 128 1;
#X connect 150 3 131 1;
#X connect 150 4 130 1;
#X connect 150 5 132 1;
#X connect 150 6 160 1;
#X connect 150 7 159 1;
#X connect 150 8 125 0;
#X connect 151 0 153 0;
#X connect 152 0 74 0;
#X connect 153 0 152 1;
#X connect 154 0 156 0;
#X connect 155 0 75 0;
#X connect 156 0 155 1;
#X connect 157 0 160 0;
#X connect 158 0 159 0;
#X connect 159 0 162 0;
#X connect 160 0 161 0;
#X connect 161 0 179 1;
#X connect 162 0 180 1;
#X connect 163 0 1 0;
#X connect 164 0 4 0;
#X connect 165 0 7 0;
#X connect 166 0 48 0;
#X connect 167 0 12 0;
#X connect 168 0 15 0;
#X connect 169 0 18 0;
#X connect 170 0 25 0;
#X connect 171 0 163 0;
#X connect 171 0 164 0;
#X connect 171 0 165 0;
#X connect 171 0 166 0;
#X connect 171 0 167 0;
#X connect 171 0 168 0;
#X connect 171 0 169 0;
#X connect 171 0 170 0;
#X connect 171 0 173 0;
#X connect 171 0 185 0;
#X connect 171 1 174 0;
#X connect 171 1 175 0;
#X connect 171 1 176 0;
#X connect 171 1 177 0;
#X connect 171 1 178 0;
#X connect 171 1 179 0;
#X connect 171 1 180 0;
#X connect 172 0 163 2;
#X connect 172 0 164 2;
#X connect 172 0 165 2;
#X connect 172 0 166 2;
#X connect 172 0 167 2;
#X connect 172 0 168 2;
#X connect 172 0 169 2;
#X connect 172 0 170 2;
#X connect 172 0 180 2;
#X connect 172 0 179 2;
#X connect 172 0 178 2;
#X connect 172 0 177 2;
#X connect 172 0 176 2;
#X connect 172 0 175 2;
#X connect 172 0 174 2;
#X connect 172 0 173 2;
#X connect 173 0 28 0;
#X connect 174 0 34 0;
#X connect 175 0 37 0;
#X connect 176 0 40 0;
#X connect 177 0 43 0;
#X connect 178 0 46 0;
#X connect 179 0 152 0;
#X connect 180 0 155 0;
#X connect 181 0 144 0;
#X connect 181 0 145 0;
#X connect 184 0 31 0;
#X connect 185 0 186 0;
#X connect 187 0 182 1;
#X connect 187 0 182 0;
#X connect 188 0 205 0;
#X connect 189 0 193 0;
#X connect 190 0 194 0;
#X connect 191 0 195 0;
#X connect 192 0 196 0;
#X connect 197 0 201 0;
#X connect 198 0 202 0;
#X connect 199 0 203 0;
#X connect 200 0 204 0;
#X connect 205 0 182 1;
