#N canvas -8 -8 1536 781 10;
#X obj 133 60 s oscSend1;
#X obj 199 60 s oscSend2;
#X obj 265 60 s oscSend3;
#X obj 333 60 s oscSend4;
#X obj 401 60 s oscSend5;
#X obj 468 60 s oscSend6;
#X obj 534 60 s oscSend7;
#X obj 601 60 s oscSend8;
#X obj 199 41 bng 15 250 50 0 empty empty empty 17 7 0 10 -262144 -1
-1;
#X obj 265 41 bng 15 250 50 0 empty empty empty 17 7 0 10 -262144 -1
-1;
#X obj 333 41 bng 15 250 50 0 empty empty empty 17 7 0 10 -262144 -1
-1;
#X obj 401 39 bng 15 250 50 0 empty empty empty 17 7 0 10 -262144 -1
-1;
#X obj 468 39 bng 15 250 50 0 empty empty empty 17 7 0 10 -262144 -1
-1;
#X obj 534 39 bng 15 250 50 0 empty empty empty 17 7 0 10 -262144 -1
-1;
#X obj 601 39 bng 15 250 50 0 empty empty empty 17 7 0 10 -262144 -1
-1;
#X obj 133 41 bng 15 250 50 0 empty empty empty 17 7 0 10 -262144 -1
-1;
#X obj 734 41 bng 15 250 50 0 empty empty empty 17 7 0 10 -262144 -1
-1;
#X obj 807 41 bng 15 250 50 0 empty empty empty 17 7 0 10 -262144 -1
-1;
#X obj 880 41 bng 15 250 50 0 empty empty empty 17 7 0 10 -262144 -1
-1;
#X obj 954 39 bng 15 250 50 0 empty empty empty 17 7 0 10 -262144 -1
-1;
#X obj 1027 39 bng 15 250 50 0 empty empty empty 17 7 0 10 -262144
-1 -1;
#X obj 1100 39 bng 15 250 50 0 empty empty empty 17 7 0 10 -262144
-1 -1;
#X obj 1173 39 bng 15 250 50 0 empty empty empty 17 7 0 10 -262144
-1 -1;
#X obj 667 41 bng 15 250 50 0 empty empty empty 17 7 0 10 -262144 -1
-1;
#X obj 667 60 s oscSend9;
#X obj 734 60 s oscSend10;
#X obj 807 60 s oscSend11;
#X obj 880 60 s oscSend12;
#X obj 954 60 s oscSend13;
#X obj 1027 60 s oscSend14;
#X obj 1100 60 s oscSend15;
#X obj 1173 60 s oscSend16;
#X obj 207 90 bng 15 250 50 0 empty empty empty 17 7 0 10 -262144 -1
-1;
#X obj 280 90 bng 15 250 50 0 empty empty empty 17 7 0 10 -262144 -1
-1;
#X obj 354 90 bng 15 250 50 0 empty empty empty 17 7 0 10 -262144 -1
-1;
#X obj 427 88 bng 15 250 50 0 empty empty empty 17 7 0 10 -262144 -1
-1;
#X obj 500 88 bng 15 250 50 0 empty empty empty 17 7 0 10 -262144 -1
-1;
#X obj 573 88 bng 15 250 50 0 empty empty empty 17 7 0 10 -262144 -1
-1;
#X obj 646 88 bng 15 250 50 0 empty empty empty 17 7 0 10 -262144 -1
-1;
#X obj 134 90 bng 15 250 50 0 empty empty empty 17 7 0 10 -262144 -1
-1;
#X obj 799 90 bng 15 250 50 0 empty empty empty 17 7 0 10 -262144 -1
-1;
#X obj 872 90 bng 15 250 50 0 empty empty empty 17 7 0 10 -262144 -1
-1;
#X obj 945 90 bng 15 250 50 0 empty empty empty 17 7 0 10 -262144 -1
-1;
#X obj 1019 88 bng 15 250 50 0 empty empty empty 17 7 0 10 -262144
-1 -1;
#X obj 1092 88 bng 15 250 50 0 empty empty empty 17 7 0 10 -262144
-1 -1;
#X obj 1165 88 bng 15 250 50 0 empty empty empty 17 7 0 10 -262144
-1 -1;
#X obj 1238 88 bng 15 250 50 0 empty empty empty 17 7 0 10 -262144
-1 -1;
#X obj 726 90 bng 15 250 50 0 empty empty empty 17 7 0 10 -262144 -1
-1;
#X obj 134 109 s oscSend17;
#X obj 207 109 s oscSend18;
#X obj 280 109 s oscSend19;
#X obj 354 109 s oscSend20;
#X obj 427 109 s oscSend21;
#X obj 500 109 s oscSend22;
#X obj 573 109 s oscSend23;
#X obj 646 109 s oscSend24;
#X obj 726 109 s oscSend25;
#X obj 799 109 s oscSend26;
#X obj 872 109 s oscSend27;
#X obj 945 109 s oscSend28;
#X obj 1019 109 s oscSend29;
#X obj 1092 109 s oscSend30;
#X obj 1165 109 s oscSend31;
#X obj 1238 109 s oscSend32;
#X obj 60 252 s useExtFreq;
#X obj 225 251 s useIntFreq;
#X obj 225 222 bng 15 250 50 0 empty empty empty 17 7 0 10 -262144
-1 -1;
#X obj 60 179 bng 15 250 50 0 empty empty empty 17 7 0 10 -262144 -1
-1;
#X obj 145 251 s extFreq;
#X text 19 63 send: a bang to toggle the power of the oscillator,
f 18;
#X floatatom 145 230 5 0 0 0 - - -, f 5;
#X obj 145 209 f 440;
#X obj 139 502 s extAmp17;
#X obj 212 502 s extAmp18;
#X obj 285 502 s extAmp19;
#X obj 359 502 s extAmp20;
#X obj 432 502 s extAmp21;
#X obj 505 502 s extAmp22;
#X obj 578 502 s extAmp23;
#X obj 651 502 s extAmp24;
#X obj 731 502 s extAmp25;
#X obj 804 502 s extAmp26;
#X obj 877 502 s extAmp27;
#X obj 950 502 s extAmp28;
#X obj 1024 502 s extAmp29;
#X obj 1097 502 s extAmp30;
#X obj 1170 502 s extAmp31;
#X obj 1243 502 s extAmp32;
#X floatatom 204 403 5 0 0 0 - - -, f 5;
#X floatatom 338 401 5 0 0 0 - - -, f 5;
#X floatatom 270 402 5 0 0 0 - - -, f 5;
#X floatatom 406 401 5 0 0 0 - - -, f 5;
#X floatatom 473 402 5 0 0 0 - - -, f 5;
#X floatatom 539 400 5 0 0 0 - - -, f 5;
#X floatatom 607 400 5 0 0 0 - - -, f 5;
#X floatatom 672 399 5 0 0 0 - - -, f 5;
#X floatatom 739 398 5 0 0 0 - - -, f 5;
#X floatatom 885 399 5 0 0 0 - - -, f 5;
#X floatatom 812 400 5 0 0 0 - - -, f 5;
#X floatatom 959 399 5 0 0 0 - - -, f 5;
#X floatatom 1032 400 5 0 0 0 - - -, f 5;
#X floatatom 1105 398 5 0 0 0 - - -, f 5;
#X floatatom 1178 398 5 0 0 0 - - -, f 5;
#X floatatom 139 480 5 0 0 0 - - -, f 5;
#X floatatom 212 479 5 0 0 0 - - -, f 5;
#X floatatom 359 480 5 0 0 0 - - -, f 5;
#X floatatom 285 481 5 0 0 0 - - -, f 5;
#X floatatom 432 480 5 0 0 0 - - -, f 5;
#X floatatom 505 481 5 0 0 0 - - -, f 5;
#X floatatom 578 479 5 0 0 0 - - -, f 5;
#X floatatom 651 479 5 0 0 0 - - -, f 5;
#X floatatom 731 478 5 0 0 0 - - -, f 5;
#X floatatom 804 476 5 0 0 0 - - -, f 5;
#X floatatom 950 477 5 0 0 0 - - -, f 5;
#X floatatom 877 478 5 0 0 0 - - -, f 5;
#X floatatom 1024 477 5 0 0 0 - - -, f 5;
#X floatatom 1097 478 5 0 0 0 - - -, f 5;
#X floatatom 1170 476 5 0 0 0 - - -, f 5;
#X floatatom 1243 476 5 0 0 0 - - -, f 5;
#X floatatom 137 404 5 0 0 0 - - -, f 5;
#X text 6 446 send static value: A decimal value between 0 and 1 \,
inclusive, f 19;
#X text 8 585 send signal value: A decimal value between 0 and 1 \,
inclusive, f 19;
#X text 45 397 Amplitude;
#X obj 137 428 sig~;
#X obj 138 453 s~ extAmp1;
#X obj 204 428 sig~;
#X obj 204 453 s~ extAmp2;
#X obj 270 453 s~ extAmp3;
#X obj 338 453 s~ extAmp4;
#X obj 406 453 s~ extAmp5;
#X obj 473 453 s~ extAmp6;
#X obj 539 453 s~ extAmp7;
#X obj 606 453 s~ extAmp8;
#X obj 672 453 s~ extAmp9;
#X obj 739 453 s~ extAmp10;
#X obj 812 453 s~ extAmp11;
#X obj 885 453 s~ extAmp12;
#X obj 959 453 s~ extAmp13;
#X obj 1032 453 s~ extAmp14;
#X obj 1105 453 s~ extAmp15;
#X obj 1178 453 s~ extAmp16;
#X obj 270 427 sig~;
#X obj 338 426 sig~;
#X obj 406 427 sig~;
#X obj 473 427 sig~;
#X obj 539 426 sig~;
#X obj 607 425 sig~;
#X obj 151 331 sig~;
#X obj 112 376 -~;
#X obj 158 302 f 1;
#X obj 74 335 osc~ 0.5;
#X obj 286 332 sig~;
#X obj 244 370 -~;
#X obj 285 300 f 1;
#X obj 206 329 osc~ 0.51;
#X obj 608 299 sig~;
#X obj 566 337 -~;
#X obj 607 267 f 1;
#X obj 528 296 osc~ 0.51;
#X connect 8 0 1 0;
#X connect 9 0 2 0;
#X connect 10 0 3 0;
#X connect 11 0 4 0;
#X connect 12 0 5 0;
#X connect 13 0 6 0;
#X connect 14 0 7 0;
#X connect 15 0 0 0;
#X connect 16 0 25 0;
#X connect 17 0 26 0;
#X connect 18 0 27 0;
#X connect 19 0 28 0;
#X connect 20 0 29 0;
#X connect 21 0 30 0;
#X connect 22 0 31 0;
#X connect 23 0 24 0;
#X connect 32 0 49 0;
#X connect 33 0 50 0;
#X connect 34 0 51 0;
#X connect 35 0 52 0;
#X connect 36 0 53 0;
#X connect 37 0 54 0;
#X connect 38 0 55 0;
#X connect 39 0 48 0;
#X connect 40 0 57 0;
#X connect 41 0 58 0;
#X connect 42 0 59 0;
#X connect 43 0 60 0;
#X connect 44 0 61 0;
#X connect 45 0 62 0;
#X connect 46 0 63 0;
#X connect 47 0 56 0;
#X connect 66 0 65 0;
#X connect 67 0 64 0;
#X connect 67 0 71 0;
#X connect 70 0 68 0;
#X connect 71 0 70 0;
#X connect 88 0 125 0;
#X connect 89 0 142 0;
#X connect 90 0 141 0;
#X connect 91 0 143 0;
#X connect 92 0 144 0;
#X connect 93 0 145 0;
#X connect 94 0 146 0;
#X connect 95 0 133 0;
#X connect 96 0 134 0;
#X connect 97 0 136 0;
#X connect 98 0 135 0;
#X connect 99 0 137 0;
#X connect 100 0 138 0;
#X connect 101 0 139 0;
#X connect 102 0 140 0;
#X connect 103 0 72 0;
#X connect 104 0 73 0;
#X connect 105 0 75 0;
#X connect 106 0 74 0;
#X connect 107 0 76 0;
#X connect 108 0 77 0;
#X connect 109 0 78 0;
#X connect 110 0 79 0;
#X connect 111 0 80 0;
#X connect 112 0 81 0;
#X connect 113 0 83 0;
#X connect 114 0 82 0;
#X connect 115 0 84 0;
#X connect 116 0 85 0;
#X connect 117 0 86 0;
#X connect 118 0 87 0;
#X connect 119 0 123 0;
#X connect 123 0 124 0;
#X connect 125 0 126 0;
#X connect 141 0 127 0;
#X connect 142 0 128 0;
#X connect 143 0 129 0;
#X connect 144 0 130 0;
#X connect 145 0 131 0;
#X connect 146 0 132 0;
#X connect 149 0 147 0;
#X connect 150 0 148 0;
#X connect 151 0 152 1;
#X connect 153 0 151 0;
#X connect 154 0 152 0;
#X connect 155 0 156 1;
#X connect 157 0 155 0;
#X connect 158 0 156 0;
