#N canvas 728 128 700 489 10;
#X obj 27 148 ==;
#X obj 15 171 *;
#X obj 155 147 ==;
#X obj 143 170 *;
#X obj 137 223 select 0;
#X obj 225 149 ==;
#X obj 213 172 *;
#X obj 207 225 select 0;
#X obj 89 148 ==;
#X obj 78 173 *;
#X obj 74 223 select 0;
#X obj 293 148 ==;
#X obj 281 171 *;
#X obj 275 224 select 0;
#X obj 368 149 ==;
#X obj 356 172 *;
#X obj 350 225 select 0;
#X obj 431 149 ==;
#X obj 419 172 *;
#X obj 413 225 select 0;
#X obj 501 146 ==;
#X obj 489 169 *;
#X obj 483 222 select 0;
#X obj 32 38 inlet initBang;
#X obj 161 40 inlet ctlinVal;
#X obj 304 39 inlet ctrlinWhich;
#X obj 585 147 inlet resetAll;
#X obj 13 252 - 63;
#X obj 16 276 / 6;
#X obj 579 287 bng 15 250 50 0 empty empty empty 17 7 0 10 -262144
-1 -1;
#X obj 33 347 *;
#X obj 9 225 select 0;
#X obj 575 314 tgl 15 0 empty empty empty 17 7 0 10 -262144 -1 -1 1
1;
#X obj 22 309 f;
#X obj 137 249 - 63;
#X obj 142 273 / 6;
#X obj 160 346 *;
#X obj 150 309 f;
#X obj 207 255 - 63;
#X obj 211 279 / 6;
#X obj 218 352 *;
#X obj 209 312 f;
#X obj 75 250 - 63;
#X obj 77 274 / 6;
#X obj 100 349 *;
#X obj 85 307 f;
#X obj 279 256 - 63;
#X obj 283 280 / 6;
#X obj 290 353 *;
#X obj 281 313 f;
#X obj 350 255 - 63;
#X obj 354 279 / 6;
#X obj 361 352 *;
#X obj 352 312 f;
#X obj 414 256 - 63;
#X obj 418 280 / 6;
#X obj 425 353 *;
#X obj 416 313 f;
#X obj 482 258 - 63;
#X obj 486 282 / 6;
#X obj 493 355 *;
#X obj 484 315 f;
#X obj 36 397 outlet;
#X obj 103 397 outlet;
#X obj 159 399 outlet;
#X obj 216 401 outlet;
#X obj 283 399 outlet;
#X obj 358 392 outlet;
#X obj 418 393 outlet;
#X obj 483 391 outlet;
#X obj 561 377 outlet;
#X obj 43 124 f 41;
#X obj 105 124 f 42;
#X obj 171 123 f 43;
#X obj 241 125 f 44;
#X obj 309 124 f 45;
#X obj 369 123 f 46;
#X obj 447 125 f 47;
#X obj 517 122 f 48;
#X floatatom 29 199 5 0 0 0 - - -, f 5;
#X floatatom 22 331 5 0 0 0 - - -, f 5;
#X connect 0 0 1 1;
#X connect 1 0 31 0;
#X connect 1 0 79 0;
#X connect 2 0 3 1;
#X connect 3 0 4 0;
#X connect 4 1 34 0;
#X connect 5 0 6 1;
#X connect 6 0 7 0;
#X connect 7 1 38 0;
#X connect 8 0 9 1;
#X connect 9 0 10 0;
#X connect 10 1 42 0;
#X connect 11 0 12 1;
#X connect 12 0 13 0;
#X connect 13 1 46 0;
#X connect 14 0 15 1;
#X connect 15 0 16 0;
#X connect 16 1 50 0;
#X connect 17 0 18 1;
#X connect 18 0 19 0;
#X connect 19 1 54 0;
#X connect 20 0 21 1;
#X connect 21 0 22 0;
#X connect 22 1 58 0;
#X connect 23 0 71 0;
#X connect 23 0 72 0;
#X connect 23 0 73 0;
#X connect 23 0 74 0;
#X connect 23 0 75 0;
#X connect 23 0 76 0;
#X connect 23 0 77 0;
#X connect 23 0 78 0;
#X connect 24 0 1 0;
#X connect 24 0 9 0;
#X connect 24 0 3 0;
#X connect 24 0 6 0;
#X connect 24 0 12 0;
#X connect 24 0 15 0;
#X connect 24 0 18 0;
#X connect 24 0 21 0;
#X connect 25 0 20 0;
#X connect 25 0 17 0;
#X connect 25 0 14 0;
#X connect 25 0 11 0;
#X connect 25 0 5 0;
#X connect 25 0 2 0;
#X connect 25 0 8 0;
#X connect 25 0 0 0;
#X connect 26 0 29 0;
#X connect 27 0 28 0;
#X connect 28 0 33 0;
#X connect 29 0 32 0;
#X connect 29 0 33 0;
#X connect 29 0 45 0;
#X connect 29 0 37 0;
#X connect 29 0 41 0;
#X connect 29 0 49 0;
#X connect 29 0 53 0;
#X connect 29 0 57 0;
#X connect 29 0 61 0;
#X connect 30 0 62 0;
#X connect 31 1 27 0;
#X connect 32 0 30 1;
#X connect 32 0 44 1;
#X connect 32 0 36 1;
#X connect 32 0 40 1;
#X connect 32 0 48 1;
#X connect 32 0 52 1;
#X connect 32 0 56 1;
#X connect 32 0 60 1;
#X connect 32 0 70 0;
#X connect 33 0 30 0;
#X connect 33 0 80 0;
#X connect 34 0 35 0;
#X connect 35 0 37 0;
#X connect 36 0 64 0;
#X connect 37 0 36 0;
#X connect 38 0 39 0;
#X connect 39 0 41 0;
#X connect 40 0 65 0;
#X connect 41 0 40 0;
#X connect 42 0 43 0;
#X connect 43 0 45 0;
#X connect 44 0 63 0;
#X connect 45 0 44 0;
#X connect 46 0 47 0;
#X connect 47 0 49 0;
#X connect 48 0 66 0;
#X connect 49 0 48 0;
#X connect 50 0 51 0;
#X connect 51 0 53 0;
#X connect 52 0 67 0;
#X connect 53 0 52 0;
#X connect 54 0 55 0;
#X connect 55 0 57 0;
#X connect 56 0 68 0;
#X connect 57 0 56 0;
#X connect 58 0 59 0;
#X connect 59 0 61 0;
#X connect 60 0 69 0;
#X connect 61 0 60 0;
#X connect 71 0 0 1;
#X connect 72 0 8 1;
#X connect 73 0 2 1;
#X connect 74 0 5 1;
#X connect 75 0 11 1;
#X connect 76 0 14 1;
#X connect 77 0 17 1;
#X connect 78 0 20 1;
